SplineFontDB: 3.0
FontName: Lohit-Tamil
FullName: Lohit Tamil
FamilyName: Lohit Tamil
Weight: Book
Copyright: Copyright 2011-12 Lohit Fonts Project contributors.\n<http://fedorahosted.org/lohit> \n\n Licensed under the SIL Open Font License 1.1 (see file OFL.txt)
Version: 2.5.3
ItalicAngle: 0
UnderlinePosition: -368
UnderlineWidth: 24
Ascent: 700
Descent: 324
LayerCount: 2
Layer: 0 1 "Back"  1
Layer: 1 1 "Fore"  0
NeedsXUIDChange: 1
XUID: [1021 140 1710970845 9878666]
FSType: 0
OS2Version: 1
OS2_WeightWidthSlopeOnly: 0
OS2_UseTypoMetrics: 1
CreationTime: 1160992028
ModificationTime: 1340023350
PfmFamily: 33
TTFWeight: 400
TTFWidth: 5
LineGap: 0
VLineGap: 0
Panose: 2 11 6 0 0 0 0 0 0 0
OS2TypoAscent: 700
OS2TypoAOffset: 1
OS2TypoDescent: -324
OS2TypoDOffset: 1
OS2TypoLinegap: 20
OS2WinAscent: 5
OS2WinAOffset: 1
OS2WinDescent: 0
OS2WinDOffset: 1
HheadAscent: 5
HheadAOffset: 1
HheadDescent: -17
HheadDOffset: 1
OS2SubXSize: 861
OS2SubYSize: 799
OS2SubXOff: 0
OS2SubYOff: 246
OS2SupXSize: 861
OS2SupYSize: 799
OS2SupXOff: 0
OS2SupYOff: 615
OS2StrikeYSize: 61
OS2StrikeYPos: 307
OS2Vendor: 'ACE '
Lookup: 4 0 0 "'abvs' Above Base Substitutions in Tamil lookup 0"  {"'abvs' Above Base Substitutions in Tamil lookup 0 subtable"  } ['abvs' ('taml' <'dflt' > ) ]
Lookup: 4 0 0 "'akhn' Akhand in Tamil lookup 1"  {"'akhn' Akhand in Tamil lookup 1 subtable"  } ['akhn' ('taml' <'dflt' > ) ]
Lookup: 4 0 0 "'blws' Below Base Substitutions in Tamil lookup 2"  {"'blws' Below Base Substitutions in Tamil lookup 2 subtable"  } ['blws' ('taml' <'dflt' > ) ]
Lookup: 4 0 0 "'half' Half Forms in Tamil lookup 3"  {"'half' Half Forms in Tamil lookup 3 subtable"  } ['half' ('taml' <'dflt' > ) ]
Lookup: 4 0 0 "'haln' Halant Forms in Tamil lookup 4"  {"'haln' Halant Forms in Tamil lookup 4 subtable"  } ['haln' ('taml' <'dflt' > ) ]
Lookup: 260 0 0 "'abvm' Above Base Mark in Tamil lookup 0"  {"'abvm' Above Base Mark in Tamil lookup 0 subtable"  } ['abvm' ('taml' <'dflt' > ) ]
MarkAttachClasses: 1

StartChar: .notdef
Encoding: 65536 -1 0
Width: 983
VWidth: 1023
GlyphClass: 2
Flags: W
LayerCount: 2
Fore
SplineSet
123 861 m 1,0,-1
 861 861 l 1,1,-1
 861 0 l 1,2,-1
 123 0 l 1,3,-1
 123 861 l 1,0,-1
799 61 m 1,4,-1
 799 799 l 1,5,-1
 184 799 l 1,6,-1
 184 61 l 1,7,-1
 799 61 l 1,4,-1
EndSplineSet
Validated: 1
EndChar

StartChar: exclam
Encoding: 33 33 4
Width: 282
VWidth: 1023
GlyphClass: 2
Flags: W
HStem: -37 98<106.439 176.045>
VStem: 92 99<-22.5608 46.5608 308.703 639.625> 129 25<98 280.812>
LayerCount: 2
Fore
SplineSet
106 47 m 128,-1,1
 120 61 120 61 141 61 c 256,2,3
 162 61 162 61 176.5 47 c 128,-1,4
 191 33 191 33 191 12 c 256,5,6
 191 -9 191 -9 176.5 -23 c 128,-1,7
 162 -37 162 -37 141 -37 c 256,8,9
 120 -37 120 -37 106 -23 c 128,-1,10
 92 -9 92 -9 92 12 c 129,-1,0
 92 33 92 33 106 47 c 128,-1,1
106 630.5 m 128,-1,12
 120 652 120 652 141 652 c 256,13,14
 162 652 162 652 176.5 630 c 128,-1,15
 191 608 191 608 191 578 c 0,16,17
 191 498 191 498 172.5 338 c 128,-1,18
 154 178 154 178 154 98 c 1,19,-1
 129 98 l 1,20,21
 129 178 129 178 110.5 338 c 128,-1,22
 92 498 92 498 92 578 c 1,23,11
 92 609 92 609 106 630.5 c 128,-1,12
EndSplineSet
Validated: 1
EndChar

StartChar: quotedbl
Encoding: 34 34 5
Width: 417
VWidth: 1023
GlyphClass: 2
Flags: W
HStem: 615 246<92 172 252 326>
VStem: 92 80<615 861> 252 74<615 861>
LayerCount: 2
Fore
SplineSet
92 861 m 1,0,-1
 172 861 l 1,1,-1
 172 615 l 1,2,-1
 92 615 l 1,3,-1
 92 861 l 1,0,-1
252 861 m 1,4,-1
 326 861 l 1,5,-1
 326 615 l 1,6,-1
 252 615 l 1,7,-1
 252 861 l 1,4,-1
EndSplineSet
Validated: 1
EndChar

StartChar: numbersign
Encoding: 35 35 6
Width: 967
VWidth: 1023
GlyphClass: 2
Flags: W
HStem: 141 74<102 218 309 537 628 830> 547 74<138 311 402 631 722 865>
LayerCount: 2
Fore
SplineSet
218 141 m 1,0,-1
 92 141 l 1,1,-1
 102 215 l 1,2,-1
 235 215 l 1,3,-1
 311 547 l 1,4,-1
 128 547 l 1,5,-1
 138 621 l 1,6,-1
 328 621 l 1,7,-1
 379 836 l 1,8,-1
 452 836 l 1,9,-1
 402 621 l 1,10,-1
 648 621 l 1,11,-1
 698 836 l 1,12,-1
 772 836 l 1,13,-1
 722 621 l 1,14,-1
 875 621 l 1,15,-1
 865 547 l 1,16,-1
 704 547 l 1,17,-1
 628 215 l 1,18,-1
 840 215 l 1,19,-1
 830 141 l 1,20,-1
 611 141 l 1,21,-1
 575 -25 l 1,22,-1
 502 -25 l 1,23,-1
 537 141 l 1,24,-1
 291 141 l 1,25,-1
 256 -25 l 1,26,-1
 182 -25 l 1,27,-1
 218 141 l 1,0,-1
309 215 m 1,28,-1
 554 215 l 1,29,-1
 631 547 l 1,30,-1
 385 547 l 1,31,-1
 309 215 l 1,28,-1
EndSplineSet
Validated: 1
EndChar

StartChar: dollar
Encoding: 36 36 7
Width: 569
VWidth: 1023
GlyphClass: 2
Flags: W
HStem: 4 53<295 374.533> 564 59<295 370.744>
VStem: 92 62<427.198 532.367> 243 52<-57 4 58 297 376 564 623 666> 413 64<92.7987 214.622>
LayerCount: 2
Fore
SplineSet
243 -57 m 1,0,-1
 243 5 l 1,1,2
 209 5 209 5 169.5 25 c 128,-1,3
 130 45 130 45 92 84 c 1,4,-1
 132 138 l 1,5,6
 153 108 153 108 181.5 87 c 128,-1,7
 210 66 210 66 243 58 c 1,8,-1
 243 315 l 1,9,10
 174 347 174 347 133 393 c 128,-1,11
 92 439 92 439 92 483 c 0,12,13
 92 541 92 541 136.5 582 c 128,-1,14
 181 623 181 623 243 623 c 1,15,-1
 243 666 l 1,16,-1
 295 666 l 1,17,-1
 295 623 l 1,18,19
 337 619 337 619 373 601.5 c 128,-1,20
 409 584 409 584 434 554 c 1,21,-1
 402 510 l 1,22,23
 386 536 386 536 357 550 c 128,-1,24
 328 564 328 564 295 564 c 1,25,-1
 295 365 l 1,26,27
 379 326 379 326 428 267.5 c 128,-1,28
 477 209 477 209 477 150 c 0,29,30
 477 90 477 90 423.5 47 c 128,-1,31
 370 4 370 4 295 4 c 1,32,-1
 295 -57 l 1,33,-1
 243 -57 l 1,0,-1
378 81 m 0,34,35
 413 109 413 109 413 151 c 0,36,37
 413 188 413 188 381.5 227 c 128,-1,38
 350 266 350 266 295 297 c 1,39,-1
 295 57 l 1,40,41
 299 57 299 57 306.797 56.5 c 0,42,43
 309.961 56.2881 309.961 56.2881 313.1 56.2881 c 0,44,45
 347.003 56.2881 347.003 56.2881 378 81 c 0,34,35
243 565 m 1,46,47
 204 558 204 558 179 535.5 c 128,-1,48
 154 513 154 513 154 484 c 0,49,50
 154 453 154 453 178.5 424.5 c 128,-1,51
 203 396 203 396 243 376 c 1,52,-1
 243 565 l 1,46,47
EndSplineSet
Validated: 1
EndChar

StartChar: percent
Encoding: 37 37 8
Width: 799
VWidth: 1023
GlyphClass: 2
Flags: W
HStem: 0 49<479.564 626.951> 320 49<479.049 626.951> 369 49<172.049 319.951> 688 50<172.049 319.436>
VStem: 92 62<440.174 665.826> 338 62<440.174 666.341> 400 61<71.1742 297.826> 645 62<71.1742 297.826>
LayerCount: 2
Fore
SplineSet
658 738 m 1,0,-1
 707 738 l 1,1,-1
 141 0 l 1,2,-1
 92 0 l 1,3,-1
 658 738 l 1,0,-1
92 615 m 2,4,5
 92 665 92 665 128.5 701.5 c 128,-1,6
 165 738 165 738 215 738 c 2,7,-1
 277 738 l 2,8,9
 327 738 327 738 363.5 701.5 c 128,-1,10
 400 665 400 665 400 615 c 2,11,-1
 400 492 l 2,12,13
 400 442 400 442 363.5 405.5 c 128,-1,14
 327 369 327 369 277 369 c 2,15,-1
 215 369 l 2,16,17
 165 369 165 369 128.5 405 c 128,-1,18
 92 441 92 441 92 492 c 1,19,-1
 92 615 l 2,4,5
171.5 439.5 m 128,-1,21
 189 418 189 418 215 418 c 2,22,-1
 277 418 l 2,23,24
 303 418 303 418 320.5 439.5 c 128,-1,25
 338 461 338 461 338 492 c 2,26,-1
 338 615 l 2,27,28
 338 646 338 646 320 667 c 128,-1,29
 302 688 302 688 277 688 c 2,30,-1
 215 688 l 2,31,32
 189 688 189 688 171.5 666.5 c 128,-1,33
 154 645 154 645 154 615 c 2,34,-1
 154 492 l 1,35,20
 154 461 154 461 171.5 439.5 c 128,-1,21
400 246 m 2,36,37
 400 296 400 296 436 332.5 c 128,-1,38
 472 369 472 369 522 369 c 2,39,-1
 584 369 l 2,40,41
 634 369 634 369 670.5 332.5 c 128,-1,42
 707 296 707 296 707 246 c 2,43,-1
 707 123 l 2,44,45
 707 73 707 73 670.5 36.5 c 128,-1,46
 634 0 634 0 584 0 c 2,47,-1
 522 0 l 2,48,49
 472 0 472 0 436 36.5 c 128,-1,50
 400 73 400 73 400 123 c 1,51,-1
 400 246 l 2,36,37
479 70.5 m 128,-1,53
 497 49 497 49 522 49 c 2,54,-1
 584 49 l 2,55,56
 610 49 610 49 627.5 70.5 c 128,-1,57
 645 92 645 92 645 123 c 2,58,-1
 645 246 l 2,59,60
 645 277 645 277 627.5 298.5 c 128,-1,61
 610 320 610 320 584 320 c 2,62,-1
 522 320 l 2,63,64
 496 320 496 320 478.5 298.5 c 128,-1,65
 461 277 461 277 461 246 c 2,66,-1
 461 123 l 1,67,52
 461 92 461 92 479 70.5 c 128,-1,53
EndSplineSet
Validated: 1
EndChar

StartChar: ampersand
Encoding: 38 38 9
Width: 802
VWidth: 1023
GlyphClass: 2
Flags: W
HStem: -14 47<533.754 637.681> -1 50<202.036 362.577> 613 46<302.812 416.068>
VStem: 92 58<97.8904 234.337> 209 50<430.83 569.703> 436 51<478.295 591.855> 575 58<301.5 393>
LayerCount: 2
Fore
SplineSet
146.5 46 m 128,-1,1
 92 93 92 93 92 161 c 0,2,3
 92 218 92 218 135 275.5 c 128,-1,4
 178 333 178 333 253 376 c 1,5,6
 231 414 231 414 220 447.5 c 128,-1,7
 209 481 209 481 209 506 c 0,8,9
 209 569 209 569 257 614 c 128,-1,10
 305 659 305 659 374 659 c 0,11,12
 421 659 421 659 454 623.5 c 128,-1,13
 487 588 487 588 487 537 c 0,14,15
 487 492 487 492 443.5 444.5 c 128,-1,16
 400 397 400 397 327 363 c 1,17,18
 344 335 344 335 389.5 254 c 128,-1,19
 435 173 435 173 456 149 c 1,20,21
 514 207 514 207 544.5 270 c 128,-1,22
 575 333 575 333 575 393 c 1,23,-1
 633 393 l 1,24,25
 616 296 616 296 579 221 c 128,-1,26
 542 146 542 146 490 103 c 1,27,28
 513 70 513 70 538.5 51.5 c 128,-1,29
 564 33 564 33 585 33 c 0,30,31
 608 33 608 33 632 50.5 c 128,-1,32
 656 68 656 68 674 98 c 1,33,-1
 711 68 l 1,34,35
 689 30 689 30 655.5 8 c 128,-1,36
 622 -14 622 -14 585 -14 c 0,37,38
 549 -14 549 -14 514 9 c 128,-1,39
 479 32 479 32 451 71 c 1,40,41
 417 37 417 37 371.5 18 c 128,-1,42
 326 -1 326 -1 278 -1 c 1,43,0
 201 -1 201 -1 146.5 46 c 128,-1,1
350.5 65.5 m 128,-1,45
 388 82 388 82 425 113 c 1,46,47
 404 138 404 138 371 190.5 c 128,-1,48
 338 243 338 243 284 338 c 1,49,50
 221 302 221 302 185.5 255 c 128,-1,51
 150 208 150 208 150 161 c 256,52,53
 150 114 150 114 188 81.5 c 128,-1,54
 226 49 226 49 280 49 c 1,55,44
 313 49 313 49 350.5 65.5 c 128,-1,45
400 461.5 m 128,-1,57
 436 500 436 500 436 537 c 0,58,59
 436 569 436 569 416.5 591 c 128,-1,60
 397 613 397 613 370 613 c 0,61,62
 325 613 325 613 292 582 c 128,-1,63
 259 551 259 551 259 506 c 0,64,65
 259 483 259 483 270.5 454 c 128,-1,66
 282 425 282 425 304 395 c 1,67,56
 364 423 364 423 400 461.5 c 128,-1,57
EndSplineSet
Validated: 1
EndChar

StartChar: quotesingle
Encoding: 39 39 10
Width: 264
VWidth: 1023
GlyphClass: 2
Flags: W
HStem: 615 246<92 172>
VStem: 92 80<615 861>
LayerCount: 2
Fore
SplineSet
92 861 m 1,0,-1
 172 861 l 1,1,-1
 172 615 l 1,2,-1
 92 615 l 1,3,-1
 92 861 l 1,0,-1
EndSplineSet
Validated: 1
EndChar

StartChar: parenleft
Encoding: 40 40 11
Width: 430
VWidth: 1023
GlyphClass: 2
Flags: W
HStem: 742 20G<241.5 329.833>
VStem: 92 62<56.7399 437.125>
LayerCount: 2
Fore
SplineSet
143 534 m 128,-1,1
 194 668 194 668 289 762 c 1,2,-1
 338 738 l 1,3,4
 249 649 249 649 201.5 521 c 128,-1,5
 154 393 154 393 154 246 c 256,6,7
 154 98 154 98 202 -29.5 c 128,-1,8
 250 -157 250 -157 338 -246 c 1,9,-1
 289 -270 l 1,10,11
 194 -175 194 -175 143 -41.5 c 128,-1,12
 92 92 92 92 92 246 c 129,-1,0
 92 400 92 400 143 534 c 128,-1,1
EndSplineSet
Validated: 1
EndChar

StartChar: parenright
Encoding: 41 41 12
Width: 430
VWidth: 1023
GlyphClass: 2
Flags: W
HStem: 742 20G<100.167 188.5>
VStem: 289 49<65.8044 425.769>
LayerCount: 2
Fore
SplineSet
238 -23.5 m 128,-1,1
 289 104 289 104 289 246 c 256,2,3
 289 387 289 387 238 515 c 128,-1,4
 187 643 187 643 92 738 c 1,5,-1
 141 762 l 1,6,7
 236 667 236 667 287 533.5 c 128,-1,8
 338 400 338 400 338 246 c 256,9,10
 338 92 338 92 287 -42 c 128,-1,11
 236 -176 236 -176 141 -270 c 1,12,-1
 92 -246 l 1,13,0
 187 -151 187 -151 238 -23.5 c 128,-1,1
EndSplineSet
Validated: 1
EndChar

StartChar: asterisk
Encoding: 42 42 13
Width: 559
GlyphClass: 2
Flags: W
HStem: 360.442 339.558
LayerCount: 2
Fore
SplineSet
209.844 360.442 m 1,0,-1
 149.922 400.391 l 1,1,-1
 249.792 520.234 l 1,2,-1
 96.6582 493.603 l 1,3,-1
 90 573.498 l 1,4,-1
 243.134 560.182 l 1,5,-1
 156.58 666.71 l 1,6,-1
 229.818 700 l 1,7,-1
 276.424 586.814 l 1,8,-1
 329.688 700 l 1,9,-1
 396.268 666.71 l 1,10,-1
 316.372 560.182 l 1,11,-1
 469.506 580.156 l 1,12,-1
 469.506 506.918 l 1,13,-1
 316.372 520.234 l 1,14,-1
 429.558 400.391 l 1,15,-1
 356.32 360.442 l 1,16,-1
 289.74 506.918 l 1,17,-1
 209.844 360.442 l 1,0,-1
EndSplineSet
Validated: 1
EndChar

StartChar: plus
Encoding: 43 43 14
Width: 614
VWidth: 1023
GlyphClass: 2
Flags: W
HStem: 221 49<92 277 338 522>
VStem: 277 61<61 221 270 430>
LayerCount: 2
Fore
SplineSet
92 270 m 1,0,-1
 277 270 l 1,1,-1
 277 430 l 1,2,-1
 338 430 l 1,3,-1
 338 270 l 1,4,-1
 522 270 l 1,5,-1
 522 221 l 1,6,-1
 338 221 l 1,7,-1
 338 61 l 1,8,-1
 277 61 l 1,9,-1
 277 221 l 1,10,-1
 92 221 l 1,11,-1
 92 270 l 1,0,-1
EndSplineSet
Validated: 1
EndChar

StartChar: comma
Encoding: 44 44 15
Width: 282
VWidth: 1023
GlyphClass: 2
Flags: W
HStem: 0 86<106.439 141>
VStem: 92 84.5<11.3447 71.5608> 141 50<-62.1562 0>
LayerCount: 2
Fore
SplineSet
106 72 m 128,-1,1
 120 86 120 86 141 86 c 256,2,3
 162 86 162 86 176.5 61 c 128,-1,4
 191 36 191 36 191 0 c 0,5,6
 191 -45 191 -45 163 -80.5 c 128,-1,7
 135 -116 135 -116 92 -123 c 1,8,-1
 92 -86 l 1,9,10
 115 -72 115 -72 128 -49.5 c 128,-1,11
 141 -27 141 -27 141 0 c 1,12,13
 120 0 120 0 106 11 c 128,-1,14
 92 22 92 22 92 37 c 1,15,0
 92 58 92 58 106 72 c 128,-1,1
EndSplineSet
Validated: 1
EndChar

StartChar: hyphen
Encoding: 45 45 16
Width: 491
VWidth: 1023
GlyphClass: 2
Flags: W
HStem: 246 49<92 400>
VStem: 92 308<246 295>
LayerCount: 2
Fore
SplineSet
92 295 m 1,0,-1
 400 295 l 1,1,-1
 400 246 l 1,2,-1
 92 246 l 1,3,-1
 92 295 l 1,0,-1
EndSplineSet
Validated: 1
EndChar

StartChar: period
Encoding: 46 46 17
Width: 282
VWidth: 1023
GlyphClass: 2
Flags: W
HStem: -12 98<106.439 176.045>
VStem: 92 99<2.43921 71.5608>
LayerCount: 2
Fore
SplineSet
106 72 m 128,-1,1
 120 86 120 86 141 86 c 256,2,3
 162 86 162 86 176.5 72 c 128,-1,4
 191 58 191 58 191 37 c 256,5,6
 191 16 191 16 176.5 2 c 128,-1,7
 162 -12 162 -12 141 -12 c 256,8,9
 120 -12 120 -12 106 2 c 128,-1,10
 92 16 92 16 92 37 c 129,-1,0
 92 58 92 58 106 72 c 128,-1,1
EndSplineSet
Validated: 1
EndChar

StartChar: slash
Encoding: 47 47 18
Width: 491
VWidth: 1023
GlyphClass: 2
Flags: W
VStem: 92 308
LayerCount: 2
Fore
SplineSet
338 799 m 1,0,-1
 400 799 l 1,1,-1
 154 -123 l 1,2,-1
 92 -123 l 1,3,-1
 338 799 l 1,0,-1
EndSplineSet
Validated: 1
EndChar

StartChar: zero
Encoding: 48 48 19
Width: 614
VWidth: 1023
GlyphClass: 2
Flags: W
HStem: -12 49<240.502 373.553> 725 49<242.967 372.819>
VStem: 61 62<209.554 538.924> 492 61<209.877 539.257>
LayerCount: 2
Fore
SplineSet
133 655.5 m 128,-1,1
 205 774 205 774 307 774 c 256,2,3
 409 774 409 774 481 655.5 c 128,-1,4
 553 537 553 537 553 369 c 0,5,6
 553 212 553 212 481 100 c 128,-1,7
 409 -12 409 -12 307 -12 c 256,8,9
 205 -12 205 -12 133 99.5 c 128,-1,10
 61 211 61 211 61 369 c 1,11,0
 61 537 61 537 133 655.5 c 128,-1,1
177 134 m 128,-1,13
 231 37 231 37 307 37 c 256,14,15
 383 37 383 37 437.5 134 c 128,-1,16
 492 231 492 231 492 369 c 0,17,18
 492 517 492 517 438 621 c 128,-1,19
 384 725 384 725 307 725 c 256,20,21
 231 725 231 725 177 620.5 c 128,-1,22
 123 516 123 516 123 369 c 1,23,12
 123 231 123 231 177 134 c 128,-1,13
EndSplineSet
Validated: 1
EndChar

StartChar: one
Encoding: 49 49 20
Width: 614
VWidth: 1023
GlyphClass: 2
Flags: W
HStem: 0 49<104 277 338 510> 590 49<104 191.544>
VStem: 277 61<49 652> 289 49<730.006 774>
LayerCount: 2
Fore
SplineSet
104 49 m 1,0,-1
 277 49 l 1,1,-1
 277 652 l 1,2,3
 241 622 241 622 196.5 606 c 128,-1,4
 152 590 152 590 104 590 c 1,5,-1
 104 639 l 1,6,7
 165 639 165 639 216 676 c 128,-1,8
 267 713 267 713 289 774 c 1,9,-1
 338 774 l 1,10,-1
 338 49 l 1,11,-1
 510 49 l 1,12,-1
 510 0 l 1,13,-1
 104 0 l 1,14,-1
 104 49 l 1,0,-1
EndSplineSet
Validated: 1
EndChar

StartChar: two
Encoding: 50 50 21
Width: 614
VWidth: 1023
GlyphClass: 2
Flags: W
HStem: 0 49<129 547> 738 49<218.746 390.792>
VStem: 68 61<49 135.152 471.808 643.183> 473 62<494.365 659.722>
LayerCount: 2
Fore
SplineSet
68 49 m 2,0,1
 68 123 68 123 130.5 202.5 c 128,-1,2
 193 282 193 282 301 344 c 0,3,4
 381 391 381 391 427 455 c 128,-1,5
 473 519 473 519 473 584 c 0,6,7
 473 648 473 648 422.5 693 c 128,-1,8
 372 738 372 738 301 738 c 256,9,10
 230 738 230 738 179.5 683.5 c 128,-1,11
 129 629 129 629 129 553 c 0,12,13
 129 532 129 532 135 510 c 128,-1,14
 141 488 141 488 154 467 c 1,15,-1
 104 443 l 1,16,17
 86 475 86 475 77 502.5 c 128,-1,18
 68 530 68 530 68 553 c 0,19,20
 68 650 68 650 136 718.5 c 128,-1,21
 204 787 204 787 301 787 c 256,22,23
 398 787 398 787 466.5 727.5 c 128,-1,24
 535 668 535 668 535 584 c 0,25,26
 535 507 535 507 472 426 c 128,-1,27
 409 345 409 345 301 283 c 0,28,29
 221 236 221 236 175 174 c 128,-1,30
 129 112 129 112 129 49 c 1,31,-1
 547 49 l 1,32,-1
 547 0 l 1,33,-1
 68 0 l 1,34,-1
 68 49 l 2,0,1
EndSplineSet
Validated: 1
EndChar

StartChar: three
Encoding: 51 51 22
Width: 614
VWidth: 1023
GlyphClass: 2
Flags: W
HStem: -12 61<228.326 395.792> 406 49<332 397.133> 713 49<61 455>
VStem: 61 62<162.987 234> 492 61<144.875 316.614>
LayerCount: 2
Fore
SplineSet
123 234 m 1,0,1
 137 154 137 154 189 101.5 c 128,-1,2
 241 49 241 49 307 49 c 0,3,4
 383 49 383 49 437.5 103 c 128,-1,5
 492 157 492 157 492 234 c 0,6,7
 492 305 492 305 438 355.5 c 128,-1,8
 384 406 384 406 307 406 c 2,9,-1
 246 406 l 1,10,-1
 246 443 l 1,11,-1
 455 713 l 1,12,-1
 61 713 l 1,13,-1
 61 762 l 1,14,-1
 504 762 l 1,15,-1
 529 725 l 1,16,-1
 332 455 l 1,17,18
 424 455 424 455 488.5 390.5 c 128,-1,19
 553 326 553 326 553 234 c 0,20,21
 553 132 553 132 481 60 c 128,-1,22
 409 -12 409 -12 307 -12 c 0,23,24
 212 -12 212 -12 141 58.5 c 128,-1,25
 70 129 70 129 61 234 c 1,26,-1
 123 234 l 1,0,1
EndSplineSet
Validated: 1
EndChar

StartChar: four
Encoding: 52 52 23
Width: 614
VWidth: 1023
GlyphClass: 2
Flags: W
HStem: 0 49<307 369 430 492> 172 49<135 369 430 553> 742 20G<369.427 430>
VStem: 369 61<49 172 221 627>
LayerCount: 2
Fore
SplineSet
61 209 m 1,0,-1
 381 762 l 1,1,-1
 430 762 l 1,2,-1
 430 221 l 1,3,-1
 553 221 l 1,4,-1
 553 172 l 1,5,-1
 430 172 l 1,6,-1
 430 49 l 1,7,-1
 492 49 l 1,8,-1
 492 0 l 1,9,-1
 307 0 l 1,10,-1
 307 49 l 1,11,-1
 369 49 l 1,12,-1
 369 172 l 1,13,-1
 61 172 l 1,14,-1
 61 209 l 1,0,-1
369 221 m 1,15,-1
 369 627 l 1,16,-1
 135 221 l 1,17,-1
 369 221 l 1,15,-1
EndSplineSet
Validated: 1
EndChar

StartChar: five
Encoding: 53 53 24
Width: 614
VWidth: 1023
GlyphClass: 2
Flags: W
HStem: -12 49<214.564 378.001> 455 61<208.233 378.001> 713 49<184 529>
VStem: 479 62<146.371 346.445>
LayerCount: 2
Fore
SplineSet
123 172 m 1,0,1
 145 111 145 111 192.5 74 c 128,-1,2
 240 37 240 37 295 37 c 0,3,4
 371 37 371 37 425 98.5 c 128,-1,5
 479 160 479 160 479 246 c 256,6,7
 479 332 479 332 425 393.5 c 128,-1,8
 371 455 371 455 295 455 c 0,9,10
 250 455 250 455 205 431 c 128,-1,11
 160 407 160 407 123 363 c 1,12,-1
 74 381 l 1,13,-1
 135 762 l 1,14,-1
 529 762 l 1,15,-1
 529 713 l 1,16,-1
 184 713 l 1,17,-1
 148 455 l 1,18,19
 184 485 184 485 221.5 500.5 c 128,-1,20
 259 516 259 516 295 516 c 0,21,22
 397 516 397 516 469 437 c 128,-1,23
 541 358 541 358 541 246 c 0,24,25
 541 139 541 139 469 63.5 c 128,-1,26
 397 -12 397 -12 295 -12 c 0,27,28
 221 -12 221 -12 160.5 31.5 c 128,-1,29
 100 75 100 75 74 148 c 1,30,-1
 123 172 l 1,0,1
EndSplineSet
Validated: 1
EndChar

StartChar: six
Encoding: 54 54 25
Width: 614
VWidth: 1023
GlyphClass: 2
Flags: W
HStem: -12 49<240.925 390.305> 455 49<236.456 390.346> 725 49<258.179 415.502>
VStem: 68 61<205.283 352.858 393 545.963> 486 61<143.854 348.146>
LayerCount: 2
Fore
SplineSet
68 393 m 1,0,1
 68 550 68 550 145.5 662 c 128,-1,2
 223 774 223 774 332 774 c 0,3,4
 402 774 402 774 461.5 730.5 c 128,-1,5
 521 687 521 687 547 615 c 1,6,-1
 498 596 l 1,7,8
 483 653 483 653 436.5 689 c 128,-1,9
 390 725 390 725 332 725 c 0,10,11
 248 725 248 725 188.5 628 c 128,-1,12
 129 531 129 531 129 393 c 1,13,14
 159 445 159 445 208.5 474.5 c 128,-1,15
 258 504 258 504 313 504 c 0,16,17
 410 504 410 504 478.5 428.5 c 128,-1,18
 547 353 547 353 547 246 c 256,19,20
 547 139 547 139 479 63.5 c 128,-1,21
 411 -12 411 -12 313 -12 c 0,22,23
 201 -12 201 -12 134.5 98.5 c 128,-1,24
 68 209 68 209 68 393 c 1,0,1
183 120 m 128,-1,26
 237 37 237 37 313 37 c 0,27,28
 384 37 384 37 435 98.5 c 128,-1,29
 486 160 486 160 486 246 c 256,30,31
 486 332 486 332 435.5 393.5 c 128,-1,32
 385 455 385 455 313 455 c 0,33,34
 264 455 264 455 214.5 418.5 c 128,-1,35
 165 382 165 382 129 320 c 1,36,25
 129 203 129 203 183 120 c 128,-1,26
EndSplineSet
Validated: 1
EndChar

StartChar: seven
Encoding: 55 55 26
Width: 613
VWidth: 1023
GlyphClass: 2
Flags: W
HStem: 0 21G<230 291> 713 49<144 470>
VStem: 82 62<615 713> 230 61<0 207.858>
LayerCount: 2
Fore
SplineSet
82 762 m 1,0,-1
 500 762 l 1,1,-1
 531 701 l 1,2,-1
 353 320 l 2,3,4
 322 267 322 267 306.5 185.5 c 128,-1,5
 291 104 291 104 291 0 c 1,6,-1
 230 0 l 1,7,8
 230 107 230 107 249 194.5 c 128,-1,9
 268 282 268 282 304 344 c 2,10,-1
 470 713 l 1,11,-1
 144 713 l 1,12,-1
 144 615 l 1,13,-1
 82 615 l 1,14,-1
 82 762 l 1,0,-1
EndSplineSet
Validated: 1
EndChar

StartChar: eight
Encoding: 56 56 27
Width: 614
VWidth: 1023
GlyphClass: 2
Flags: W
HStem: -12 49<217.346 398.132> 381 49<226.478 388.344> 725 49<231.696 382.756>
VStem: 61 62<126.386 291.114> 98 62<492.498 650.091> 455 61<493.038 650.08> 492 61<126.386 291.114>
LayerCount: 2
Fore
SplineSet
98 329.5 m 128,-1,1
 135 384 135 384 197 406 c 1,2,3
 152 432 152 432 125 475 c 128,-1,4
 98 518 98 518 98 565 c 0,5,6
 98 651 98 651 159.5 712.5 c 128,-1,7
 221 774 221 774 307 774 c 256,8,9
 393 774 393 774 454.5 713 c 128,-1,10
 516 652 516 652 516 565 c 0,11,12
 516 517 516 517 489.5 474 c 128,-1,13
 463 431 463 431 418 406 c 1,14,15
 479 384 479 384 516 329.5 c 128,-1,16
 553 275 553 275 553 209 c 0,17,18
 553 117 553 117 481 52.5 c 128,-1,19
 409 -12 409 -12 307 -12 c 256,20,21
 205 -12 205 -12 133 52.5 c 128,-1,22
 61 117 61 117 61 209 c 1,23,0
 61 275 61 275 98 329.5 c 128,-1,1
177 87.5 m 128,-1,25
 231 37 231 37 307 37 c 256,26,27
 383 37 383 37 437.5 87.5 c 128,-1,28
 492 138 492 138 492 209 c 256,29,30
 492 280 492 280 438 330.5 c 128,-1,31
 384 381 384 381 307 381 c 256,32,33
 231 381 231 381 177 330.5 c 128,-1,34
 123 280 123 280 123 209 c 129,-1,24
 123 138 123 138 177 87.5 c 128,-1,25
160 565 m 1,35,36
 160 508 160 508 203 469 c 128,-1,37
 246 430 246 430 307 430 c 256,38,39
 368 430 368 430 411.5 469.5 c 128,-1,40
 455 509 455 509 455 565 c 0,41,42
 455 631 455 631 412 678 c 128,-1,43
 369 725 369 725 307 725 c 256,44,45
 246 725 246 725 203 678.5 c 128,-1,46
 160 632 160 632 160 565 c 1,35,36
EndSplineSet
Validated: 5
EndChar

StartChar: nine
Encoding: 57 57 28
Width: 614
VWidth: 1023
GlyphClass: 2
Flags: W
HStem: -12 49<203.483 352.477> 270 50<220.967 375.46> 725 49<216.796 359.311>
VStem: 68 61<419.298 621.734> 486 61<226.17 381>
LayerCount: 2
Fore
SplineSet
132.5 698.5 m 128,-1,1
 197 774 197 774 289 774 c 0,2,3
 396 774 396 774 471.5 659.5 c 128,-1,4
 547 545 547 545 547 381 c 256,5,6
 547 218 547 218 467.5 103 c 128,-1,7
 388 -12 388 -12 277 -12 c 0,8,9
 209 -12 209 -12 151 31.5 c 128,-1,10
 93 75 93 75 68 148 c 1,11,-1
 117 172 l 1,12,13
 139 111 139 111 182.5 74 c 128,-1,14
 226 37 226 37 277 37 c 0,15,16
 363 37 363 37 424.5 137.5 c 128,-1,17
 486 238 486 238 486 381 c 1,18,19
 456 329 456 329 406 299.5 c 128,-1,20
 356 270 356 270 301 270 c 0,21,22
 204 270 204 270 136 342 c 128,-1,23
 68 414 68 414 68 516 c 1,24,0
 68 623 68 623 132.5 698.5 c 128,-1,1
179.5 377.5 m 128,-1,26
 230 320 230 320 301 320 c 0,27,28
 348 320 348 320 396 356 c 128,-1,29
 444 392 444 392 479 455 c 1,30,31
 469 569 469 569 414.5 647 c 128,-1,32
 360 725 360 725 289 725 c 0,33,34
 223 725 223 725 176 663.5 c 128,-1,35
 129 602 129 602 129 516 c 1,36,25
 129 435 129 435 179.5 377.5 c 128,-1,26
EndSplineSet
Validated: 1
EndChar

StartChar: colon
Encoding: 58 58 29
Width: 282
VWidth: 1023
GlyphClass: 2
Flags: W
HStem: -12 98<106.439 176.045> 369 98<106.439 176.045>
VStem: 92 99<2.43921 71.5608 383.439 452.561>
LayerCount: 2
Fore
SplineSet
106 453 m 128,-1,1
 120 467 120 467 141 467 c 256,2,3
 162 467 162 467 176.5 453 c 128,-1,4
 191 439 191 439 191 418 c 256,5,6
 191 397 191 397 176.5 383 c 128,-1,7
 162 369 162 369 141 369 c 256,8,9
 120 369 120 369 106 383 c 128,-1,10
 92 397 92 397 92 418 c 129,-1,0
 92 439 92 439 106 453 c 128,-1,1
106 72 m 128,-1,12
 120 86 120 86 141 86 c 256,13,14
 162 86 162 86 176.5 72 c 128,-1,15
 191 58 191 58 191 37 c 256,16,17
 191 16 191 16 176.5 2 c 128,-1,18
 162 -12 162 -12 141 -12 c 256,19,20
 120 -12 120 -12 106 2 c 128,-1,21
 92 16 92 16 92 37 c 129,-1,11
 92 58 92 58 106 72 c 128,-1,12
EndSplineSet
Validated: 1
EndChar

StartChar: semicolon
Encoding: 59 59 30
Width: 282
VWidth: 1023
GlyphClass: 2
Flags: W
HStem: 0 86<106.439 141> 369 98<106.439 176.045>
VStem: 92 84.5<11.3447 71.5608> 141 50<-62.1562 0>
LayerCount: 2
Fore
SplineSet
106 453 m 128,-1,1
 120 467 120 467 141 467 c 256,2,3
 162 467 162 467 176.5 453 c 128,-1,4
 191 439 191 439 191 418 c 256,5,6
 191 397 191 397 176.5 383 c 128,-1,7
 162 369 162 369 141 369 c 256,8,9
 120 369 120 369 106 383 c 128,-1,10
 92 397 92 397 92 418 c 129,-1,0
 92 439 92 439 106 453 c 128,-1,1
106 72 m 128,-1,12
 120 86 120 86 141 86 c 256,13,14
 162 86 162 86 176.5 61 c 128,-1,15
 191 36 191 36 191 0 c 0,16,17
 191 -45 191 -45 163 -80.5 c 128,-1,18
 135 -116 135 -116 92 -123 c 1,19,-1
 92 -86 l 1,20,21
 115 -72 115 -72 128 -49.5 c 128,-1,22
 141 -27 141 -27 141 0 c 1,23,24
 120 0 120 0 106 11 c 128,-1,25
 92 22 92 22 92 37 c 1,26,11
 92 58 92 58 106 72 c 128,-1,12
EndSplineSet
Validated: 1
EndChar

StartChar: less
Encoding: 60 60 31
Width: 677
VWidth: 1023
GlyphClass: 2
Flags: W
LayerCount: 2
Fore
SplineSet
585 -74 m 1,0,-1
 92 170 l 1,1,-1
 92 262 l 1,2,-1
 584 520 l 1,3,-1
 584 434 l 1,4,-1
 166 219 l 1,5,-1
 584 6 l 1,6,-1
 585 -74 l 1,0,-1
EndSplineSet
Validated: 1
EndChar

StartChar: equal
Encoding: 61 61 32
Width: 491
VWidth: 1023
GlyphClass: 2
Flags: W
HStem: 123 49<92 400> 320 49<92 400>
VStem: 92 308<123 172 320 369>
LayerCount: 2
Fore
SplineSet
400 369 m 1,0,-1
 400 320 l 1,1,-1
 92 320 l 1,2,-1
 92 369 l 1,3,-1
 400 369 l 1,0,-1
92 172 m 1,4,-1
 400 172 l 1,5,-1
 400 123 l 1,6,-1
 92 123 l 1,7,-1
 92 172 l 1,4,-1
EndSplineSet
Validated: 1
EndChar

StartChar: greater
Encoding: 62 62 33
Width: 677
VWidth: 1023
GlyphClass: 2
Flags: W
LayerCount: 2
Fore
SplineSet
511 219 m 1,0,-1
 93 434 l 1,1,-1
 93 520 l 1,2,-1
 585 262 l 1,3,-1
 585 170 l 1,4,-1
 92 -74 l 1,5,-1
 93 6 l 1,6,-1
 511 219 l 1,0,-1
EndSplineSet
Validated: 1
EndChar

StartChar: question
Encoding: 63 63 34
Width: 614
VWidth: 1023
GlyphClass: 2
Flags: W
HStem: -37 98<266.439 335.561> 627 49<228.391 380.658>
VStem: 92 62<455 544.989> 252 98<-22.5608 46.5608> 270 62<98 219.172> 461 61<370.974 542.75>
LayerCount: 2
Fore
SplineSet
266 47 m 128,-1,1
 280 61 280 61 301 61 c 256,2,3
 322 61 322 61 336 47 c 128,-1,4
 350 33 350 33 350 12 c 256,5,6
 350 -9 350 -9 336 -23 c 128,-1,7
 322 -37 322 -37 301 -37 c 256,8,9
 280 -37 280 -37 266 -23 c 128,-1,10
 252 -9 252 -9 252 12 c 129,-1,0
 252 33 252 33 266 47 c 128,-1,1
153.5 611.5 m 128,-1,12
 215 676 215 676 301 676 c 0,13,14
 393 676 393 676 457.5 611.5 c 128,-1,15
 522 547 522 547 522 455 c 0,16,17
 522 390 522 390 492 339.5 c 128,-1,18
 462 289 462 289 412 270 c 0,19,20
 376 256 376 256 354 219.5 c 128,-1,21
 332 183 332 183 332 135 c 2,22,-1
 332 98 l 1,23,-1
 270 98 l 1,24,-1
 270 135 l 2,25,26
 270 198 270 198 295.5 245.5 c 128,-1,27
 321 293 321 293 363 307 c 0,28,29
 407 323 407 323 434 363.5 c 128,-1,30
 461 404 461 404 461 455 c 0,31,32
 461 526 461 526 414.5 576.5 c 128,-1,33
 368 627 368 627 301 627 c 0,34,35
 240 627 240 627 197 576.5 c 128,-1,36
 154 526 154 526 154 455 c 1,37,-1
 92 455 l 1,38,11
 92 547 92 547 153.5 611.5 c 128,-1,12
EndSplineSet
Validated: 1
EndChar

StartChar: at
Encoding: 64 64 35
Width: 1035
VWidth: 1023
GlyphClass: 2
Flags: W
HStem: -230 53<398.354 669.457> -5 44<700.47 813.454> -2 57<448.233 592.156> 393 50<456.262 599.06> 626 46<409.152 656.044>
VStem: 92 60<81.4161 357.062> 321 58<127.844 306.901> 622 58<82.9399 372.156 404 431> 888 55<135.443 385.558>
LayerCount: 2
Fore
SplineSet
219 -98.5 m 128,-1,1
 92 33 92 33 92 219 c 0,2,3
 92 407 92 407 221 539.5 c 128,-1,4
 350 672 350 672 534 672 c 0,5,6
 704 672 704 672 823.5 550 c 128,-1,7
 943 428 943 428 943 254 c 0,8,9
 943 147 943 147 887.5 71 c 128,-1,10
 832 -5 832 -5 754 -5 c 0,11,12
 715 -5 715 -5 684.5 10 c 128,-1,13
 654 25 654 25 645 49 c 1,14,15
 620 24 620 24 588.5 11 c 128,-1,16
 557 -2 557 -2 522 -2 c 0,17,18
 438 -2 438 -2 379.5 61 c 128,-1,19
 321 124 321 124 321 213 c 0,20,21
 321 308 321 308 380 375.5 c 128,-1,22
 439 443 439 443 522 443 c 0,23,24
 548 443 548 443 574 433 c 128,-1,25
 600 423 600 423 622 404 c 1,26,-1
 622 431 l 1,27,-1
 680 431 l 1,28,-1
 680 102 l 2,29,30
 680 76 680 76 702 57.5 c 128,-1,31
 724 39 724 39 755 39 c 0,32,33
 810 39 810 39 849 102.5 c 128,-1,34
 888 166 888 166 888 254 c 0,35,36
 888 408 888 408 784 517 c 128,-1,37
 680 626 680 626 534 626 c 0,38,39
 377 626 377 626 264.5 506.5 c 128,-1,40
 152 387 152 387 152 219 c 0,41,42
 152 56 152 56 261 -60.5 c 128,-1,43
 370 -177 370 -177 524 -177 c 0,44,45
 631 -177 631 -177 720 -135 c 128,-1,46
 809 -93 809 -93 861 -20 c 1,47,-1
 896 -50 l 1,48,49
 837 -135 837 -135 739.5 -182.5 c 128,-1,50
 642 -230 642 -230 527 -230 c 1,51,0
 346 -230 346 -230 219 -98.5 c 128,-1,1
576.5 68 m 128,-1,53
 602 81 602 81 622 104 c 1,54,-1
 622 348 l 1,55,56
 610 369 610 369 584.5 381 c 128,-1,57
 559 393 559 393 529 393 c 0,58,59
 466 393 466 393 422.5 339.5 c 128,-1,60
 379 286 379 286 379 210 c 0,61,62
 379 146 379 146 421 100.5 c 128,-1,63
 463 55 463 55 524 55 c 1,64,52
 551 55 551 55 576.5 68 c 128,-1,53
EndSplineSet
Validated: 1
EndChar

StartChar: bracketleft
Encoding: 91 91 36
Width: 485
VWidth: 1023
GlyphClass: 2
Flags: W
HStem: -182 52<159 393> 607 49<159 393>
VStem: 92 67<-130 607>
LayerCount: 2
Fore
SplineSet
92 656 m 1,0,-1
 393 656 l 1,1,-1
 393 607 l 1,2,-1
 159 607 l 1,3,-1
 159 -130 l 1,4,-1
 393 -130 l 1,5,-1
 393 -182 l 1,6,-1
 92 -182 l 1,7,-1
 92 656 l 1,0,-1
EndSplineSet
Validated: 1
EndChar

StartChar: backslash
Encoding: 92 92 37
Width: 730
VWidth: 1023
GlyphClass: 2
Flags: W
LayerCount: 2
Fore
SplineSet
584 -184 m 1,0,-1
 92 668 l 1,1,-1
 146 704 l 1,2,-1
 638 -148 l 1,3,-1
 584 -184 l 1,0,-1
EndSplineSet
Validated: 1
EndChar

StartChar: bracketright
Encoding: 93 93 38
Width: 485
VWidth: 1023
GlyphClass: 2
Flags: W
HStem: -207 52<92 333> 583 49<92 333>
VStem: 333 60<-155 583>
LayerCount: 2
Fore
SplineSet
92 -155 m 1,0,-1
 333 -155 l 1,1,-1
 333 583 l 1,2,-1
 92 583 l 1,3,-1
 92 632 l 1,4,-1
 393 632 l 1,5,-1
 393 -207 l 1,6,-1
 92 -207 l 1,7,-1
 92 -155 l 1,0,-1
EndSplineSet
Validated: 1
EndChar

StartChar: asciicircum
Encoding: 94 94 39
Width: 577
VWidth: 1023
GlyphClass: 2
Flags: W
HStem: 565 296
LayerCount: 2
Fore
SplineSet
92 649 m 1,0,-1
 289 861 l 1,1,-1
 486 639 l 1,2,-1
 486 565 l 1,3,-1
 289 777 l 1,4,-1
 92 565 l 1,5,-1
 92 649 l 1,0,-1
EndSplineSet
Validated: 1
EndChar

StartChar: underscore
Encoding: 95 95 40
Width: 765
VWidth: 1023
GlyphClass: 2
Flags: W
HStem: -197 62<92 674>
LayerCount: 2
Fore
SplineSet
674 -197 m 1,0,-1
 92 -197 l 1,1,-1
 92 -135 l 1,2,-1
 674 -135 l 1,3,-1
 674 -197 l 1,0,-1
EndSplineSet
Validated: 1
EndChar

StartChar: grave
Encoding: 96 96 41
Width: 376
VWidth: 1023
GlyphClass: 2
Flags: W
VStem: 93.5 190.5
LayerCount: 2
Fore
SplineSet
248 590 m 1,0,-1
 101 784 l 2,1,2
 90 801 90 801 93.5 821.5 c 128,-1,3
 97 842 97 842 113 853 c 0,4,5
 131 865 131 865 155 856 c 128,-1,6
 179 847 179 847 192 821 c 2,7,-1
 284 608 l 1,8,-1
 248 590 l 1,0,-1
EndSplineSet
Validated: 33
EndChar

StartChar: braceleft
Encoding: 123 123 42
Width: 553
VWidth: 1023
GlyphClass: 2
Flags: W
HStem: -252 32<386.459 461> 191 36<92 153.093> 638 32<386.459 461>
VStem: 215 62<-120.989 147.219 272.18 538.989>
CounterMasks: 1 e0
LayerCount: 2
Fore
SplineSet
178.5 257.5 m 128,-1,1
 215 288 215 288 215 329 c 2,2,-1
 215 449 l 2,3,4
 215 541 215 541 287 605.5 c 128,-1,5
 359 670 359 670 461 670 c 1,6,-1
 461 638 l 1,7,8
 385 638 385 638 331 582.5 c 128,-1,9
 277 527 277 527 277 449 c 2,10,-1
 277 347 l 2,11,12
 277 290 277 290 240.5 249.5 c 128,-1,13
 204 209 204 209 154 209 c 1,14,15
 204 209 204 209 240.5 168.5 c 128,-1,16
 277 128 277 128 277 71 c 2,17,-1
 277 -31 l 2,18,19
 277 -110 277 -110 331 -165 c 128,-1,20
 385 -220 385 -220 461 -220 c 1,21,-1
 461 -252 l 1,22,23
 359 -252 359 -252 287 -187.5 c 128,-1,24
 215 -123 215 -123 215 -31 c 2,25,-1
 215 89 l 2,26,27
 215 131 215 131 179 161 c 128,-1,28
 143 191 143 191 92 191 c 1,29,-1
 92 227 l 1,30,0
 142 227 142 227 178.5 257.5 c 128,-1,1
EndSplineSet
Validated: 1
EndChar

StartChar: bar
Encoding: 124 124 43
Width: 258
VWidth: 1023
GlyphClass: 2
Flags: W
VStem: 92 74<-74 565>
LayerCount: 2
Fore
SplineSet
92 565 m 1,0,-1
 166 565 l 1,1,-1
 166 -74 l 1,2,-1
 92 -74 l 1,3,-1
 92 565 l 1,0,-1
EndSplineSet
Validated: 1
EndChar

StartChar: braceright
Encoding: 125 125 44
Width: 553
VWidth: 1023
GlyphClass: 2
Flags: W
HStem: -252 32<92 166.682> 191 36<399.907 461> 638 32<92 166.682>
VStem: 277 61<-120.989 145.82 270.781 538.989>
CounterMasks: 1 e0
LayerCount: 2
Fore
SplineSet
461 191 m 1,0,1
 411 191 411 191 374.5 160.5 c 128,-1,2
 338 130 338 130 338 89 c 2,3,-1
 338 -31 l 2,4,5
 338 -123 338 -123 266 -187.5 c 128,-1,6
 194 -252 194 -252 92 -252 c 1,7,-1
 92 -220 l 1,8,9
 168 -220 168 -220 222.5 -164.5 c 128,-1,10
 277 -109 277 -109 277 -31 c 2,11,-1
 277 71 l 2,12,13
 277 128 277 128 313 168.5 c 128,-1,14
 349 209 349 209 400 209 c 1,15,16
 350 209 350 209 313.5 249.5 c 128,-1,17
 277 290 277 290 277 347 c 2,18,-1
 277 449 l 2,19,20
 277 528 277 528 222.5 583 c 128,-1,21
 168 638 168 638 92 638 c 1,22,-1
 92 670 l 1,23,24
 194 670 194 670 266 605.5 c 128,-1,25
 338 541 338 541 338 449 c 2,26,-1
 338 329 l 2,27,28
 338 287 338 287 374.5 257 c 128,-1,29
 411 227 411 227 461 227 c 1,30,-1
 461 191 l 1,0,1
EndSplineSet
Validated: 1
EndChar

StartChar: asciitilde
Encoding: 126 126 45
Width: 792
VWidth: 1023
GlyphClass: 2
Flags: W
HStem: 234 61<414.768 624.02> 295 61<184.713 371.232>
LayerCount: 2
Fore
SplineSet
173 333.5 m 128,-1,1
 220 356 220 356 270 356 c 0,2,3
 313 356 313 356 393 325.5 c 128,-1,4
 473 295 473 295 516 295 c 0,5,6
 566 295 566 295 607 310 c 128,-1,7
 648 325 648 325 670 350 c 1,8,-1
 701 307 l 1,9,10
 671 271 671 271 622.5 252.5 c 128,-1,11
 574 234 574 234 516 234 c 0,12,13
 473 234 473 234 393 264.5 c 128,-1,14
 313 295 313 295 270 295 c 0,15,16
 229 295 229 295 192.5 277 c 128,-1,17
 156 259 156 259 129 227 c 1,18,-1
 92 270 l 1,19,0
 126 311 126 311 173 333.5 c 128,-1,1
EndSplineSet
Validated: 1
EndChar

StartChar: cent
Encoding: 162 162 46
Width: 555
VWidth: 1023
GlyphClass: 2
Flags: W
HStem: -2 51<236.5 384.844> 9 50<236 293.375> 500.5 45.5<294.656 349.376> 503 50<212.263 349.616>
VStem: 63 59<155.986 398.629> 452 63<371 431.263> 460 59<120.655 189>
LayerCount: 2
Fore
SplineSet
126 477.5 m 128,-1,1
 189 553 189 553 294 553 c 0,2,3
 315 553 315 553 333.5 551 c 128,-1,4
 352 549 352 549 366 546 c 1,5,-1
 417 669 l 1,6,-1
 472 669 l 1,7,-1
 416 524 l 1,8,9
 459 494 459 494 485 454 c 128,-1,10
 511 414 511 414 515 371 c 1,11,-1
 452 371 l 1,12,13
 450 396 450 396 435 422.5 c 128,-1,14
 420 449 420 449 396 473 c 1,15,-1
 236 59 l 1,16,17
 252 54 252 54 267 51.5 c 128,-1,18
 282 49 282 49 294 49 c 0,19,20
 364 49 364 49 409 87 c 128,-1,21
 454 125 454 125 460 189 c 1,22,-1
 519 189 l 1,23,24
 512 102 512 102 450 50 c 128,-1,25
 388 -2 388 -2 294 -2 c 0,26,27
 274 -2 274 -2 255 1 c 128,-1,28
 236 4 236 4 216 9 c 1,29,-1
 172 -104 l 1,30,-1
 117 -104 l 1,31,-1
 170 31 l 1,32,33
 120 68 120 68 91.5 133 c 128,-1,34
 63 198 63 198 63 277 c 1,35,0
 63 402 63 402 126 477.5 c 128,-1,1
316 500.5 m 128,-1,37
 302 503 302 503 294 503 c 0,38,39
 215 503 215 503 168.5 441 c 128,-1,40
 122 379 122 379 122 277 c 0,41,42
 122 220 122 220 139 170 c 128,-1,43
 156 120 156 120 188 84 c 1,44,-1
 350 494 l 1,45,36
 330 498 330 498 316 500.5 c 128,-1,37
EndSplineSet
Validated: 1
EndChar

StartChar: multiply
Encoding: 215 215 47
Width: 532
VWidth: 1023
GlyphClass: 2
Flags: W
LayerCount: 2
Fore
SplineSet
92 116 m 1,0,-1
 223 246 l 1,1,-1
 92 376 l 1,2,-1
 135 420 l 1,3,-1
 266 290 l 1,4,-1
 396 420 l 1,5,-1
 440 376 l 1,6,-1
 310 246 l 1,7,-1
 440 116 l 1,8,-1
 396 73 l 1,9,-1
 266 203 l 1,10,-1
 135 73 l 1,11,-1
 92 116 l 1,0,-1
EndSplineSet
Validated: 1
EndChar

StartChar: divide
Encoding: 247 247 48
Width: 590
VWidth: 1023
GlyphClass: 2
Flags: W
HStem: 37 98<260.439 329.561> 221 49<92 498> 356 99<260.439 329.561>
VStem: 246 98<51.4392 120.561 370.955 440.561>
LayerCount: 2
Fore
SplineSet
260 121 m 128,-1,1
 274 135 274 135 295 135 c 256,2,3
 316 135 316 135 330 121 c 128,-1,4
 344 107 344 107 344 86 c 256,5,6
 344 65 344 65 330 51 c 128,-1,7
 316 37 316 37 295 37 c 256,8,9
 274 37 274 37 260 51 c 128,-1,10
 246 65 246 65 246 86 c 129,-1,0
 246 107 246 107 260 121 c 128,-1,1
92 270 m 1,11,-1
 498 270 l 1,12,-1
 498 221 l 1,13,-1
 92 221 l 1,14,-1
 92 270 l 1,11,-1
260 441 m 128,-1,16
 274 455 274 455 295 455 c 256,17,18
 316 455 316 455 330 441 c 128,-1,19
 344 427 344 427 344 406 c 256,20,21
 344 385 344 385 330 370.5 c 128,-1,22
 316 356 316 356 295 356 c 256,23,24
 274 356 274 356 260 370.5 c 128,-1,25
 246 385 246 385 246 406 c 129,-1,15
 246 427 246 427 260 441 c 128,-1,16
EndSplineSet
Validated: 1
EndChar

StartChar: uni0964
Encoding: 2404 2404 49
Width: 338
VWidth: 1023
GlyphClass: 2
Flags: W
HStem: 0 21G<184 246>
VStem: 184 62<0 615>
LayerCount: 2
Fore
SplineSet
184 615 m 1,0,-1
 246 615 l 1,1,-1
 246 0 l 1,2,-1
 184 0 l 1,3,-1
 184 615 l 1,0,-1
EndSplineSet
Validated: 1
EndChar

StartChar: uni0965
Encoding: 2405 2405 50
Width: 534
VWidth: 1023
GlyphClass: 2
Flags: W
HStem: 0 21G<184 246 381 443>
VStem: 184 62<0 615> 381 62<0 615>
LayerCount: 2
Fore
SplineSet
184 615 m 1,0,-1
 246 615 l 1,1,-1
 246 0 l 1,2,-1
 184 0 l 1,3,-1
 184 615 l 1,0,-1
381 615 m 1,4,-1
 443 615 l 1,5,-1
 443 0 l 1,6,-1
 381 0 l 1,7,-1
 381 615 l 1,4,-1
EndSplineSet
Validated: 1
EndChar

StartChar: u0b82
Encoding: 2946 2946 51
Width: 0
VWidth: 1023
GlyphClass: 4
Flags: W
HStem: 553 49<-178.402 -74.7726> 750 49<-178.66 -74.4369>
VStem: -250 50<623.437 728.563> -53 49<623.437 728.227>
AnchorPoint: "Anchor-0" -123 537 mark 0
LayerCount: 2
Fore
SplineSet
-213.5 762.5 m 128,-1,1
 -177 799 -177 799 -127 799 c 256,2,3
 -77 799 -77 799 -40.5 763 c 128,-1,4
 -4 727 -4 727 -4 676 c 256,5,6
 -4 626 -4 626 -40 589.5 c 128,-1,7
 -76 553 -76 553 -127 553 c 256,8,9
 -177 553 -177 553 -213.5 589.5 c 128,-1,10
 -250 626 -250 626 -250 676 c 129,-1,0
 -250 726 -250 726 -213.5 762.5 c 128,-1,1
-178.5 623.5 m 128,-1,12
 -157 602 -157 602 -127 602 c 256,13,14
 -96 602 -96 602 -74.5 623.5 c 128,-1,15
 -53 645 -53 645 -53 676 c 256,16,17
 -53 707 -53 707 -74.5 728.5 c 128,-1,18
 -96 750 -96 750 -127 750 c 256,19,20
 -158 750 -158 750 -179 728.5 c 128,-1,21
 -200 707 -200 707 -200 676 c 129,-1,11
 -200 645 -200 645 -178.5 623.5 c 128,-1,12
EndSplineSet
Validated: 1
EndChar

StartChar: u0B83
Encoding: 2947 2947 52
Width: 803
VWidth: 1023
GlyphClass: 2
Flags: W
HStem: -12 49<103.437 208.227 595.437 700.563> 184 50<103.437 208.563 595.773 700.563> 553 49<349.437 454.563> 750 49<349.437 454.563>
VStem: 33 49<58.7726 162.402> 230 49<58.4369 162.66> 279 49<623.437 728.563> 476 49<623.437 728.227> 525 49<58.7726 162.402> 722 49<58.4369 162.66>
LayerCount: 2
Fore
SplineSet
315.5 762.5 m 128,-1,1
 352 799 352 799 402 799 c 256,2,3
 452 799 452 799 488.5 763 c 128,-1,4
 525 727 525 727 525 676 c 256,5,6
 525 626 525 626 488.5 589.5 c 128,-1,7
 452 553 452 553 402 553 c 256,8,9
 352 553 352 553 315.5 589.5 c 128,-1,10
 279 626 279 626 279 676 c 129,-1,0
 279 726 279 726 315.5 762.5 c 128,-1,1
349.5 623.5 m 128,-1,12
 371 602 371 602 402 602 c 256,13,14
 433 602 433 602 454.5 623.5 c 128,-1,15
 476 645 476 645 476 676 c 256,16,17
 476 707 476 707 454.5 728.5 c 128,-1,18
 433 750 433 750 402 750 c 256,19,20
 371 750 371 750 349.5 728.5 c 128,-1,21
 328 707 328 707 328 676 c 129,-1,11
 328 645 328 645 349.5 623.5 c 128,-1,12
69.5 197.5 m 128,-1,23
 106 234 106 234 156 234 c 256,24,25
 206 234 206 234 242.5 197.5 c 128,-1,26
 279 161 279 161 279 111 c 256,27,28
 279 61 279 61 243 24.5 c 128,-1,29
 207 -12 207 -12 156 -12 c 256,30,31
 106 -12 106 -12 69.5 24 c 128,-1,32
 33 60 33 60 33 111 c 1,33,22
 33 161 33 161 69.5 197.5 c 128,-1,23
103.5 58.5 m 128,-1,35
 125 37 125 37 156 37 c 256,36,37
 187 37 187 37 208.5 58.5 c 128,-1,38
 230 80 230 80 230 111 c 256,39,40
 230 142 230 142 208.5 163 c 128,-1,41
 187 184 187 184 156 184 c 256,42,43
 125 184 125 184 103.5 162.5 c 128,-1,44
 82 141 82 141 82 111 c 1,45,34
 82 80 82 80 103.5 58.5 c 128,-1,35
561 197.5 m 128,-1,47
 597 234 597 234 648 234 c 256,48,49
 698 234 698 234 734.5 197.5 c 128,-1,50
 771 161 771 161 771 111 c 256,51,52
 771 61 771 61 734.5 24.5 c 128,-1,53
 698 -12 698 -12 648 -12 c 256,54,55
 598 -12 598 -12 561.5 24 c 128,-1,56
 525 60 525 60 525 111 c 1,57,46
 525 161 525 161 561 197.5 c 128,-1,47
595.5 58.5 m 128,-1,59
 617 37 617 37 648 37 c 256,60,61
 679 37 679 37 700.5 58.5 c 128,-1,62
 722 80 722 80 722 111 c 256,63,64
 722 142 722 142 700.5 163 c 128,-1,65
 679 184 679 184 648 184 c 256,66,67
 617 184 617 184 595.5 162.5 c 128,-1,68
 574 141 574 141 574 111 c 1,69,58
 574 80 574 80 595.5 58.5 c 128,-1,59
EndSplineSet
Validated: 1
EndChar

StartChar: u0B85
Encoding: 2949 2949 53
Width: 1138
VWidth: 1023
GlyphClass: 2
Flags: W
AnchorPoint: "Anchor-0" 575 516 basechar 0
LayerCount: 2
Fore
SplineSet
26 111 m 1,0,1
 26 142 26 142 51 163 c 128,-1,2
 76 184 76 184 112 184 c 2,3,-1
 813 184 l 1,4,5
 819 201 819 201 822 219.5 c 128,-1,6
 825 238 825 238 825 258 c 0,7,8
 825 329 825 329 774.5 385 c 128,-1,9
 724 441 724 441 647 455 c 1,10,11
 668 438 668 438 679 412 c 128,-1,12
 690 386 690 386 690 356 c 0,13,14
 690 306 690 306 650.5 270 c 128,-1,15
 611 234 611 234 554 234 c 0,16,17
 504 234 504 234 467.5 273 c 128,-1,18
 431 312 431 312 431 369 c 256,19,20
 431 426 431 426 481.5 465 c 128,-1,21
 532 504 532 504 604 504 c 0,22,23
 721 504 721 504 803.5 432 c 128,-1,24
 886 360 886 360 886 258 c 0,25,26
 886 238 886 238 883 220 c 128,-1,27
 880 202 880 202 874 184 c 1,28,-1
 985 184 l 1,29,-1
 985 492 l 1,30,-1
 1046 492 l 1,31,-1
 1046 -123 l 1,32,-1
 985 -123 l 1,33,-1
 985 135 l 1,34,-1
 862 135 l 1,35,36
 825 35 825 35 715.5 -25.5 c 128,-1,37
 606 -86 606 -86 462 -86 c 0,38,39
 367 -86 367 -86 275 -61 c 128,-1,40
 183 -36 183 -36 100 12 c 0,41,42
 66 32 66 32 46 58.5 c 128,-1,43
 26 85 26 85 26 111 c 1,44,-1
 26 111 l 1,0,1
504 304 m 128,-1,46
 527 283 527 283 561 283 c 256,47,48
 594 283 594 283 617 304.5 c 128,-1,49
 640 326 640 326 640 356 c 0,50,51
 640 392 640 392 617 417.5 c 128,-1,52
 594 443 594 443 561 443 c 256,53,54
 528 443 528 443 504.5 417.5 c 128,-1,55
 481 392 481 392 481 356 c 1,56,45
 481 325 481 325 504 304 c 128,-1,46
87 111 m 1,57,58
 87 105 87 105 93.5 95.5 c 128,-1,59
 100 86 100 86 112 74 c 0,60,61
 165 21 165 21 254.5 -8 c 128,-1,62
 344 -37 344 -37 456 -37 c 0,63,64
 583 -37 583 -37 677.5 10.5 c 128,-1,65
 772 58 772 58 800 135 c 1,66,-1
 112 135 l 2,67,68
 102 135 102 135 94.5 127.5 c 128,-1,69
 87 120 87 120 87 111 c 1,70,-1
 87 111 l 1,57,58
EndSplineSet
Validated: 5
EndChar

StartChar: u0B86
Encoding: 2950 2950 54
Width: 1295
VWidth: 1023
GlyphClass: 2
Flags: W
AnchorPoint: "Anchor-0" 640 537 basechar 0
LayerCount: 2
Fore
SplineSet
26 123 m 1,0,1
 26 149 26 149 47.5 166.5 c 128,-1,2
 69 184 69 184 100 184 c 2,3,-1
 813 184 l 1,4,5
 819 201 819 201 822 219.5 c 128,-1,6
 825 238 825 238 825 258 c 0,7,8
 825 329 825 329 774.5 385 c 128,-1,9
 724 441 724 441 647 455 c 1,10,11
 667 440 667 440 678.5 414 c 128,-1,12
 690 388 690 388 690 356 c 0,13,14
 690 306 690 306 650.5 270 c 128,-1,15
 611 234 611 234 554 234 c 0,16,17
 504 234 504 234 467.5 273 c 128,-1,18
 431 312 431 312 431 369 c 256,19,20
 431 426 431 426 481.5 465 c 128,-1,21
 532 504 532 504 604 504 c 0,22,23
 721 504 721 504 803.5 432 c 128,-1,24
 886 360 886 360 886 258 c 0,25,26
 886 238 886 238 883 220 c 128,-1,27
 880 202 880 202 874 184 c 1,28,-1
 985 184 l 1,29,-1
 985 492 l 1,30,-1
 1046 492 l 1,31,-1
 1046 74 l 1,32,33
 1066 97 1066 97 1095 110 c 128,-1,34
 1124 123 1124 123 1157 123 c 0,35,36
 1207 123 1207 123 1243.5 83.5 c 128,-1,37
 1280 44 1280 44 1280 -12 c 0,38,39
 1280 -129 1280 -129 1161 -212 c 128,-1,40
 1042 -295 1042 -295 874 -295 c 0,41,42
 777 -295 777 -295 708.5 -260.5 c 128,-1,43
 640 -226 640 -226 640 -178 c 0,44,45
 640 -137 640 -137 683.5 -108.5 c 128,-1,46
 727 -80 727 -80 788 -80 c 0,47,48
 826 -80 826 -80 861.5 -89 c 128,-1,49
 897 -98 897 -98 929 -117 c 1,50,-1
 892 -160 l 1,51,52
 866 -145 866 -145 839.5 -137 c 128,-1,53
 813 -129 813 -129 788 -129 c 0,54,55
 752 -129 752 -129 727 -142 c 128,-1,56
 702 -155 702 -155 702 -172 c 0,57,58
 702 -203 702 -203 756 -224.5 c 128,-1,59
 810 -246 810 -246 886 -246 c 0,60,61
 1024 -246 1024 -246 1121 -177.5 c 128,-1,62
 1218 -109 1218 -109 1218 -12 c 0,63,64
 1218 21 1218 21 1196.5 44.5 c 128,-1,65
 1175 68 1175 68 1144 68 c 256,66,67
 1113 68 1113 68 1086.5 44.5 c 128,-1,68
 1060 21 1060 21 1046 -18 c 1,69,-1
 1046 -160 l 1,70,-1
 985 -160 l 1,71,-1
 985 135 l 1,72,-1
 862 135 l 1,73,74
 825 35 825 35 715.5 -25.5 c 128,-1,75
 606 -86 606 -86 462 -86 c 0,76,77
 367 -86 367 -86 275 -61 c 128,-1,78
 183 -36 183 -36 100 12 c 0,79,80
 66 32 66 32 46 61.5 c 128,-1,81
 26 91 26 91 26 123 c 1,82,-1
 26 123 l 1,0,1
504 304 m 128,-1,84
 527 283 527 283 561 283 c 256,85,86
 594 283 594 283 617 304.5 c 128,-1,87
 640 326 640 326 640 356 c 0,88,89
 640 392 640 392 617 417.5 c 128,-1,90
 594 443 594 443 561 443 c 256,91,92
 528 443 528 443 504.5 417.5 c 128,-1,93
 481 392 481 392 481 356 c 1,94,83
 481 325 481 325 504 304 c 128,-1,84
87 111 m 1,95,96
 87 105 87 105 93.5 95.5 c 128,-1,97
 100 86 100 86 112 74 c 0,98,99
 165 21 165 21 254.5 -8 c 128,-1,100
 344 -37 344 -37 456 -37 c 0,101,102
 583 -37 583 -37 677.5 10.5 c 128,-1,103
 772 58 772 58 800 135 c 1,104,-1
 112 135 l 2,105,106
 102 135 102 135 94.5 127.5 c 128,-1,107
 87 120 87 120 87 111 c 1,108,-1
 87 111 l 1,95,96
EndSplineSet
Validated: 5
EndChar

StartChar: u0B87
Encoding: 2951 2951 55
Width: 996
VWidth: 1023
GlyphClass: 2
Flags: W
AnchorPoint: "Anchor-0" 510 820 basechar 0
LayerCount: 2
Fore
SplineSet
348.5 271 m 128,-1,1
 370 246 370 246 401 246 c 256,2,3
 432 246 432 246 453.5 271 c 128,-1,4
 475 296 475 296 475 332 c 256,5,6
 475 368 475 368 453 393 c 128,-1,7
 431 418 431 418 401 418 c 256,8,9
 370 418 370 418 348.5 393 c 128,-1,10
 327 368 327 368 327 332 c 129,-1,0
 327 296 327 296 348.5 271 c 128,-1,1
7 -172 m 1,11,12
 7 -113 7 -113 47 -60 c 128,-1,13
 87 -7 87 -7 155 25 c 1,14,15
 113 99 113 99 91 180 c 128,-1,16
 69 261 69 261 69 344 c 0,17,18
 69 532 69 532 198.5 665.5 c 128,-1,19
 328 799 328 799 511 799 c 0,20,21
 674 799 674 799 789.5 676.5 c 128,-1,22
 905 554 905 554 905 381 c 2,23,-1
 905 0 l 1,24,-1
 843 0 l 1,25,-1
 843 381 l 2,26,27
 843 533 843 533 746 641.5 c 128,-1,28
 649 750 649 750 511 750 c 0,29,30
 354 750 354 750 242 631.5 c 128,-1,31
 130 513 130 513 130 344 c 0,32,33
 130 268 130 268 149 196 c 128,-1,34
 168 124 168 124 204 61 c 1,35,36
 257 92 257 92 325 107.5 c 128,-1,37
 393 123 393 123 475 123 c 0,38,39
 508 123 508 123 542.5 117 c 128,-1,40
 577 111 577 111 610 98 c 1,41,42
 619 132 619 132 623.5 172.5 c 128,-1,43
 628 213 628 213 628 258 c 0,44,45
 628 339 628 339 583 397 c 128,-1,46
 538 455 538 455 475 455 c 2,47,-1
 438 455 l 1,48,49
 477 441 477 441 500.5 407.5 c 128,-1,50
 524 374 524 374 524 332 c 0,51,52
 524 275 524 275 487.5 236 c 128,-1,53
 451 197 451 197 401 197 c 256,54,55
 351 197 351 197 314.5 236 c 128,-1,56
 278 275 278 275 278 332 c 0,57,58
 278 403 278 403 335.5 453.5 c 128,-1,59
 393 504 393 504 475 504 c 0,60,61
 561 504 561 504 622 432 c 128,-1,62
 683 360 683 360 683 258 c 0,63,64
 683 206 683 206 677 162.5 c 128,-1,65
 671 119 671 119 659 86 c 1,66,67
 736 58 736 58 783.5 -9.5 c 128,-1,68
 831 -77 831 -77 831 -160 c 0,69,70
 831 -221 831 -221 780.5 -264 c 128,-1,71
 730 -307 730 -307 659 -307 c 0,72,73
 590 -307 590 -307 526 -285 c 128,-1,74
 462 -263 462 -263 413 -221 c 1,75,76
 364 -263 364 -263 294 -285 c 128,-1,77
 224 -307 224 -307 143 -307 c 0,78,79
 86 -307 86 -307 46.5 -268 c 128,-1,80
 7 -229 7 -229 7 -172 c 1,81,-1
 7 -172 l 1,11,12
90.5 -233 m 128,-1,83
 112 -258 112 -258 143 -258 c 0,84,85
 201 -258 201 -258 256 -241 c 128,-1,86
 311 -224 311 -224 358 -191 c 1,87,88
 295 -147 295 -147 250 -102 c 128,-1,89
 205 -57 205 -57 179 -12 c 1,90,91
 129 -38 129 -38 99 -81 c 128,-1,92
 69 -124 69 -124 69 -172 c 1,93,82
 69 -208 69 -208 90.5 -233 c 128,-1,83
312.5 -79.5 m 128,-1,95
 356 -122 356 -122 413 -154 c 1,96,97
 477 -109 477 -109 521 -57 c 128,-1,98
 565 -5 565 -5 585 49 c 1,99,100
 552 61 552 61 523.5 67.5 c 128,-1,101
 495 74 495 74 475 74 c 0,102,103
 412 74 412 74 353 58.5 c 128,-1,104
 294 43 294 43 241 12 c 1,105,94
 269 -37 269 -37 312.5 -79.5 c 128,-1,95
462 -191 m 1,106,107
 520 -224 520 -224 570 -241 c 128,-1,108
 620 -258 620 -258 659 -258 c 0,109,110
 704 -258 704 -258 737 -229 c 128,-1,111
 770 -200 770 -200 770 -160 c 0,112,113
 770 -94 770 -94 733 -39.5 c 128,-1,114
 696 15 696 15 634 37 c 1,115,116
 608 -33 608 -33 564.5 -91.5 c 128,-1,117
 521 -150 521 -150 462 -191 c 1,118,-1
 462 -191 l 1,106,107
EndSplineSet
Validated: 5
EndChar

StartChar: u0B88
Encoding: 2952 2952 56
Width: 722
VWidth: 1023
GlyphClass: 2
Flags: W
AnchorPoint: "Anchor-0" 396 506 basechar 0
LayerCount: 2
Fore
SplineSet
707 492 m 1,0,-1
 707 443 l 1,1,-1
 486 443 l 1,2,-1
 486 0 l 1,3,-1
 424 0 l 1,4,-1
 424 443 l 1,5,-1
 154 443 l 1,6,-1
 154 0 l 1,7,-1
 92 0 l 1,8,-1
 92 492 l 1,9,-1
 707 492 l 1,0,-1
572 246 m 1,10,11
 572 267 572 267 586 281 c 128,-1,12
 600 295 600 295 621 295 c 256,13,14
 642 295 642 295 656 281 c 128,-1,15
 670 267 670 267 670 246 c 256,16,17
 670 225 670 225 656 211 c 128,-1,18
 642 197 642 197 621 197 c 256,19,20
 600 197 600 197 586 211 c 128,-1,21
 572 225 572 225 572 246 c 1,22,-1
 572 246 l 1,10,11
240 246 m 1,23,24
 240 267 240 267 254 281 c 128,-1,25
 268 295 268 295 289 295 c 256,26,27
 310 295 310 295 324 281 c 128,-1,28
 338 267 338 267 338 246 c 256,29,30
 338 225 338 225 324 211 c 128,-1,31
 310 197 310 197 289 197 c 256,32,33
 268 197 268 197 254 211 c 128,-1,34
 240 225 240 225 240 246 c 1,35,-1
 240 246 l 1,23,24
EndSplineSet
Validated: 5
EndChar

StartChar: u0B89
Encoding: 2953 2953 57
Width: 929
VWidth: 1023
GlyphClass: 2
Flags: W
AnchorPoint: "Anchor-0" 473 522 basechar 0
LayerCount: 2
Fore
SplineSet
126 300.5 m 128,-1,1
 144 283 144 283 170 283 c 256,2,3
 196 283 196 283 213.5 300.5 c 128,-1,4
 231 318 231 318 231 344 c 0,5,6
 231 375 231 375 213 396.5 c 128,-1,7
 195 418 195 418 170 418 c 256,8,9
 144 418 144 418 126 396.5 c 128,-1,10
 108 375 108 375 108 344 c 1,11,0
 108 318 108 318 126 300.5 c 128,-1,1
59 356 m 1,12,13
 59 417 59 417 120.5 460.5 c 128,-1,14
 182 504 182 504 268 504 c 0,15,16
 370 504 370 504 442 446 c 128,-1,17
 514 388 514 388 514 307 c 0,18,19
 514 231 514 231 452.5 177 c 128,-1,20
 391 123 391 123 305 123 c 2,21,-1
 170 123 l 2,22,23
 149 123 149 123 134.5 112 c 128,-1,24
 120 101 120 101 120 86 c 256,25,26
 120 71 120 71 134.5 60 c 128,-1,27
 149 49 149 49 170 49 c 2,28,-1
 920 49 l 1,29,-1
 920 0 l 1,30,-1
 170 0 l 2,31,32
 125 0 125 0 92 25 c 128,-1,33
 59 50 59 50 59 86 c 256,34,35
 59 122 59 122 91.5 147 c 128,-1,36
 124 172 124 172 170 172 c 2,37,-1
 305 172 l 2,38,39
 366 172 366 172 409 211.5 c 128,-1,40
 452 251 452 251 452 307 c 0,41,42
 452 368 452 368 398 411.5 c 128,-1,43
 344 455 344 455 268 455 c 2,44,-1
 194 455 l 1,45,46
 233 441 233 441 256.5 410.5 c 128,-1,47
 280 380 280 380 280 344 c 0,48,49
 280 299 280 299 247.5 266.5 c 128,-1,50
 215 234 215 234 170 234 c 256,51,52
 125 234 125 234 92 270 c 128,-1,53
 59 306 59 306 59 356 c 1,54,-1
 59 356 l 1,12,13
EndSplineSet
Validated: 5
EndChar

StartChar: u0B8A
Encoding: 2954 2954 58
Width: 1289
VWidth: 1023
GlyphClass: 2
Flags: W
AnchorPoint: "Anchor-0" 637 515 basechar 0
LayerCount: 2
Fore
SplineSet
108 344 m 1,0,1
 108 318 108 318 126 300.5 c 128,-1,2
 144 283 144 283 170 283 c 256,3,4
 196 283 196 283 213.5 300.5 c 128,-1,5
 231 318 231 318 231 344 c 0,6,7
 231 375 231 375 213 396.5 c 128,-1,8
 195 418 195 418 170 418 c 256,9,10
 144 418 144 418 126 396.5 c 128,-1,11
 108 375 108 375 108 344 c 1,12,-1
 108 344 l 1,0,1
661 209 m 1,13,14
 661 183 661 183 682.5 165.5 c 128,-1,15
 704 148 704 148 735 148 c 0,16,17
 761 148 761 148 779 165.5 c 128,-1,18
 797 183 797 183 797 209 c 256,19,20
 797 235 797 235 779 252.5 c 128,-1,21
 761 270 761 270 735 270 c 0,22,23
 704 270 704 270 682.5 252.5 c 128,-1,24
 661 235 661 235 661 209 c 1,25,-1
 661 209 l 1,13,14
59 356 m 1,26,27
 59 417 59 417 120.5 460.5 c 128,-1,28
 182 504 182 504 268 504 c 0,29,30
 370 504 370 504 442 446 c 128,-1,31
 514 388 514 388 514 307 c 0,32,33
 514 231 514 231 452.5 177 c 128,-1,34
 391 123 391 123 305 123 c 2,35,-1
 170 123 l 2,36,37
 149 123 149 123 134.5 112 c 128,-1,38
 120 101 120 101 120 86 c 256,39,40
 120 71 120 71 134.5 60 c 128,-1,41
 149 49 149 49 170 49 c 2,42,-1
 1239 49 l 1,43,-1
 1239 0 l 1,44,-1
 170 0 l 2,45,46
 125 0 125 0 92 25 c 128,-1,47
 59 50 59 50 59 86 c 256,48,49
 59 122 59 122 91.5 147 c 128,-1,50
 124 172 124 172 170 172 c 2,51,-1
 305 172 l 2,52,53
 366 172 366 172 409 211.5 c 128,-1,54
 452 251 452 251 452 307 c 0,55,56
 452 368 452 368 398 411.5 c 128,-1,57
 344 455 344 455 268 455 c 2,58,-1
 194 455 l 1,59,60
 233 441 233 441 256.5 410.5 c 128,-1,61
 280 380 280 380 280 344 c 0,62,63
 280 299 280 299 247.5 266.5 c 128,-1,64
 215 234 215 234 170 234 c 256,65,66
 125 234 125 234 92 270 c 128,-1,67
 59 306 59 306 59 356 c 1,68,-1
 59 356 l 1,26,27
588 295 m 1,69,70
 588 381 588 381 645.5 442.5 c 128,-1,71
 703 504 703 504 784 504 c 0,72,73
 823 504 823 504 859 488 c 128,-1,74
 895 472 895 472 920 443 c 1,75,-1
 920 492 l 1,76,-1
 1276 492 l 1,77,-1
 1276 443 l 1,78,-1
 1153 443 l 1,79,-1
 1153 98 l 1,80,-1
 1092 98 l 1,81,-1
 1092 443 l 1,82,-1
 981 443 l 1,83,-1
 981 98 l 1,84,-1
 920 98 l 1,85,-1
 920 295 l 2,86,87
 920 361 920 361 880.5 408 c 128,-1,88
 841 455 841 455 784 455 c 0,89,90
 723 455 723 455 680 408 c 128,-1,91
 637 361 637 361 637 295 c 2,92,-1
 637 258 l 1,93,94
 662 288 662 288 687.5 304 c 128,-1,95
 713 320 713 320 735 320 c 0,96,97
 780 320 780 320 813 287 c 128,-1,98
 846 254 846 254 846 209 c 256,99,100
 846 164 846 164 809.5 131 c 128,-1,101
 773 98 773 98 723 98 c 0,102,103
 666 98 666 98 627 156 c 128,-1,104
 588 214 588 214 588 295 c 1,105,-1
 588 295 l 1,69,70
EndSplineSet
Validated: 5
EndChar

StartChar: u0B8E
Encoding: 2958 2958 59
Width: 799
VWidth: 1023
GlyphClass: 2
Flags: W
AnchorPoint: "Anchor-0" 435 506 basechar 0
LayerCount: 2
Fore
SplineSet
214 135 m 1,0,1
 214 94 214 94 235.5 65.5 c 128,-1,2
 257 37 257 37 288 37 c 256,3,4
 319 37 319 37 340 66 c 128,-1,5
 361 95 361 95 361 135 c 0,6,7
 361 171 361 171 339.5 196 c 128,-1,8
 318 221 318 221 288 221 c 256,9,10
 257 221 257 221 235.5 196 c 128,-1,11
 214 171 214 171 214 135 c 1,12,-1
 214 135 l 1,0,1
558 443 m 1,13,-1
 312 443 l 2,14,15
 226 443 226 443 164.5 378 c 128,-1,16
 103 313 103 313 103 221 c 0,17,18
 103 167 103 167 129.5 121 c 128,-1,19
 156 75 156 75 202 49 c 1,20,21
 184 70 184 70 174.5 92 c 128,-1,22
 165 114 165 114 165 135 c 0,23,24
 165 192 165 192 201 231 c 128,-1,25
 237 270 237 270 288 270 c 0,26,27
 345 270 345 270 384 231 c 128,-1,28
 423 192 423 192 423 135 c 0,29,30
 423 74 423 74 376 31 c 128,-1,31
 329 -12 329 -12 263 -12 c 0,32,33
 177 -12 177 -12 115.5 56 c 128,-1,34
 54 124 54 124 54 221 c 0,35,36
 54 333 54 333 129.5 412.5 c 128,-1,37
 205 492 205 492 312 492 c 2,38,-1
 792 492 l 1,39,-1
 792 443 l 1,40,-1
 620 443 l 1,41,-1
 620 0 l 1,42,-1
 558 0 l 1,43,-1
 558 443 l 1,44,-1
 558 443 l 1,13,-1
EndSplineSet
Validated: 5
EndChar

StartChar: u0B8F
Encoding: 2959 2959 60
Width: 797
VWidth: 1023
GlyphClass: 2
Flags: W
AnchorPoint: "Anchor-0" 440 506 basechar 0
LayerCount: 2
Fore
SplineSet
213 135 m 1,0,1
 213 94 213 94 234.5 65.5 c 128,-1,2
 256 37 256 37 286 37 c 256,3,4
 317 37 317 37 338.5 66 c 128,-1,5
 360 95 360 95 360 135 c 0,6,7
 360 171 360 171 338.5 196 c 128,-1,8
 317 221 317 221 286 221 c 256,9,10
 255 221 255 221 234 196 c 128,-1,11
 213 171 213 171 213 135 c 1,12,-1
 213 135 l 1,0,1
557 443 m 1,13,-1
 311 443 l 2,14,15
 225 443 225 443 163.5 378 c 128,-1,16
 102 313 102 313 102 221 c 0,17,18
 102 173 102 173 128 127 c 128,-1,19
 154 81 154 81 200 49 c 1,20,21
 182 70 182 70 172.5 92 c 128,-1,22
 163 114 163 114 163 135 c 0,23,24
 163 192 163 192 199.5 231 c 128,-1,25
 236 270 236 270 286 270 c 0,26,27
 343 270 343 270 382.5 231 c 128,-1,28
 422 192 422 192 422 135 c 0,29,30
 422 69 422 69 380 28.5 c 128,-1,31
 338 -12 338 -12 268 -12 c 0,32,33
 179 -12 179 -12 116 56 c 128,-1,34
 53 124 53 124 53 221 c 0,35,36
 53 333 53 333 128.5 412.5 c 128,-1,37
 204 492 204 492 311 492 c 2,38,-1
 790 492 l 1,39,-1
 790 443 l 1,40,-1
 618 443 l 1,41,-1
 618 0 l 1,42,43
 555 -23 555 -23 501 -70.5 c 128,-1,44
 447 -118 447 -118 409 -184 c 1,45,-1
 354 -148 l 1,46,47
 393 -80 393 -80 445.5 -32.5 c 128,-1,48
 498 15 498 15 557 37 c 1,49,-1
 557 443 l 1,50,-1
 557 443 l 1,13,-1
EndSplineSet
Validated: 5
EndChar

StartChar: u0B90
Encoding: 2960 2960 61
Width: 822
VWidth: 1023
GlyphClass: 2
Flags: W
AnchorPoint: "Anchor-0" 423 504 basechar 0
LayerCount: 2
Fore
SplineSet
41 -74 m 1,0,1
 41 7 41 7 95 65 c 128,-1,2
 149 123 149 123 225 123 c 2,3,-1
 532 123 l 2,4,5
 608 123 608 123 662.5 169.5 c 128,-1,6
 717 216 717 216 717 283 c 0,7,8
 717 354 717 354 680.5 404.5 c 128,-1,9
 644 455 644 455 594 455 c 0,10,11
 537 455 537 455 498 418.5 c 128,-1,12
 459 382 459 382 459 332 c 2,13,-1
 459 172 l 1,14,-1
 397 172 l 1,15,-1
 397 332 l 2,16,17
 397 382 397 382 354 418.5 c 128,-1,18
 311 455 311 455 250 455 c 0,19,20
 203 455 203 455 165.5 431.5 c 128,-1,21
 128 408 128 408 114 369 c 1,22,23
 131 384 131 384 154 392 c 128,-1,24
 177 400 177 400 200 400 c 0,25,26
 245 400 245 400 278 369 c 128,-1,27
 311 338 311 338 311 295 c 0,28,29
 311 245 311 245 274.5 208.5 c 128,-1,30
 238 172 238 172 188 172 c 0,31,32
 131 172 131 172 92 211.5 c 128,-1,33
 53 251 53 251 53 307 c 0,34,35
 53 388 53 388 110.5 446 c 128,-1,36
 168 504 168 504 250 504 c 0,37,38
 308 504 308 504 355.5 479.5 c 128,-1,39
 403 455 403 455 428 412 c 1,40,41
 453 455 453 455 497 479.5 c 128,-1,42
 541 504 541 504 594 504 c 0,43,44
 668 504 668 504 720 439.5 c 128,-1,45
 772 375 772 375 772 283 c 0,46,47
 772 197 772 197 702 135.5 c 128,-1,48
 632 74 632 74 532 74 c 2,49,-1
 225 74 l 2,50,51
 175 74 175 74 138.5 31 c 128,-1,52
 102 -12 102 -12 102 -74 c 0,53,54
 102 -140 102 -140 141.5 -187 c 128,-1,55
 181 -234 181 -234 237 -234 c 0,56,57
 303 -234 303 -234 350 -187 c 128,-1,58
 397 -140 397 -140 397 -74 c 2,59,-1
 397 12 l 1,60,-1
 459 12 l 1,61,-1
 459 -74 l 2,62,63
 459 -140 459 -140 498 -187 c 128,-1,64
 537 -234 537 -234 594 -234 c 0,65,66
 644 -234 644 -234 680.5 -201 c 128,-1,67
 717 -168 717 -168 717 -123 c 0,68,69
 717 -89 717 -89 697 -57.5 c 128,-1,70
 677 -26 677 -26 643 -6 c 1,71,-1
 668 43 l 1,72,73
 715 26 715 26 743.5 -19.5 c 128,-1,74
 772 -65 772 -65 772 -123 c 0,75,76
 772 -189 772 -189 723.5 -236 c 128,-1,77
 675 -283 675 -283 606 -283 c 0,78,79
 543 -283 543 -283 494 -259.5 c 128,-1,80
 445 -236 445 -236 422 -197 c 1,81,82
 399 -236 399 -236 349.5 -259.5 c 128,-1,83
 300 -283 300 -283 237 -283 c 0,84,85
 156 -283 156 -283 98.5 -221.5 c 128,-1,86
 41 -160 41 -160 41 -74 c 1,87,-1
 41 -74 l 1,0,1
102 295 m 1,88,89
 102 264 102 264 127 242.5 c 128,-1,90
 152 221 152 221 188 221 c 0,91,92
 219 221 219 221 240.5 242.5 c 128,-1,93
 262 264 262 264 262 295 c 0,94,95
 262 321 262 321 240.5 338.5 c 128,-1,96
 219 356 219 356 188 356 c 0,97,98
 152 356 152 356 127 338.5 c 128,-1,99
 102 321 102 321 102 295 c 1,100,-1
 102 295 l 1,88,89
EndSplineSet
Validated: 5
EndChar

StartChar: u0B92
Encoding: 2962 2962 62
Width: 858
VWidth: 1023
GlyphClass: 2
Flags: W
AnchorPoint: "Anchor-0" 428 519 basechar 0
LayerCount: 2
Fore
SplineSet
49 184 m 1,0,1
 49 322 49 322 157.5 419 c 128,-1,2
 266 516 266 516 418 516 c 0,3,4
 581 516 581 516 696 419 c 128,-1,5
 811 322 811 322 811 184 c 0,6,7
 811 123 811 123 768 80 c 128,-1,8
 725 37 725 37 664 37 c 0,9,10
 607 37 607 37 568 73 c 128,-1,11
 529 109 529 109 529 160 c 0,12,13
 529 170 529 170 537 189 c 128,-1,14
 545 208 545 208 559 234 c 1,15,16
 522 213 522 213 500.5 179.5 c 128,-1,17
 479 146 479 146 479 111 c 0,18,19
 479 54 479 54 529.5 14.5 c 128,-1,20
 580 -25 580 -25 652 -25 c 2,21,-1
 787 -25 l 1,22,-1
 787 -74 l 1,23,-1
 602 -74 l 2,24,25
 576 -74 576 -74 551.5 -101.5 c 128,-1,26
 527 -129 527 -129 516 -172 c 0,27,28
 500 -232 500 -232 448.5 -269.5 c 128,-1,29
 397 -307 397 -307 332 -307 c 0,30,31
 266 -307 266 -307 219 -268 c 128,-1,32
 172 -229 172 -229 172 -172 c 0,33,34
 172 -122 172 -122 204.5 -85.5 c 128,-1,35
 237 -49 237 -49 283 -49 c 1,36,-1
 283 -98 l 1,37,38
 257 -98 257 -98 239 -119.5 c 128,-1,39
 221 -141 221 -141 221 -172 c 0,40,41
 221 -208 221 -208 253.5 -233 c 128,-1,42
 286 -258 286 -258 332 -258 c 0,43,44
 376 -258 376 -258 410.5 -234 c 128,-1,45
 445 -210 445 -210 455 -172 c 0,46,47
 467 -127 467 -127 493 -94 c 128,-1,48
 519 -61 519 -61 553 -49 c 1,49,50
 498 -29 498 -29 464 15 c 128,-1,51
 430 59 430 59 430 111 c 0,52,53
 430 182 430 182 488 232.5 c 128,-1,54
 546 283 546 283 627 283 c 1,55,56
 604 255 604 255 591 223 c 128,-1,57
 578 191 578 191 578 160 c 256,58,59
 578 129 578 129 603 107.5 c 128,-1,60
 628 86 628 86 664 86 c 256,61,62
 700 86 700 86 725 115 c 128,-1,63
 750 144 750 144 750 184 c 0,64,65
 750 301 750 301 653 384 c 128,-1,66
 556 467 556 467 418 467 c 0,67,68
 288 467 288 467 196 384 c 128,-1,69
 104 301 104 301 104 184 c 0,70,71
 104 177 104 177 108 164.5 c 128,-1,72
 112 152 112 152 123 123 c 1,73,74
 123 187 123 187 155.5 232 c 128,-1,75
 188 277 188 277 234 277 c 0,76,77
 284 277 284 277 320 238.5 c 128,-1,78
 356 200 356 200 356 148 c 0,79,80
 356 91 356 91 320 51.5 c 128,-1,81
 284 12 284 12 234 12 c 0,82,83
 158 12 158 12 103.5 62.5 c 128,-1,84
 49 113 49 113 49 184 c 1,85,-1
 49 184 l 1,0,1
172 148 m 1,86,87
 172 112 172 112 190 86.5 c 128,-1,88
 208 61 208 61 234 61 c 256,89,90
 260 61 260 61 277.5 86.5 c 128,-1,91
 295 112 295 112 295 148 c 0,92,93
 295 179 295 179 277 200 c 128,-1,94
 259 221 259 221 234 221 c 256,95,96
 208 221 208 221 190 199.5 c 128,-1,97
 172 178 172 178 172 148 c 1,98,-1
 172 148 l 1,86,87
EndSplineSet
Validated: 5
EndChar

StartChar: u0B93
Encoding: 2963 2963 63
Width: 859
VWidth: 1023
GlyphClass: 2
Flags: W
AnchorPoint: "Anchor-0" 418 529 basechar 0
LayerCount: 2
Fore
SplineSet
50 209 m 5,0,1
 50 337 50 337 158.5 426.5 c 132,-1,2
 267 516 267 516 419 516 c 4,3,4
 582 516 582 516 697.5 419 c 132,-1,5
 813 322 813 322 813 184 c 4,6,7
 813 123 813 123 770 80 c 132,-1,8
 727 37 727 37 665 37 c 4,9,10
 608 37 608 37 569 73 c 132,-1,11
 530 109 530 109 530 160 c 4,12,13
 530 170 530 170 538 189 c 132,-1,14
 546 208 546 208 561 234 c 5,15,16
 524 213 524 213 502.5 179.5 c 132,-1,17
 481 146 481 146 481 111 c 4,18,19
 481 54 481 54 531 14.5 c 132,-1,20
 581 -25 581 -25 653 -25 c 6,21,-1
 788 -25 l 5,22,-1
 788 -74 l 5,23,-1
 604 -74 l 6,24,25
 578 -74 578 -74 553.5 -101.5 c 132,-1,26
 529 -129 529 -129 518 -172 c 4,27,28
 502 -232 502 -232 457 -269.5 c 132,-1,29
 412 -307 412 -307 358 -307 c 4,30,31
 282 -307 282 -307 227.5 -268 c 132,-1,32
 173 -229 173 -229 173 -172 c 4,33,34
 173 -122 173 -122 205.5 -85.5 c 132,-1,35
 238 -49 238 -49 284 -49 c 4,36,37
 325 -49 325 -49 353.5 -78 c 132,-1,38
 382 -107 382 -107 382 -148 c 260,39,40
 382 -189 382 -189 357 -217.5 c 132,-1,41
 332 -246 332 -246 296 -246 c 5,42,43
 313 -252 313 -252 328.5 -255 c 132,-1,44
 344 -258 344 -258 358 -258 c 4,45,46
 391 -258 391 -258 418.5 -234 c 132,-1,47
 446 -210 446 -210 456 -172 c 4,48,49
 468 -127 468 -127 494 -94 c 132,-1,50
 520 -61 520 -61 554 -49 c 5,51,52
 499 -29 499 -29 465 15 c 132,-1,53
 431 59 431 59 431 111 c 4,54,55
 431 182 431 182 489 232.5 c 132,-1,56
 547 283 547 283 628 283 c 5,57,58
 605 255 605 255 592 223 c 132,-1,59
 579 191 579 191 579 160 c 260,60,61
 579 129 579 129 604 107.5 c 132,-1,62
 629 86 629 86 665 86 c 260,63,64
 701 86 701 86 726 115 c 132,-1,65
 751 144 751 144 751 184 c 4,66,67
 751 301 751 301 654 384 c 132,-1,68
 557 467 557 467 419 467 c 4,69,70
 286 467 286 467 193 391.5 c 132,-1,71
 100 316 100 316 100 209 c 4,72,73
 100 189 100 189 103 170.5 c 132,-1,74
 106 152 106 152 112 135 c 5,75,76
 112 194 112 194 148 235.5 c 132,-1,77
 184 277 184 277 235 277 c 260,78,79
 285 277 285 277 321.5 238.5 c 132,-1,80
 358 200 358 200 358 148 c 4,81,82
 358 91 358 91 321.5 51.5 c 132,-1,83
 285 12 285 12 235 12 c 4,84,85
 159 12 159 12 104.5 70 c 132,-1,86
 50 128 50 128 50 209 c 5,87,-1
 50 209 l 5,0,1
173 148 m 5,88,89
 173 112 173 112 191 86.5 c 132,-1,90
 209 61 209 61 235 61 c 260,91,92
 261 61 261 61 278.5 86.5 c 132,-1,93
 296 112 296 112 296 148 c 4,94,95
 296 179 296 179 278.5 200 c 132,-1,96
 261 221 261 221 235 221 c 260,97,98
 209 221 209 221 191 199.5 c 132,-1,99
 173 178 173 178 173 148 c 5,100,-1
 173 148 l 5,88,89
223 -172 m 5,101,102
 223 -187 223 -187 240.5 -198 c 132,-1,103
 258 -209 258 -209 284 -209 c 4,104,105
 305 -209 305 -209 319 -191 c 132,-1,106
 333 -173 333 -173 333 -148 c 4,107,108
 333 -127 333 -127 319 -112.5 c 132,-1,109
 305 -98 305 -98 284 -98 c 4,110,111
 258 -98 258 -98 240.5 -119.5 c 132,-1,112
 223 -141 223 -141 223 -172 c 5,113,-1
 223 -172 l 5,101,102
EndSplineSet
Validated: 5
EndChar

StartChar: u0B94
Encoding: 2964 2964 64
Width: 1746
VWidth: 1023
GlyphClass: 2
Flags: W
AnchorPoint: "Anchor-0" 879 514 basechar 0
LayerCount: 2
Fore
SplineSet
49 184 m 1,0,1
 49 322 49 322 157.5 419 c 128,-1,2
 266 516 266 516 418 516 c 0,3,4
 581 516 581 516 696 419 c 128,-1,5
 811 322 811 322 811 184 c 0,6,7
 811 123 811 123 768 80 c 128,-1,8
 725 37 725 37 664 37 c 0,9,10
 607 37 607 37 568 73 c 128,-1,11
 529 109 529 109 529 160 c 0,12,13
 529 170 529 170 537 189 c 128,-1,14
 545 208 545 208 559 234 c 1,15,16
 522 213 522 213 500.5 179.5 c 128,-1,17
 479 146 479 146 479 111 c 0,18,19
 479 54 479 54 529.5 14.5 c 128,-1,20
 580 -25 580 -25 652 -25 c 2,21,-1
 787 -25 l 1,22,-1
 787 -74 l 1,23,-1
 602 -74 l 2,24,25
 576 -74 576 -74 551.5 -101.5 c 128,-1,26
 527 -129 527 -129 516 -172 c 0,27,28
 500 -232 500 -232 448.5 -269.5 c 128,-1,29
 397 -307 397 -307 332 -307 c 0,30,31
 266 -307 266 -307 219 -268 c 128,-1,32
 172 -229 172 -229 172 -172 c 0,33,34
 172 -122 172 -122 204.5 -85.5 c 128,-1,35
 237 -49 237 -49 283 -49 c 1,36,-1
 283 -98 l 1,37,38
 257 -98 257 -98 239 -119.5 c 128,-1,39
 221 -141 221 -141 221 -172 c 0,40,41
 221 -208 221 -208 253.5 -233 c 128,-1,42
 286 -258 286 -258 332 -258 c 0,43,44
 376 -258 376 -258 410.5 -234 c 128,-1,45
 445 -210 445 -210 455 -172 c 0,46,47
 467 -127 467 -127 493 -94 c 128,-1,48
 519 -61 519 -61 553 -49 c 1,49,50
 498 -29 498 -29 464 15 c 128,-1,51
 430 59 430 59 430 111 c 0,52,53
 430 182 430 182 488 232.5 c 128,-1,54
 546 283 546 283 627 283 c 1,55,56
 604 255 604 255 591 223 c 128,-1,57
 578 191 578 191 578 160 c 256,58,59
 578 129 578 129 603 107.5 c 128,-1,60
 628 86 628 86 664 86 c 256,61,62
 700 86 700 86 725 115 c 128,-1,63
 750 144 750 144 750 184 c 0,64,65
 750 301 750 301 653 384 c 128,-1,66
 556 467 556 467 418 467 c 0,67,68
 288 467 288 467 196 384 c 128,-1,69
 104 301 104 301 104 184 c 0,70,71
 104 177 104 177 108 164.5 c 128,-1,72
 112 152 112 152 123 123 c 1,73,74
 123 187 123 187 155.5 232 c 128,-1,75
 188 277 188 277 234 277 c 0,76,77
 284 277 284 277 320 238.5 c 128,-1,78
 356 200 356 200 356 148 c 0,79,80
 356 91 356 91 320 51.5 c 128,-1,81
 284 12 284 12 234 12 c 0,82,83
 158 12 158 12 103.5 62.5 c 128,-1,84
 49 113 49 113 49 184 c 1,85,-1
 49 184 l 1,0,1
172 148 m 1,86,87
 172 112 172 112 190 86.5 c 128,-1,88
 208 61 208 61 234 61 c 256,89,90
 260 61 260 61 277.5 86.5 c 128,-1,91
 295 112 295 112 295 148 c 0,92,93
 295 179 295 179 277 200 c 128,-1,94
 259 221 259 221 234 221 c 256,95,96
 208 221 208 221 190 199.5 c 128,-1,97
 172 178 172 178 172 148 c 1,98,-1
 172 148 l 1,86,87
1026 148 m 1,99,100
 1026 107 1026 107 1047.5 78 c 128,-1,101
 1069 49 1069 49 1100 49 c 256,102,103
 1131 49 1131 49 1152.5 78 c 128,-1,104
 1174 107 1174 107 1174 148 c 0,105,106
 1174 184 1174 184 1152.5 209 c 128,-1,107
 1131 234 1131 234 1100 234 c 256,108,109
 1069 234 1069 234 1047.5 208.5 c 128,-1,110
 1026 183 1026 183 1026 148 c 1,111,-1
 1026 148 l 1,99,100
1309 492 m 1,112,-1
 1739 492 l 1,113,-1
 1739 443 l 1,114,-1
 1604 443 l 1,115,-1
 1604 0 l 1,116,-1
 1543 0 l 1,117,-1
 1543 443 l 1,118,-1
 1358 443 l 1,119,-1
 1358 0 l 1,120,-1
 1297 0 l 1,121,-1
 1297 246 l 2,122,123
 1297 332 1297 332 1243 393.5 c 128,-1,124
 1189 455 1189 455 1113 455 c 256,125,126
 1037 455 1037 455 982.5 390.5 c 128,-1,127
 928 326 928 326 928 234 c 0,128,129
 928 187 928 187 947 145 c 128,-1,130
 966 103 966 103 1002 74 c 1,131,132
 990 95 990 95 983.5 114 c 128,-1,133
 977 133 977 133 977 148 c 0,134,135
 977 205 977 205 1013.5 244 c 128,-1,136
 1050 283 1050 283 1100 283 c 256,137,138
 1150 283 1150 283 1186.5 243.5 c 128,-1,139
 1223 204 1223 204 1223 148 c 0,140,141
 1223 82 1223 82 1180 35 c 128,-1,142
 1137 -12 1137 -12 1076 -12 c 0,143,144
 995 -12 995 -12 937 60 c 128,-1,145
 879 132 879 132 879 234 c 0,146,147
 879 346 879 346 947 425 c 128,-1,148
 1015 504 1015 504 1113 504 c 0,149,150
 1178 504 1178 504 1230.5 477.5 c 128,-1,151
 1283 451 1283 451 1309 406 c 1,152,-1
 1309 492 l 1,153,-1
 1309 492 l 1,112,-1
EndSplineSet
Validated: 5
EndChar

StartChar: u0B95
Encoding: 2965 2965 65
Width: 655
VWidth: 1023
GlyphClass: 2
Flags: W
AnchorPoint: "Anchor-0" 329 494 basechar 0
LayerCount: 2
Fore
SplineSet
219 270 m 1,0,-1
 342 270 l 1,1,-1
 342 443 l 1,2,-1
 219 443 l 1,3,-1
 219 270 l 1,4,-1
 219 270 l 1,0,-1
96 160 m 1,5,6
 96 110 96 110 135.5 73.5 c 128,-1,7
 175 37 175 37 231 37 c 0,8,9
 276 37 276 37 309 66 c 128,-1,10
 342 95 342 95 342 135 c 2,11,-1
 342 221 l 1,12,-1
 157 221 l 2,13,14
 131 221 131 221 113.5 203.5 c 128,-1,15
 96 186 96 186 96 160 c 1,16,-1
 96 160 l 1,5,6
157 492 m 1,17,-1
 588 492 l 1,18,-1
 588 443 l 1,19,-1
 403 443 l 1,20,-1
 403 270 l 1,21,-1
 477 270 l 2,22,23
 534 270 534 270 573 231 c 128,-1,24
 612 192 612 192 612 135 c 0,25,26
 612 74 612 74 576 31 c 128,-1,27
 540 -12 540 -12 489 -12 c 0,28,29
 475 -12 475 -12 460 -9 c 128,-1,30
 445 -6 445 -6 428 0 c 1,31,-1
 440 49 l 1,32,33
 451 43 451 43 463.5 40 c 128,-1,34
 476 37 476 37 489 37 c 0,35,36
 515 37 515 37 533 66 c 128,-1,37
 551 95 551 95 551 135 c 0,38,39
 551 171 551 171 529.5 196 c 128,-1,40
 508 221 508 221 477 221 c 2,41,-1
 403 221 l 1,42,-1
 403 135 l 2,43,44
 403 74 403 74 352.5 31 c 128,-1,45
 302 -12 302 -12 231 -12 c 0,46,47
 150 -12 150 -12 92 38.5 c 128,-1,48
 34 89 34 89 34 160 c 0,49,50
 34 205 34 205 70.5 237.5 c 128,-1,51
 107 270 107 270 157 270 c 1,52,-1
 157 492 l 1,53,-1
 157 492 l 1,17,-1
EndSplineSet
Validated: 5
EndChar

StartChar: u0B99
Encoding: 2969 2969 66
Width: 897
VWidth: 1023
GlyphClass: 2
Flags: W
AnchorPoint: "Anchor-0" 449 492 basechar 0
LayerCount: 2
Fore
SplineSet
301 49 m 1,0,-1
 436 49 l 2,1,2
 481 49 481 49 514 81.5 c 128,-1,3
 547 114 547 114 547 160 c 0,4,5
 547 196 547 196 518 221 c 128,-1,6
 489 246 489 246 449 246 c 0,7,8
 428 246 428 246 405 233 c 128,-1,9
 382 220 382 220 363 197 c 1,10,-1
 363 98 l 1,11,-1
 301 98 l 1,12,-1
 301 443 l 1,13,-1
 154 443 l 1,14,-1
 154 0 l 1,15,-1
 92 0 l 1,16,-1
 92 492 l 1,17,-1
 535 492 l 1,18,-1
 535 443 l 1,19,-1
 363 443 l 1,20,-1
 363 264 l 1,21,22
 388 285 388 285 413 296 c 128,-1,23
 438 307 438 307 461 307 c 0,24,25
 522 307 522 307 565 264 c 128,-1,26
 608 221 608 221 608 160 c 0,27,28
 608 127 608 127 595.5 98 c 128,-1,29
 583 69 583 69 559 49 c 1,30,-1
 744 49 l 1,31,-1
 744 492 l 1,32,-1
 805 492 l 1,33,-1
 805 0 l 1,34,-1
 301 0 l 1,35,-1
 301 49 l 1,36,-1
 301 49 l 1,0,-1
EndSplineSet
Validated: 5
EndChar

StartChar: u0B9A
Encoding: 2970 2970 67
Width: 567
VWidth: 1023
GlyphClass: 2
Flags: W
AnchorPoint: "Anchor-0" 300 495 basechar 0
LayerCount: 2
Fore
SplineSet
219 270 m 1,0,-1
 342 270 l 1,1,-1
 342 443 l 1,2,-1
 219 443 l 1,3,-1
 219 270 l 1,4,-1
 219 270 l 1,0,-1
96 160 m 1,5,6
 96 110 96 110 135.5 73.5 c 128,-1,7
 175 37 175 37 231 37 c 0,8,9
 276 37 276 37 309 66 c 128,-1,10
 342 95 342 95 342 135 c 2,11,-1
 342 221 l 1,12,-1
 157 221 l 2,13,14
 131 221 131 221 113.5 203.5 c 128,-1,15
 96 186 96 186 96 160 c 1,16,-1
 96 160 l 1,5,6
157 492 m 1,17,-1
 551 492 l 1,18,-1
 551 443 l 1,19,-1
 403 443 l 1,20,-1
 403 270 l 1,21,-1
 551 270 l 1,22,-1
 551 221 l 1,23,-1
 403 221 l 1,24,-1
 403 135 l 2,25,26
 403 74 403 74 352.5 31 c 128,-1,27
 302 -12 302 -12 231 -12 c 0,28,29
 150 -12 150 -12 92 38.5 c 128,-1,30
 34 89 34 89 34 160 c 0,31,32
 34 205 34 205 70.5 237.5 c 128,-1,33
 107 270 107 270 157 270 c 1,34,-1
 157 492 l 1,35,-1
 157 492 l 1,17,-1
EndSplineSet
Validated: 5
EndChar

StartChar: u0B9C
Encoding: 2972 2972 68
Width: 854
VWidth: 1023
GlyphClass: 2
Flags: W
AnchorPoint: "Anchor-0" 433 502 basechar 0
LayerCount: 2
Fore
SplineSet
101 246 m 1,0,1
 101 215 101 215 126 193.5 c 128,-1,2
 151 172 151 172 187 172 c 0,3,4
 218 172 218 172 239.5 193.5 c 128,-1,5
 261 215 261 215 261 246 c 256,6,7
 261 277 261 277 239.5 298.5 c 128,-1,8
 218 320 218 320 187 320 c 0,9,10
 151 320 151 320 126 298.5 c 128,-1,11
 101 277 101 277 101 246 c 1,12,-1
 101 246 l 1,0,1
439 393 m 1,13,14
 457 443 457 443 502.5 473.5 c 128,-1,15
 548 504 548 504 605 504 c 0,16,17
 686 504 686 504 743.5 436 c 128,-1,18
 801 368 801 368 801 270 c 256,19,20
 801 173 801 173 736.5 105 c 128,-1,21
 672 37 672 37 580 37 c 2,22,-1
 236 37 l 2,23,24
 186 37 186 37 149.5 -10 c 128,-1,25
 113 -57 113 -57 113 -123 c 0,26,27
 113 -194 113 -194 149.5 -244.5 c 128,-1,28
 186 -295 186 -295 236 -295 c 0,29,30
 278 -295 278 -295 320.5 -262 c 128,-1,31
 363 -229 363 -229 396 -172 c 0,32,33
 443 -92 443 -92 508.5 -46 c 128,-1,34
 574 0 574 0 642 0 c 0,35,36
 703 0 703 0 746 -54 c 128,-1,37
 789 -108 789 -108 789 -184 c 0,38,39
 789 -253 789 -253 753 -301.5 c 128,-1,40
 717 -350 717 -350 666 -350 c 0,41,42
 605 -350 605 -350 562 -298 c 128,-1,43
 519 -246 519 -246 519 -172 c 1,44,-1
 568 -172 l 1,45,46
 578 -225 578 -225 603.5 -260 c 128,-1,47
 629 -295 629 -295 660 -295 c 0,48,49
 688 -295 688 -295 708 -262.5 c 128,-1,50
 728 -230 728 -230 728 -184 c 0,51,52
 728 -127 728 -127 702.5 -88 c 128,-1,53
 677 -49 677 -49 642 -49 c 0,54,55
 590 -49 590 -49 538.5 -85.5 c 128,-1,56
 487 -122 487 -122 451 -184 c 0,57,58
 408 -258 408 -258 350.5 -301 c 128,-1,59
 293 -344 293 -344 236 -344 c 0,60,61
 160 -344 160 -344 106 -279.5 c 128,-1,62
 52 -215 52 -215 52 -123 c 0,63,64
 52 -37 52 -37 106 24.5 c 128,-1,65
 160 86 160 86 236 86 c 2,66,-1
 580 86 l 2,67,68
 646 86 646 86 693 140 c 128,-1,69
 740 194 740 194 740 270 c 256,70,71
 740 346 740 346 700.5 400.5 c 128,-1,72
 661 455 661 455 605 455 c 256,73,74
 548 455 548 455 509 415.5 c 128,-1,75
 470 376 470 376 470 320 c 2,76,-1
 470 135 l 1,77,-1
 408 135 l 1,78,-1
 408 320 l 2,79,80
 408 377 408 377 365 416 c 128,-1,81
 322 455 322 455 261 455 c 0,82,83
 207 455 207 455 163 425 c 128,-1,84
 119 395 119 395 101 344 c 1,85,86
 122 356 122 356 144 362.5 c 128,-1,87
 166 369 166 369 187 369 c 0,88,89
 237 369 237 369 273.5 332.5 c 128,-1,90
 310 296 310 296 310 246 c 256,91,92
 310 196 310 196 273.5 159.5 c 128,-1,93
 237 123 237 123 187 123 c 0,94,95
 126 123 126 123 89 169.5 c 128,-1,96
 52 216 52 216 52 295 c 0,97,98
 52 381 52 381 113.5 442.5 c 128,-1,99
 175 504 175 504 261 504 c 0,100,101
 314 504 314 504 361.5 474.5 c 128,-1,102
 409 445 409 445 439 393 c 1,103,-1
 439 393 l 1,13,14
EndSplineSet
Validated: 5
EndChar

StartChar: u0B9E
Encoding: 2974 2974 69
Width: 1100
VWidth: 1023
GlyphClass: 2
Flags: W
AnchorPoint: "Anchor-0" 572 505 basechar 0
LayerCount: 2
Fore
SplineSet
380 135 m 1,0,1
 380 94 380 94 405 65.5 c 128,-1,2
 430 37 430 37 466 37 c 256,3,4
 502 37 502 37 527 66 c 128,-1,5
 552 95 552 95 552 135 c 256,6,7
 552 176 552 176 527 205 c 128,-1,8
 502 234 502 234 466 234 c 256,9,10
 430 234 430 234 405 205 c 128,-1,11
 380 176 380 176 380 135 c 1,12,-1
 380 135 l 1,0,1
73 197 m 1,13,14
 73 287 73 287 96.5 363 c 128,-1,15
 120 439 120 439 165 492 c 1,16,-1
 208 461 l 1,17,18
 170 414 170 414 149 346.5 c 128,-1,19
 128 279 128 279 128 197 c 0,20,21
 128 4 128 4 270 -133 c 128,-1,22
 412 -270 412 -270 613 -270 c 0,23,24
 770 -270 770 -270 882 -162 c 128,-1,25
 994 -54 994 -54 994 98 c 0,26,27
 994 155 994 155 961.5 194.5 c 128,-1,28
 929 234 929 234 884 234 c 0,29,30
 864 234 864 234 844.5 219 c 128,-1,31
 825 204 825 204 810 178 c 1,32,-1
 810 0 l 1,33,-1
 749 0 l 1,34,-1
 749 443 l 1,35,-1
 527 443 l 2,36,37
 423 443 423 443 349 374.5 c 128,-1,38
 275 306 275 306 275 209 c 0,39,40
 275 168 275 168 294 129.5 c 128,-1,41
 313 91 313 91 349 61 c 1,42,43
 340 77 340 77 335.5 95.5 c 128,-1,44
 331 114 331 114 331 135 c 0,45,46
 331 196 331 196 370 239.5 c 128,-1,47
 409 283 409 283 466 283 c 256,48,49
 523 283 523 283 562 240 c 128,-1,50
 601 197 601 197 601 135 c 256,51,52
 601 74 601 74 561.5 31 c 128,-1,53
 522 -12 522 -12 466 -12 c 0,54,55
 364 -12 364 -12 292 52.5 c 128,-1,56
 220 117 220 117 220 209 c 0,57,58
 220 326 220 326 310 409 c 128,-1,59
 400 492 400 492 527 492 c 2,60,-1
 1007 492 l 1,61,-1
 1007 443 l 1,62,-1
 810 443 l 1,63,-1
 810 246 l 1,64,65
 825 263 825 263 844 273 c 128,-1,66
 863 283 863 283 884 283 c 0,67,68
 955 283 955 283 1005.5 229 c 128,-1,69
 1056 175 1056 175 1056 98 c 0,70,71
 1056 -75 1056 -75 926.5 -197.5 c 128,-1,72
 797 -320 797 -320 613 -320 c 0,73,74
 389 -320 389 -320 231 -168.5 c 128,-1,75
 73 -17 73 -17 73 197 c 1,76,-1
 73 197 l 1,13,14
EndSplineSet
Validated: 5
EndChar

StartChar: u0B9F
Encoding: 2975 2975 70
Width: 815
VWidth: 1023
GlyphClass: 2
Flags: W
AnchorPoint: "Anchor-0" 423 502 basechar 0
LayerCount: 2
Fore
SplineSet
92 0 m 1,0,-1
 92 492 l 1,1,-1
 154 492 l 1,2,-1
 154 49 l 1,3,-1
 805 49 l 1,4,-1
 805 0 l 1,5,-1
 92 0 l 1,6,-1
 92 0 l 1,0,-1
EndSplineSet
Validated: 5
EndChar

StartChar: u0BA3
Encoding: 2979 2979 71
Width: 1303
VWidth: 1023
GlyphClass: 2
Flags: W
AnchorPoint: "Anchor-0" 675 516 basechar 0
LayerCount: 2
Fore
SplineSet
189 135 m 1,0,1
 189 94 189 94 210.5 65.5 c 128,-1,2
 232 37 232 37 263 37 c 256,3,4
 294 37 294 37 315.5 66 c 128,-1,5
 337 95 337 95 337 135 c 256,6,7
 337 176 337 176 315.5 205 c 128,-1,8
 294 234 294 234 263 234 c 256,9,10
 232 234 232 234 210.5 205 c 128,-1,11
 189 176 189 176 189 135 c 1,12,-1
 189 135 l 1,0,1
484 197 m 1,13,14
 484 131 484 131 502 84 c 128,-1,15
 520 37 520 37 546 37 c 256,16,17
 572 37 572 37 589.5 83.5 c 128,-1,18
 607 130 607 130 607 197 c 0,19,20
 607 242 607 242 591 284.5 c 128,-1,21
 575 327 575 327 546 363 c 1,22,23
 516 327 516 327 500 284.5 c 128,-1,24
 484 242 484 242 484 197 c 1,25,-1
 484 197 l 1,13,14
779 197 m 1,26,27
 779 131 779 131 797 84 c 128,-1,28
 815 37 815 37 841 37 c 256,29,30
 867 37 867 37 884.5 83.5 c 128,-1,31
 902 130 902 130 902 197 c 0,32,33
 902 245 902 245 886 289 c 128,-1,34
 870 333 870 333 841 369 c 1,35,36
 811 333 811 333 795 289 c 128,-1,37
 779 245 779 245 779 197 c 1,38,-1
 779 197 l 1,26,27
54 209 m 1,39,40
 54 331 54 331 144 417.5 c 128,-1,41
 234 504 234 504 361 504 c 0,42,43
 419 504 419 504 466.5 490 c 128,-1,44
 514 476 514 476 546 449 c 1,45,46
 578 476 578 476 616 490 c 128,-1,47
 654 504 654 504 693 504 c 0,48,49
 736 504 736 504 775.5 490 c 128,-1,50
 815 476 815 476 847 449 c 1,51,52
 872 470 872 470 905 481 c 128,-1,53
 938 492 938 492 976 492 c 2,54,-1
 1296 492 l 1,55,-1
 1296 443 l 1,56,-1
 1148 443 l 1,57,-1
 1148 0 l 1,58,-1
 1087 0 l 1,59,-1
 1087 443 l 1,60,-1
 976 443 l 2,61,62
 954 443 954 443 929 435 c 128,-1,63
 904 427 904 427 878 412 c 1,64,65
 920 363 920 363 942 307 c 128,-1,66
 964 251 964 251 964 197 c 0,67,68
 964 111 964 111 927.5 49.5 c 128,-1,69
 891 -12 891 -12 841 -12 c 256,70,71
 791 -12 791 -12 754.5 49.5 c 128,-1,72
 718 111 718 111 718 197 c 0,73,74
 718 267 718 267 739 323.5 c 128,-1,75
 760 380 760 380 798 412 c 1,76,77
 773 433 773 433 746 444 c 128,-1,78
 719 455 719 455 693 455 c 256,79,80
 667 455 667 455 639 442 c 128,-1,81
 611 429 611 429 583 406 c 1,82,83
 624 372 624 372 646.5 317 c 128,-1,84
 669 262 669 262 669 197 c 0,85,86
 669 111 669 111 632.5 49.5 c 128,-1,87
 596 -12 596 -12 546 -12 c 256,88,89
 496 -12 496 -12 459.5 49.5 c 128,-1,90
 423 111 423 111 423 197 c 0,91,92
 423 255 423 255 444 310 c 128,-1,93
 465 365 465 365 503 412 c 1,94,95
 478 433 478 433 442 444 c 128,-1,96
 406 455 406 455 361 455 c 0,97,98
 254 455 254 455 178.5 383 c 128,-1,99
 103 311 103 311 103 209 c 0,100,101
 103 154 103 154 121 109 c 128,-1,102
 139 64 139 64 171 37 c 1,103,104
 156 63 156 63 148 88 c 128,-1,105
 140 113 140 113 140 135 c 0,106,107
 140 196 140 196 176.5 239.5 c 128,-1,108
 213 283 213 283 263 283 c 256,109,110
 313 283 313 283 349.5 240 c 128,-1,111
 386 197 386 197 386 135 c 256,112,113
 386 74 386 74 343 31 c 128,-1,114
 300 -12 300 -12 238 -12 c 0,115,116
 162 -12 162 -12 108 52.5 c 128,-1,117
 54 117 54 117 54 209 c 1,118,-1
 54 209 l 1,39,40
EndSplineSet
Validated: 5
EndChar

StartChar: u0BA4
Encoding: 2980 2980 72
Width: 667
VWidth: 1023
GlyphClass: 2
Flags: W
AnchorPoint: "Anchor-0" 322 492 basechar 0
LayerCount: 2
Fore
SplineSet
219 443 m 1,0,-1
 219 270 l 1,1,-1
 342 270 l 1,2,-1
 342 443 l 1,3,-1
 219 443 l 1,4,-1
 219 443 l 1,0,-1
96 160 m 1,5,6
 96 110 96 110 135.5 73.5 c 128,-1,7
 175 37 175 37 231 37 c 0,8,9
 276 37 276 37 309 66 c 128,-1,10
 342 95 342 95 342 135 c 2,11,-1
 342 221 l 1,12,-1
 157 221 l 2,13,14
 131 221 131 221 113.5 203.5 c 128,-1,15
 96 186 96 186 96 160 c 1,16,-1
 96 160 l 1,5,6
157 492 m 1,17,-1
 575 492 l 1,18,-1
 575 443 l 1,19,-1
 403 443 l 1,20,-1
 403 270 l 1,21,-1
 452 270 l 2,22,23
 523 270 523 270 573.5 227 c 128,-1,24
 624 184 624 184 624 123 c 0,25,26
 624 21 624 21 556 -51 c 128,-1,27
 488 -123 488 -123 391 -123 c 2,28,-1
 157 -123 l 2,29,30
 126 -123 126 -123 105 -148 c 128,-1,31
 84 -173 84 -173 84 -209 c 0,32,33
 84 -234 84 -234 96.5 -256.5 c 128,-1,34
 109 -279 109 -279 133 -295 c 1,35,-1
 96 -338 l 1,36,37
 62 -318 62 -318 42 -284 c 128,-1,38
 22 -250 22 -250 22 -209 c 0,39,40
 22 -152 22 -152 61.5 -113 c 128,-1,41
 101 -74 101 -74 157 -74 c 2,42,-1
 391 -74 l 2,43,44
 462 -74 462 -74 512.5 -16 c 128,-1,45
 563 42 563 42 563 123 c 0,46,47
 563 164 563 164 530.5 192.5 c 128,-1,48
 498 221 498 221 452 221 c 2,49,-1
 403 221 l 1,50,-1
 403 135 l 2,51,52
 403 74 403 74 352.5 31 c 128,-1,53
 302 -12 302 -12 231 -12 c 0,54,55
 150 -12 150 -12 92 38.5 c 128,-1,56
 34 89 34 89 34 160 c 0,57,58
 34 205 34 205 70.5 237.5 c 128,-1,59
 107 270 107 270 157 270 c 1,60,-1
 157 492 l 1,61,-1
 157 492 l 1,17,-1
EndSplineSet
Validated: 5
EndChar

StartChar: u0BA8
Encoding: 2984 2984 73
Width: 657
VWidth: 1023
GlyphClass: 2
Flags: W
AnchorPoint: "Anchor-0" 310 499 basechar 0
LayerCount: 2
Fore
SplineSet
92 492 m 1,0,-1
 535 492 l 1,1,-1
 535 443 l 1,2,-1
 350 443 l 1,3,-1
 350 283 l 1,4,5
 361 305 361 305 387.5 318.5 c 128,-1,6
 414 332 414 332 449 332 c 0,7,8
 515 332 515 332 561.5 270.5 c 128,-1,9
 608 209 608 209 608 123 c 0,10,11
 608 21 608 21 540 -51 c 128,-1,12
 472 -123 472 -123 375 -123 c 2,13,-1
 141 -123 l 2,14,15
 110 -123 110 -123 89 -148 c 128,-1,16
 68 -173 68 -173 68 -209 c 0,17,18
 68 -231 68 -231 84 -257 c 128,-1,19
 100 -283 100 -283 129 -307 c 1,20,-1
 86 -344 l 1,21,22
 48 -312 48 -312 27 -276.5 c 128,-1,23
 6 -241 6 -241 6 -209 c 0,24,25
 6 -152 6 -152 45.5 -113 c 128,-1,26
 85 -74 85 -74 141 -74 c 2,27,-1
 375 -74 l 2,28,29
 446 -74 446 -74 496.5 -16 c 128,-1,30
 547 42 547 42 547 123 c 0,31,32
 547 184 547 184 518 227 c 128,-1,33
 489 270 489 270 449 270 c 0,34,35
 410 270 410 270 381.5 248.5 c 128,-1,36
 353 227 353 227 350 197 c 2,37,-1
 350 0 l 1,38,-1
 289 0 l 1,39,-1
 289 443 l 1,40,-1
 154 443 l 1,41,-1
 154 0 l 1,42,-1
 92 0 l 1,43,-1
 92 492 l 1,44,-1
 92 492 l 1,0,-1
EndSplineSet
Validated: 5
EndChar

StartChar: u0BA9
Encoding: 2985 2985 74
Width: 993
VWidth: 1023
GlyphClass: 2
Flags: W
AnchorPoint: "Anchor-0" 519 506 basechar 0
LayerCount: 2
Fore
SplineSet
187 135 m 1,0,1
 187 94 187 94 212 65.5 c 128,-1,2
 237 37 237 37 273 37 c 256,3,4
 309 37 309 37 334 66 c 128,-1,5
 359 95 359 95 359 135 c 256,6,7
 359 176 359 176 334 205 c 128,-1,8
 309 234 309 234 273 234 c 256,9,10
 237 234 237 234 212 205 c 128,-1,11
 187 176 187 176 187 135 c 1,12,-1
 187 135 l 1,0,1
519 197 m 1,13,14
 519 131 519 131 536.5 84 c 128,-1,15
 554 37 554 37 580 37 c 256,16,17
 606 37 606 37 624 83.5 c 128,-1,18
 642 130 642 130 642 197 c 0,19,20
 642 245 642 245 626 289 c 128,-1,21
 610 333 610 333 580 369 c 1,22,23
 550 333 550 333 534.5 289 c 128,-1,24
 519 245 519 245 519 197 c 1,25,-1
 519 197 l 1,13,14
728 492 m 1,26,-1
 986 492 l 1,27,-1
 986 443 l 1,28,-1
 888 443 l 1,29,-1
 888 0 l 1,30,-1
 826 0 l 1,31,-1
 826 443 l 1,32,-1
 728 443 l 2,33,34
 696 443 696 443 667 433.5 c 128,-1,35
 638 424 638 424 617 406 c 1,36,37
 658 372 658 372 680.5 317 c 128,-1,38
 703 262 703 262 703 197 c 0,39,40
 703 111 703 111 667 49.5 c 128,-1,41
 631 -12 631 -12 580 -12 c 256,42,43
 530 -12 530 -12 493.5 49.5 c 128,-1,44
 457 111 457 111 457 197 c 0,45,46
 457 260 457 260 480 312.5 c 128,-1,47
 503 365 503 365 543 400 c 1,48,49
 511 427 511 427 467 441 c 128,-1,50
 423 455 423 455 371 455 c 0,51,52
 259 455 259 455 180 383 c 128,-1,53
 101 311 101 311 101 209 c 0,54,55
 101 170 101 170 114 138 c 128,-1,56
 127 106 127 106 150 86 c 1,57,58
 144 97 144 97 141 109.5 c 128,-1,59
 138 122 138 122 138 135 c 0,60,61
 138 196 138 196 177 239.5 c 128,-1,62
 216 283 216 283 273 283 c 256,63,64
 330 283 330 283 369 240 c 128,-1,65
 408 197 408 197 408 135 c 256,66,67
 408 74 408 74 368.5 31 c 128,-1,68
 329 -12 329 -12 273 -12 c 0,69,70
 181 -12 181 -12 116.5 52.5 c 128,-1,71
 52 117 52 117 52 209 c 0,72,73
 52 331 52 331 145 417.5 c 128,-1,74
 238 504 238 504 371 504 c 0,75,76
 436 504 436 504 490.5 488 c 128,-1,77
 545 472 545 472 580 443 c 1,78,79
 608 466 608 466 646.5 479 c 128,-1,80
 685 492 685 492 728 492 c 1,81,-1
 728 492 l 1,26,-1
EndSplineSet
Validated: 5
EndChar

StartChar: u0BAA
Encoding: 2986 2986 75
Width: 762
VWidth: 1023
GlyphClass: 2
Flags: W
AnchorPoint: "Anchor-0" 374 494 basechar 0
LayerCount: 2
Fore
SplineSet
608 49 m 1,0,-1
 608 492 l 1,1,-1
 670 492 l 1,2,-1
 670 0 l 1,3,-1
 92 0 l 1,4,-1
 92 492 l 1,5,-1
 154 492 l 1,6,-1
 154 49 l 1,7,-1
 608 49 l 1,8,-1
 608 49 l 1,0,-1
EndSplineSet
Validated: 5
EndChar

StartChar: u0BAE
Encoding: 2990 2990 76
Width: 824
VWidth: 1023
GlyphClass: 2
Flags: W
AnchorPoint: "Anchor-0" 435 511 basechar 0
LayerCount: 2
Fore
SplineSet
449 369 m 1,0,-1
 449 49 l 1,1,-1
 621 49 l 2,2,3
 657 49 657 49 682 88.5 c 128,-1,4
 707 128 707 128 707 184 c 0,5,6
 707 296 707 296 653 375.5 c 128,-1,7
 599 455 599 455 522 455 c 0,8,9
 491 455 491 455 470 429.5 c 128,-1,10
 449 404 449 404 449 369 c 1,11,-1
 449 369 l 1,0,-1
522 504 m 1,12,13
 624 504 624 504 696 410.5 c 128,-1,14
 768 317 768 317 768 184 c 0,15,16
 768 108 768 108 725 54 c 128,-1,17
 682 0 682 0 621 0 c 2,18,-1
 92 0 l 1,19,-1
 92 492 l 1,20,-1
 154 492 l 1,21,-1
 154 49 l 1,22,-1
 387 49 l 1,23,-1
 387 369 l 2,24,25
 387 426 387 426 426.5 465 c 128,-1,26
 466 504 466 504 522 504 c 1,27,-1
 522 504 l 1,12,13
EndSplineSet
Validated: 5
EndChar

StartChar: u0BAF
Encoding: 2991 2991 77
Width: 878
VWidth: 1023
GlyphClass: 2
Flags: W
AnchorPoint: "Anchor-0" 424 488 basechar 0
LayerCount: 2
Fore
SplineSet
725 49 m 1,0,-1
 725 492 l 1,1,-1
 787 492 l 1,2,-1
 787 0 l 1,3,-1
 307 0 l 1,4,-1
 307 31 l 1,5,6
 290 10 290 10 264 -1 c 128,-1,7
 238 -12 238 -12 209 -12 c 0,8,9
 159 -12 159 -12 122.5 31 c 128,-1,10
 86 74 86 74 86 135 c 2,11,-1
 86 492 l 1,12,-1
 148 492 l 1,13,-1
 148 135 l 2,14,15
 148 94 148 94 165.5 65.5 c 128,-1,16
 183 37 183 37 209 37 c 0,17,18
 250 37 250 37 278.5 69.5 c 128,-1,19
 307 102 307 102 307 148 c 2,20,-1
 307 492 l 1,21,-1
 369 492 l 1,22,-1
 369 49 l 1,23,-1
 725 49 l 1,24,-1
 725 49 l 1,0,-1
EndSplineSet
Validated: 5
EndChar

StartChar: u0BB0
Encoding: 2992 2992 78
Width: 529
VWidth: 1023
GlyphClass: 2
Flags: W
AnchorPoint: "Anchor-0" 310 495 basechar 0
LayerCount: 2
Fore
SplineSet
92 492 m 5,0,-1
 522 492 l 5,1,-1
 522 443 l 5,2,-1
 387 443 l 5,3,-1
 387 0 l 5,4,5
 328 -21 328 -21 287 -74 c 132,-1,6
 246 -127 246 -127 234 -197 c 5,7,-1
 178 -184 l 5,8,9
 190 -115 190 -115 229 -58.5 c 132,-1,10
 268 -2 268 -2 326 31 c 5,11,-1
 326 443 l 5,12,-1
 154 443 l 5,13,-1
 154 0 l 5,14,-1
 92 0 l 5,15,-1
 92 492 l 5,16,-1
 92 492 l 5,0,-1
EndSplineSet
Validated: 5
EndChar

StartChar: u0BB1
Encoding: 2993 2993 79
Width: 697
VWidth: 1023
GlyphClass: 2
Flags: W
AnchorPoint: "Anchor-0" 337 509 basechar 0
LayerCount: 2
Fore
SplineSet
89 369 m 1,0,1
 89 426 89 426 128 465 c 128,-1,2
 167 504 167 504 224 504 c 0,3,4
 258 504 258 504 286.5 487.5 c 128,-1,5
 315 471 315 471 328 443 c 1,6,7
 342 471 342 471 375 487.5 c 128,-1,8
 408 504 408 504 451 504 c 0,9,10
 525 504 525 504 577 424.5 c 128,-1,11
 629 345 629 345 629 234 c 0,12,13
 629 86 629 86 553.5 -18.5 c 128,-1,14
 478 -123 478 -123 371 -123 c 2,15,-1
 175 -123 l 2,16,17
 134 -123 134 -123 118 -164 c 128,-1,18
 102 -205 102 -205 125 -246 c 1,19,-1
 76 -270 l 1,20,21
 64 -249 64 -249 58 -230 c 128,-1,22
 52 -211 52 -211 52 -197 c 0,23,24
 52 -147 52 -147 88 -110.5 c 128,-1,25
 124 -74 124 -74 175 -74 c 2,26,-1
 371 -74 l 2,27,28
 452 -74 452 -74 510 16 c 128,-1,29
 568 106 568 106 568 234 c 0,30,31
 568 326 568 326 535.5 390.5 c 128,-1,32
 503 455 503 455 457 455 c 0,33,34
 416 455 416 455 387.5 429.5 c 128,-1,35
 359 404 359 404 359 369 c 2,36,-1
 359 0 l 1,37,-1
 297 0 l 1,38,-1
 297 369 l 2,39,40
 297 405 297 405 275.5 430 c 128,-1,41
 254 455 254 455 224 455 c 256,42,43
 193 455 193 455 171.5 429.5 c 128,-1,44
 150 404 150 404 150 369 c 2,45,-1
 150 0 l 1,46,-1
 89 0 l 1,47,-1
 89 369 l 1,48,-1
 89 369 l 1,0,1
EndSplineSet
Validated: 37
EndChar

StartChar: u0BB2
Encoding: 2994 2994 80
Width: 850
VWidth: 1023
GlyphClass: 2
Flags: W
AnchorPoint: "Anchor-0" 423 534 basechar 0
LayerCount: 2
Fore
SplineSet
189 123 m 1,0,1
 189 87 189 87 210.5 62 c 128,-1,2
 232 37 232 37 263 37 c 256,3,4
 294 37 294 37 315.5 62 c 128,-1,5
 337 87 337 87 337 123 c 256,6,7
 337 159 337 159 315.5 184 c 128,-1,8
 294 209 294 209 263 209 c 256,9,10
 232 209 232 209 210.5 184 c 128,-1,11
 189 159 189 159 189 123 c 1,12,-1
 189 123 l 1,0,1
730 270 m 1,13,14
 730 336 730 336 694 396 c 128,-1,15
 658 456 658 456 595 492 c 1,16,-1
 632 529 l 1,17,18
 706 486 706 486 749 417 c 128,-1,19
 792 348 792 348 792 270 c 0,20,21
 792 153 792 153 730.5 70.5 c 128,-1,22
 669 -12 669 -12 583 -12 c 0,23,24
 526 -12 526 -12 486.5 24 c 128,-1,25
 447 60 447 60 447 111 c 2,26,-1
 447 356 l 2,27,28
 447 397 447 397 414.5 426 c 128,-1,29
 382 455 382 455 337 455 c 0,30,31
 240 455 240 455 171.5 386.5 c 128,-1,32
 103 318 103 318 103 221 c 0,33,34
 103 164 103 164 116 122.5 c 128,-1,35
 129 81 129 81 152 61 c 1,36,37
 146 68 146 68 143 87.5 c 128,-1,38
 140 107 140 107 140 135 c 0,39,40
 140 185 140 185 176.5 221.5 c 128,-1,41
 213 258 213 258 263 258 c 256,42,43
 313 258 313 258 349.5 218.5 c 128,-1,44
 386 179 386 179 386 123 c 256,45,46
 386 66 386 66 349.5 27 c 128,-1,47
 313 -12 313 -12 263 -12 c 0,48,49
 177 -12 177 -12 115.5 56 c 128,-1,50
 54 124 54 124 54 221 c 0,51,52
 54 338 54 338 137 421 c 128,-1,53
 220 504 220 504 337 504 c 0,54,55
 408 504 408 504 458.5 461 c 128,-1,56
 509 418 509 418 509 356 c 2,57,-1
 509 111 l 2,58,59
 509 80 509 80 530.5 58.5 c 128,-1,60
 552 37 552 37 583 37 c 0,61,62
 644 37 644 37 687 105 c 128,-1,63
 730 173 730 173 730 270 c 1,64,-1
 730 270 l 1,13,14
EndSplineSet
Validated: 5
EndChar

StartChar: u0BB3
Encoding: 2995 2995 81
Width: 924
VWidth: 1023
GlyphClass: 2
Flags: W
AnchorPoint: "Anchor-0" 482 510 basechar 0
LayerCount: 2
Fore
SplineSet
204 148 m 1,0,1
 204 107 204 107 225.5 78 c 128,-1,2
 247 49 247 49 278 49 c 256,3,4
 309 49 309 49 330.5 78 c 128,-1,5
 352 107 352 107 352 148 c 0,6,7
 352 184 352 184 330.5 209 c 128,-1,8
 309 234 309 234 278 234 c 256,9,10
 247 234 247 234 225.5 208.5 c 128,-1,11
 204 183 204 183 204 148 c 1,12,-1
 204 148 l 1,0,1
487 492 m 1,13,-1
 917 492 l 1,14,-1
 917 443 l 1,15,-1
 782 443 l 1,16,-1
 782 0 l 1,17,-1
 720 0 l 1,18,-1
 720 443 l 1,19,-1
 536 443 l 1,20,-1
 536 0 l 1,21,-1
 475 0 l 1,22,-1
 475 246 l 2,23,24
 475 332 475 332 420.5 393.5 c 128,-1,25
 366 455 366 455 290 455 c 256,26,27
 214 455 214 455 160 390.5 c 128,-1,28
 106 326 106 326 106 234 c 0,29,30
 106 187 106 187 125 145 c 128,-1,31
 144 103 144 103 179 74 c 1,32,33
 167 95 167 95 161 114 c 128,-1,34
 155 133 155 133 155 148 c 0,35,36
 155 205 155 205 191 244 c 128,-1,37
 227 283 227 283 278 283 c 256,38,39
 328 283 328 283 364.5 243.5 c 128,-1,40
 401 204 401 204 401 148 c 0,41,42
 401 82 401 82 358 35 c 128,-1,43
 315 -12 315 -12 253 -12 c 0,44,45
 172 -12 172 -12 114.5 60 c 128,-1,46
 57 132 57 132 57 234 c 0,47,48
 57 346 57 346 125 425 c 128,-1,49
 193 504 193 504 290 504 c 0,50,51
 355 504 355 504 408 477.5 c 128,-1,52
 461 451 461 451 487 406 c 1,53,-1
 487 492 l 1,54,-1
 487 492 l 1,13,-1
EndSplineSet
Validated: 5
EndChar

StartChar: u0BB4
Encoding: 2996 2996 82
Width: 824
VWidth: 1023
GlyphClass: 2
Flags: W
AnchorPoint: "Anchor-0" 430 511 basechar 0
LayerCount: 2
Fore
SplineSet
449 369 m 1,0,-1
 449 49 l 1,1,-1
 621 49 l 2,2,3
 657 49 657 49 682 88.5 c 128,-1,4
 707 128 707 128 707 184 c 0,5,6
 707 296 707 296 653 375.5 c 128,-1,7
 599 455 599 455 522 455 c 0,8,9
 491 455 491 455 470 429.5 c 128,-1,10
 449 404 449 404 449 369 c 1,11,-1
 449 369 l 1,0,-1
522 504 m 1,12,13
 624 504 624 504 696 410.5 c 128,-1,14
 768 317 768 317 768 184 c 0,15,16
 768 108 768 108 725 54 c 128,-1,17
 682 0 682 0 621 0 c 2,18,-1
 449 0 l 1,19,20
 456 -43 456 -43 487.5 -70.5 c 128,-1,21
 519 -98 519 -98 559 -98 c 2,22,-1
 707 -98 l 1,23,-1
 707 -148 l 1,24,-1
 608 -148 l 2,25,26
 563 -148 563 -148 523.5 -171 c 128,-1,27
 484 -194 484 -194 461 -234 c 0,28,29
 431 -286 431 -286 381.5 -315 c 128,-1,30
 332 -344 332 -344 277 -344 c 0,31,32
 201 -344 201 -344 146.5 -301 c 128,-1,33
 92 -258 92 -258 92 -197 c 0,34,35
 92 -147 92 -147 128.5 -110.5 c 128,-1,36
 165 -74 165 -74 215 -74 c 2,37,-1
 313 -74 l 1,38,-1
 313 -123 l 1,39,-1
 215 -123 l 2,40,41
 189 -123 189 -123 171.5 -144.5 c 128,-1,42
 154 -166 154 -166 154 -197 c 0,43,44
 154 -238 154 -238 190 -266.5 c 128,-1,45
 226 -295 226 -295 277 -295 c 0,46,47
 311 -295 311 -295 341 -278.5 c 128,-1,48
 371 -262 371 -262 387 -234 c 0,49,50
 404 -203 404 -203 429.5 -177.5 c 128,-1,51
 455 -152 455 -152 486 -135 c 1,52,53
 442 -119 442 -119 414.5 -81.5 c 128,-1,54
 387 -44 387 -44 387 0 c 1,55,-1
 92 0 l 1,56,-1
 92 492 l 1,57,-1
 154 492 l 1,58,-1
 154 49 l 1,59,-1
 387 49 l 1,60,-1
 387 369 l 2,61,62
 387 426 387 426 426.5 465 c 128,-1,63
 466 504 466 504 522 504 c 1,64,-1
 522 504 l 1,12,13
EndSplineSet
Validated: 5
EndChar

StartChar: u0BB5
Encoding: 2997 2997 83
Width: 980
VWidth: 1023
GlyphClass: 2
Flags: W
AnchorPoint: "Anchor-0" 482 513 basechar 0
LayerCount: 2
Fore
SplineSet
200 135 m 1,0,1
 200 94 200 94 225.5 65.5 c 128,-1,2
 251 37 251 37 286 37 c 0,3,4
 327 37 327 37 356 66 c 128,-1,5
 385 95 385 95 385 135 c 256,6,7
 385 176 385 176 356 205 c 128,-1,8
 327 234 327 234 286 234 c 0,9,10
 250 234 250 234 225 205 c 128,-1,11
 200 176 200 176 200 135 c 1,12,-1
 200 135 l 1,0,1
827 49 m 1,13,-1
 827 492 l 1,14,-1
 889 492 l 1,15,-1
 889 0 l 1,16,-1
 483 0 l 1,17,-1
 483 37 l 1,18,19
 513 73 513 73 529 123 c 128,-1,20
 545 173 545 173 545 234 c 0,21,22
 545 326 545 326 480.5 390.5 c 128,-1,23
 416 455 416 455 323 455 c 256,24,25
 231 455 231 455 166.5 390.5 c 128,-1,26
 102 326 102 326 102 234 c 0,27,28
 102 192 102 192 118 150.5 c 128,-1,29
 134 109 134 109 163 74 c 1,30,31
 157 91 157 91 154 106.5 c 128,-1,32
 151 122 151 122 151 135 c 0,33,34
 151 196 151 196 190.5 239.5 c 128,-1,35
 230 283 230 283 286 283 c 0,36,37
 347 283 347 283 390.5 240 c 128,-1,38
 434 197 434 197 434 135 c 256,39,40
 434 74 434 74 391 31 c 128,-1,41
 348 -12 348 -12 286 -12 c 0,42,43
 189 -12 189 -12 121 60 c 128,-1,44
 53 132 53 132 53 234 c 0,45,46
 53 346 53 346 132 425 c 128,-1,47
 211 504 211 504 323 504 c 0,48,49
 440 504 440 504 523 424.5 c 128,-1,50
 606 345 606 345 606 234 c 0,51,52
 606 185 606 185 593.5 138 c 128,-1,53
 581 91 581 91 557 49 c 1,54,-1
 827 49 l 1,55,-1
 827 49 l 1,13,-1
EndSplineSet
Validated: 5
EndChar

StartChar: u0BB6
Encoding: 2998 2998 84
Width: 1051
VWidth: 1023
GlyphClass: 2
Flags: W
AnchorPoint: "Anchor-0" 516 498 basechar 0
LayerCount: 2
Fore
SplineSet
691 443 m 1,0,-1
 691 128 l 2,1,2
 691 49 691 49 793 49 c 128,-1,3
 895 49 895 49 895 128 c 2,4,-1
 895 443 l 1,5,-1
 691 443 l 1,0,-1
361 492 m 1,6,-1
 959 492 l 1,7,-1
 959 128 l 2,8,9
 959 0 959 0 787 0 c 0,10,11
 627 0 627 0 627 128 c 2,12,-1
 627 443 l 1,13,-1
 424 443 l 1,14,-1
 424 155 l 2,15,16
 424 0 424 0 229 0 c 0,17,18
 94 0 94 0 93 125 c 2,19,-1
 93 492 l 1,20,-1
 157 492 l 1,21,-1
 157 138 l 2,22,23
 157 49 157 49 242 49 c 0,24,25
 361 48 361 48 361 152 c 2,26,-1
 361 492 l 1,6,-1
EndSplineSet
Validated: 33
EndChar

StartChar: u0BB7
Encoding: 2999 2999 85
Width: 1146
VWidth: 1023
GlyphClass: 2
Flags: W
AnchorPoint: "Anchor-0" 616 502 basechar 0
LayerCount: 2
Fore
SplineSet
203 135 m 1,0,1
 203 94 203 94 224.5 65.5 c 128,-1,2
 246 37 246 37 277 37 c 0,3,4
 313 37 313 37 338 66 c 128,-1,5
 363 95 363 95 363 135 c 0,6,7
 363 171 363 171 337.5 196 c 128,-1,8
 312 221 312 221 277 221 c 0,9,10
 246 221 246 221 224.5 196 c 128,-1,11
 203 171 203 171 203 135 c 1,12,-1
 203 135 l 1,0,1
719 344 m 1,13,14
 719 294 719 294 755.5 257.5 c 128,-1,15
 792 221 792 221 842 221 c 0,16,17
 852 221 852 221 861 223 c 128,-1,18
 870 225 870 225 879 227 c 1,19,-1
 879 369 l 2,20,21
 879 395 879 395 857.5 412.5 c 128,-1,22
 836 430 836 430 805 430 c 0,23,24
 769 430 769 430 744 405 c 128,-1,25
 719 380 719 380 719 344 c 1,26,-1
 719 344 l 1,13,14
940 49 m 1,27,-1
 1026 49 l 1,28,-1
 1026 240 l 1,29,30
 1009 219 1009 219 987 205 c 128,-1,31
 965 191 965 191 940 184 c 1,32,-1
 940 49 l 1,33,-1
 940 49 l 1,27,-1
805 492 m 1,34,35
 862 492 862 492 901 455.5 c 128,-1,36
 940 419 940 419 940 369 c 2,37,-1
 940 246 l 1,38,39
 973 258 973 258 998.5 273.5 c 128,-1,40
 1024 289 1024 289 1039 307 c 1,41,-1
 1088 307 l 1,42,-1
 1088 0 l 1,43,-1
 940 0 l 1,44,-1
 940 -295 l 1,45,-1
 879 -295 l 1,46,-1
 879 0 l 1,47,-1
 461 0 l 1,48,-1
 461 37 l 1,49,50
 491 73 491 73 506.5 127 c 128,-1,51
 522 181 522 181 522 246 c 0,52,53
 522 332 522 332 461 393.5 c 128,-1,54
 400 455 400 455 313 455 c 256,55,56
 227 455 227 455 165.5 386.5 c 128,-1,57
 104 318 104 318 104 221 c 0,58,59
 104 176 104 176 120 137 c 128,-1,60
 136 98 136 98 166 74 c 1,61,62
 160 91 160 91 157 106.5 c 128,-1,63
 154 122 154 122 154 135 c 0,64,65
 154 192 154 192 192 231 c 128,-1,66
 230 270 230 270 283 270 c 256,67,68
 336 270 336 270 374 231 c 128,-1,69
 412 192 412 192 412 135 c 0,70,71
 412 74 412 74 369 31 c 128,-1,72
 326 -12 326 -12 264 -12 c 0,73,74
 178 -12 178 -12 116.5 56 c 128,-1,75
 55 124 55 124 55 221 c 0,76,77
 55 338 55 338 131 421 c 128,-1,78
 207 504 207 504 313 504 c 0,79,80
 425 504 425 504 504.5 428.5 c 128,-1,81
 584 353 584 353 584 246 c 0,82,83
 584 191 584 191 571.5 141 c 128,-1,84
 559 91 559 91 535 49 c 1,85,-1
 879 49 l 1,86,-1
 879 172 l 1,87,88
 875 171 875 171 863.5 171.5 c 128,-1,89
 852 172 852 172 842 172 c 0,90,91
 766 172 766 172 712 222.5 c 128,-1,92
 658 273 658 273 658 344 c 0,93,94
 658 405 658 405 701 448.5 c 128,-1,95
 744 492 744 492 805 492 c 1,96,-1
 805 492 l 1,34,35
EndSplineSet
Validated: 5
EndChar

StartChar: u0BB8
Encoding: 3000 3000 86
Width: 1100
VWidth: 1023
GlyphClass: 2
Flags: W
AnchorPoint: "Anchor-0" 538 535 basechar 0
LayerCount: 2
Fore
SplineSet
215 135 m 1,0,1
 215 94 215 94 236.5 65.5 c 128,-1,2
 258 37 258 37 289 37 c 256,3,4
 320 37 320 37 341.5 66 c 128,-1,5
 363 95 363 95 363 135 c 256,6,7
 363 176 363 176 341.5 205 c 128,-1,8
 320 234 320 234 289 234 c 256,9,10
 258 234 258 234 236.5 205 c 128,-1,11
 215 176 215 176 215 135 c 1,12,-1
 215 135 l 1,0,1
55 221 m 1,13,14
 55 338 55 338 127 421 c 128,-1,15
 199 504 199 504 301 504 c 0,16,17
 369 504 369 504 423.5 477.5 c 128,-1,18
 478 451 478 451 504 406 c 1,19,20
 515 449 515 449 547.5 476.5 c 128,-1,21
 580 504 580 504 621 504 c 0,22,23
 671 504 671 504 707.5 464.5 c 128,-1,24
 744 425 744 425 744 369 c 2,25,-1
 744 135 l 2,26,27
 744 94 744 94 769 65.5 c 128,-1,28
 794 37 794 37 830 37 c 0,29,30
 891 37 891 37 934 98.5 c 128,-1,31
 977 160 977 160 977 246 c 0,32,33
 977 321 977 321 944 383.5 c 128,-1,34
 911 446 911 446 854 479 c 1,35,-1
 897 529 l 1,36,37
 962 491 962 491 1000.5 415 c 128,-1,38
 1039 339 1039 339 1039 246 c 0,39,40
 1039 139 1039 139 977.5 63.5 c 128,-1,41
 916 -12 916 -12 830 -12 c 0,42,43
 769 -12 769 -12 725.5 31 c 128,-1,44
 682 74 682 74 682 135 c 2,45,-1
 682 369 l 2,46,47
 682 402 682 402 664.5 425.5 c 128,-1,48
 647 449 647 449 621 449 c 0,49,50
 590 449 590 449 568.5 418 c 128,-1,51
 547 387 547 387 547 344 c 2,52,-1
 547 0 l 1,53,-1
 486 0 l 1,54,-1
 486 307 l 2,55,56
 486 366 486 366 431.5 407.5 c 128,-1,57
 377 449 377 449 301 449 c 0,58,59
 220 449 220 449 162 382.5 c 128,-1,60
 104 316 104 316 104 221 c 0,61,62
 104 167 104 167 124 124 c 128,-1,63
 144 81 144 81 178 61 c 1,64,65
 172 78 172 78 169 97 c 128,-1,66
 166 116 166 116 166 135 c 0,67,68
 166 196 166 196 202 239.5 c 128,-1,69
 238 283 238 283 289 283 c 256,70,71
 339 283 339 283 375.5 240 c 128,-1,72
 412 197 412 197 412 135 c 256,73,74
 412 74 412 74 372.5 31 c 128,-1,75
 333 -12 333 -12 277 -12 c 0,76,77
 185 -12 185 -12 120 56 c 128,-1,78
 55 124 55 124 55 221 c 1,79,-1
 55 221 l 1,13,14
EndSplineSet
Validated: 5
EndChar

StartChar: u0BB9
Encoding: 3001 3001 87
Width: 1255
VWidth: 1023
GlyphClass: 2
Flags: W
AnchorPoint: "Anchor-0" 608 509 basechar 0
LayerCount: 2
Fore
SplineSet
205 135 m 1,0,1
 205 94 205 94 230.5 65.5 c 128,-1,2
 256 37 256 37 291 37 c 256,3,4
 327 37 327 37 352 66 c 128,-1,5
 377 95 377 95 377 135 c 256,6,7
 377 176 377 176 352 205 c 128,-1,8
 327 234 327 234 291 234 c 256,9,10
 255 234 255 234 230 205 c 128,-1,11
 205 176 205 176 205 135 c 1,12,-1
 205 135 l 1,0,1
881 455 m 1,13,14
 901 478 901 478 933 491 c 128,-1,15
 965 504 965 504 1004 504 c 0,16,17
 1080 504 1080 504 1134.5 428.5 c 128,-1,18
 1189 353 1189 353 1189 246 c 0,19,20
 1189 94 1189 94 1109.5 -14.5 c 128,-1,21
 1030 -123 1030 -123 918 -123 c 2,22,-1
 205 -123 l 2,23,24
 174 -123 174 -123 153 -144.5 c 128,-1,25
 132 -166 132 -166 132 -197 c 0,26,27
 132 -207 132 -207 138 -222 c 128,-1,28
 144 -237 144 -237 156 -258 c 1,29,-1
 107 -295 l 1,30,31
 89 -274 89 -274 79.5 -248.5 c 128,-1,32
 70 -223 70 -223 70 -197 c 0,33,34
 70 -147 70 -147 109.5 -110.5 c 128,-1,35
 149 -74 149 -74 205 -74 c 2,36,-1
 918 -74 l 2,37,38
 1004 -74 1004 -74 1065.5 19.5 c 128,-1,39
 1127 113 1127 113 1127 246 c 0,40,41
 1127 332 1127 332 1091 393.5 c 128,-1,42
 1055 455 1055 455 1004 455 c 0,43,44
 963 455 963 455 934.5 433.5 c 128,-1,45
 906 412 906 412 906 381 c 2,46,-1
 906 0 l 1,47,-1
 845 0 l 1,48,-1
 845 381 l 2,49,50
 845 412 845 412 827 433.5 c 128,-1,51
 809 455 809 455 783 455 c 256,52,53
 757 455 757 455 739.5 433.5 c 128,-1,54
 722 412 722 412 722 381 c 2,55,-1
 722 0 l 1,56,-1
 451 0 l 1,57,-1
 451 37 l 1,58,59
 481 73 481 73 497 117 c 128,-1,60
 513 161 513 161 513 209 c 0,61,62
 513 321 513 321 459.5 388 c 128,-1,63
 406 455 406 455 316 455 c 0,64,65
 224 455 224 455 168.5 388 c 128,-1,66
 113 321 113 321 113 209 c 0,67,68
 113 166 113 166 131 127.5 c 128,-1,69
 149 89 149 89 181 61 c 1,70,71
 169 82 169 82 162.5 101 c 128,-1,72
 156 120 156 120 156 135 c 0,73,74
 156 196 156 196 195.5 239.5 c 128,-1,75
 235 283 235 283 291 283 c 256,76,77
 348 283 348 283 387.5 240 c 128,-1,78
 427 197 427 197 427 135 c 256,79,80
 427 74 427 74 380 31 c 128,-1,81
 333 -12 333 -12 267 -12 c 0,82,83
 181 -12 181 -12 119.5 52.5 c 128,-1,84
 58 117 58 117 58 209 c 0,85,86
 58 343 58 343 128.5 423.5 c 128,-1,87
 199 504 199 504 316 504 c 256,88,89
 433 504 433 504 503.5 423.5 c 128,-1,90
 574 343 574 343 574 209 c 0,91,92
 574 172 574 172 561.5 131.5 c 128,-1,93
 549 91 549 91 525 49 c 1,94,-1
 660 49 l 1,95,-1
 660 381 l 2,96,97
 660 431 660 431 696.5 467.5 c 128,-1,98
 733 504 733 504 783 504 c 0,99,100
 810 504 810 504 836 491 c 128,-1,101
 862 478 862 478 881 455 c 1,102,-1
 881 455 l 1,13,14
EndSplineSet
Validated: 5
EndChar

StartChar: u0BBE
Encoding: 3006 3006 88
Width: 535
VWidth: 1023
GlyphClass: 2
Flags: W
LayerCount: 2
Fore
SplineSet
92 492 m 1,0,-1
 529 492 l 1,1,-1
 529 443 l 1,2,-1
 387 443 l 1,3,-1
 387 0 l 1,4,-1
 326 0 l 1,5,-1
 326 443 l 1,6,-1
 154 443 l 1,7,-1
 154 0 l 1,8,-1
 92 0 l 1,9,-1
 92 492 l 1,10,-1
 92 492 l 1,0,-1
EndSplineSet
Validated: 5
EndChar

StartChar: u0BBF
Encoding: 3007 3007 89
Width: 663
VWidth: 1023
GlyphClass: 2
Flags: W
LayerCount: 2
Fore
SplineSet
92 602 m 1,0,1
 92 688 92 688 164 749.5 c 128,-1,2
 236 811 236 811 338 811 c 0,3,4
 435 811 435 811 503.5 753.5 c 128,-1,5
 572 696 572 696 572 615 c 2,6,-1
 572 0 l 1,7,-1
 510 0 l 1,8,-1
 510 615 l 2,9,10
 510 676 510 676 459.5 719 c 128,-1,11
 409 762 409 762 338 762 c 0,12,13
 262 762 262 762 208 715.5 c 128,-1,14
 154 669 154 669 154 602 c 0,15,16
 154 576 154 576 166.5 548 c 128,-1,17
 179 520 179 520 203 492 c 1,18,-1
 129 492 l 1,19,20
 111 524 111 524 101.5 551.5 c 128,-1,21
 92 579 92 579 92 602 c 1,22,-1
 92 602 l 1,0,1
EndSplineSet
Validated: 5
EndChar

StartChar: u0BC0
Encoding: 3008 3008 90
Width: 553
VWidth: 1023
GlyphClass: 2
Flags: W
LayerCount: 2
Fore
SplineSet
92 676 m 1,0,1
 92 747 92 747 150 797.5 c 128,-1,2
 208 848 208 848 289 848 c 0,3,4
 360 848 360 848 410.5 809 c 128,-1,5
 461 770 461 770 461 713 c 0,6,7
 461 663 461 663 424.5 626.5 c 128,-1,8
 388 590 388 590 338 590 c 256,9,10
 288 590 288 590 251.5 626.5 c 128,-1,11
 215 663 215 663 215 713 c 0,12,13
 215 740 215 740 228 763 c 128,-1,14
 241 786 241 786 264 799 c 1,15,16
 216 790 216 790 185 755 c 128,-1,17
 154 720 154 720 154 676 c 0,18,19
 154 627 154 627 190 577 c 128,-1,20
 226 527 226 527 289 492 c 1,21,-1
 203 492 l 1,22,23
 151 522 151 522 121.5 571.5 c 128,-1,24
 92 621 92 621 92 676 c 1,25,-1
 92 676 l 1,0,1
277 713 m 1,26,27
 277 682 277 682 294.5 660.5 c 128,-1,28
 312 639 312 639 338 639 c 256,29,30
 364 639 364 639 382 660.5 c 128,-1,31
 400 682 400 682 400 713 c 256,32,33
 400 744 400 744 382 765.5 c 128,-1,34
 364 787 364 787 338 787 c 256,35,36
 312 787 312 787 294.5 765.5 c 128,-1,37
 277 744 277 744 277 713 c 1,38,-1
 277 713 l 1,26,27
EndSplineSet
Validated: 5
EndChar

StartChar: u0BC1
Encoding: 3009 3009 91
Width: 532
VWidth: 1023
GlyphClass: 4
Flags: W
LayerCount: 2
Fore
SplineSet
-208 443 m 1,0,-1
 -208 492 l 1,1,-1
 333 492 l 2,2,3
 399 492 399 492 446 445 c 128,-1,4
 493 398 493 398 493 332 c 256,5,6
 493 266 493 266 446.5 219 c 128,-1,7
 400 172 400 172 333 172 c 256,8,9
 267 172 267 172 220 219 c 128,-1,10
 173 266 173 266 173 332 c 2,11,-1
 173 443 l 1,12,-1
 -208 443 l 1,13,-1
 -208 443 l 1,0,-1
235 332 m 1,14,15
 235 287 235 287 264 254 c 128,-1,16
 293 221 293 221 333 221 c 256,17,18
 374 221 374 221 402.5 253.5 c 128,-1,19
 431 286 431 286 431 332 c 256,20,21
 431 377 431 377 402.5 410 c 128,-1,22
 374 443 374 443 333 443 c 2,23,-1
 235 443 l 1,24,-1
 235 332 l 1,25,-1
 235 332 l 1,14,15
EndSplineSet
Validated: 5
EndChar

StartChar: u0BC2
Encoding: 3010 3010 92
Width: 776
VWidth: 1023
GlyphClass: 4
Flags: W
LayerCount: 2
Fore
SplineSet
-208 492 m 1,0,-1
 124 492 l 1,1,-1
 124 541 l 2,2,3
 124 663 124 663 210.5 749.5 c 128,-1,4
 297 836 297 836 419 836 c 0,5,6
 552 836 552 836 645.5 724 c 128,-1,7
 739 612 739 612 739 455 c 0,8,9
 739 287 739 287 620.5 168 c 128,-1,10
 502 49 502 49 333 49 c 0,11,12
 248 49 248 49 174 81 c 128,-1,13
 100 113 100 113 50 172 c 1,14,-1
 87 209 l 1,15,16
 117 157 117 157 182.5 127.5 c 128,-1,17
 248 98 248 98 333 98 c 0,18,19
 476 98 476 98 576.5 202.5 c 128,-1,20
 677 307 677 307 677 455 c 0,21,22
 677 593 677 593 601.5 690 c 128,-1,23
 526 787 526 787 419 787 c 0,24,25
 322 787 322 787 254 715 c 128,-1,26
 186 643 186 643 186 541 c 2,27,-1
 186 492 l 1,28,-1
 345 492 l 2,29,30
 402 492 402 492 441.5 455.5 c 128,-1,31
 481 419 481 419 481 369 c 256,32,33
 481 319 481 319 441.5 282.5 c 128,-1,34
 402 246 402 246 345 246 c 0,35,36
 266 246 266 246 205.5 302 c 128,-1,37
 145 358 145 358 130 443 c 1,38,-1
 -208 443 l 1,39,-1
 -208 492 l 1,40,-1
 -208 492 l 1,0,-1
192 443 m 1,41,42
 203 379 203 379 246.5 337 c 128,-1,43
 290 295 290 295 345 295 c 0,44,45
 376 295 376 295 397.5 316.5 c 128,-1,46
 419 338 419 338 419 369 c 256,47,48
 419 400 419 400 397.5 421.5 c 128,-1,49
 376 443 376 443 345 443 c 2,50,-1
 192 443 l 1,51,-1
 192 443 l 1,41,42
EndSplineSet
Validated: 5
EndChar

StartChar: u0BC6
Encoding: 3014 3014 93
Width: 797
VWidth: 1023
GlyphClass: 2
Flags: W
LayerCount: 2
Fore
SplineSet
325 154 m 1,0,1
 325 106 325 106 353.5 71.5 c 128,-1,2
 382 37 382 37 423 37 c 256,3,4
 464 37 464 37 492.5 71.5 c 128,-1,5
 521 106 521 106 521 154 c 256,6,7
 521 202 521 202 492 236 c 128,-1,8
 463 270 463 270 423 270 c 256,9,10
 382 270 382 270 353.5 236 c 128,-1,11
 325 202 325 202 325 154 c 1,12,-1
 325 154 l 1,0,1
54 381 m 1,13,14
 54 559 54 559 166 685 c 128,-1,15
 278 811 278 811 435 811 c 0,16,17
 547 811 547 811 626.5 735.5 c 128,-1,18
 706 660 706 660 706 553 c 2,19,-1
 706 0 l 1,20,-1
 644 0 l 1,21,-1
 644 553 l 2,22,23
 644 639 644 639 582.5 700.5 c 128,-1,24
 521 762 521 762 435 762 c 0,25,26
 300 762 300 762 204.5 650 c 128,-1,27
 109 538 109 538 109 381 c 0,28,29
 109 254 109 254 165 162 c 128,-1,30
 221 70 221 70 306 55 c 1,31,32
 288 76 288 76 278.5 103 c 128,-1,33
 269 130 269 130 269 160 c 0,34,35
 269 226 269 226 314 273 c 128,-1,36
 359 320 359 320 423 320 c 256,37,38
 487 320 487 320 532 273 c 128,-1,39
 577 226 577 226 577 160 c 0,40,41
 577 75 577 75 530 31.5 c 128,-1,42
 483 -12 483 -12 392 -12 c 0,43,44
 252 -12 252 -12 153 103 c 128,-1,45
 54 218 54 218 54 381 c 1,46,-1
 54 381 l 1,13,14
EndSplineSet
Validated: 5
EndChar

StartChar: u0BC7
Encoding: 3015 3015 94
Width: 727
VWidth: 1023
GlyphClass: 2
Flags: W
LayerCount: 2
Fore
SplineSet
50 406 m 1,0,1
 50 569 50 569 158.5 684 c 128,-1,2
 267 799 267 799 419 799 c 0,3,4
 531 799 531 799 610.5 745 c 128,-1,5
 690 691 690 691 690 615 c 0,6,7
 690 558 690 558 650.5 518.5 c 128,-1,8
 611 479 611 479 554 479 c 256,9,10
 497 479 497 479 458 518.5 c 128,-1,11
 419 558 419 558 419 615 c 0,12,13
 419 659 419 659 446 696.5 c 128,-1,14
 473 734 473 734 518 750 c 1,15,16
 501 756 501 756 476 759 c 128,-1,17
 451 762 451 762 419 762 c 0,18,19
 291 762 291 762 201.5 657.5 c 128,-1,20
 112 553 112 553 112 406 c 0,21,22
 112 254 112 254 201.5 145.5 c 128,-1,23
 291 37 291 37 419 37 c 0,24,25
 451 37 451 37 475.5 40 c 128,-1,26
 500 43 500 43 518 49 c 1,27,28
 474 65 474 65 446.5 102.5 c 128,-1,29
 419 140 419 140 419 184 c 0,30,31
 419 241 419 241 458.5 280.5 c 128,-1,32
 498 320 498 320 554 320 c 256,33,34
 611 320 611 320 650.5 280.5 c 128,-1,35
 690 241 690 241 690 184 c 0,36,37
 690 103 690 103 610.5 45.5 c 128,-1,38
 531 -12 531 -12 419 -12 c 0,39,40
 267 -12 267 -12 158.5 110 c 128,-1,41
 50 232 50 232 50 406 c 1,42,-1
 50 406 l 1,0,1
468 615 m 1,43,44
 468 579 468 579 493.5 554 c 128,-1,45
 519 529 519 529 554 529 c 256,46,47
 590 529 590 529 615 554 c 128,-1,48
 640 579 640 579 640 615 c 0,49,50
 640 656 640 656 615 684.5 c 128,-1,51
 590 713 590 713 554 713 c 256,52,53
 518 713 518 713 493 684 c 128,-1,54
 468 655 468 655 468 615 c 1,55,-1
 468 615 l 1,43,44
468 184 m 1,56,57
 468 143 468 143 493.5 114.5 c 128,-1,58
 519 86 519 86 554 86 c 256,59,60
 590 86 590 86 615 115 c 128,-1,61
 640 144 640 144 640 184 c 0,62,63
 640 220 640 220 615 245 c 128,-1,64
 590 270 590 270 554 270 c 256,65,66
 518 270 518 270 493 245 c 128,-1,67
 468 220 468 220 468 184 c 1,68,-1
 468 184 l 1,56,57
EndSplineSet
Validated: 5
EndChar

StartChar: u0BC8
Encoding: 3016 3016 95
Width: 969
VWidth: 1023
GlyphClass: 2
Flags: W
LayerCount: 2
Fore
SplineSet
188 135 m 1,0,1
 188 94 188 94 209.5 65.5 c 128,-1,2
 231 37 231 37 262 37 c 0,3,4
 298 37 298 37 323 66 c 128,-1,5
 348 95 348 95 348 135 c 0,6,7
 348 171 348 171 326.5 196 c 128,-1,8
 305 221 305 221 274 221 c 0,9,10
 238 221 238 221 213 196 c 128,-1,11
 188 171 188 171 188 135 c 1,12,-1
 188 135 l 1,0,1
502 197 m 1,13,14
 502 131 502 131 518 84 c 128,-1,15
 534 37 534 37 557 37 c 256,16,17
 580 37 580 37 596 83.5 c 128,-1,18
 612 130 612 130 612 197 c 0,19,20
 612 242 612 242 598 283.5 c 128,-1,21
 584 325 584 325 557 356 c 1,22,23
 530 309 530 309 516 269 c 128,-1,24
 502 229 502 229 502 197 c 1,25,-1
 502 197 l 1,13,14
53 197 m 1,26,27
 53 325 53 325 142.5 414.5 c 128,-1,28
 232 504 232 504 360 504 c 0,29,30
 418 504 418 504 466.5 485 c 128,-1,31
 515 466 515 466 545 430 c 1,32,33
 575 466 575 466 616.5 485 c 128,-1,34
 658 504 658 504 704 504 c 0,35,36
 790 504 790 504 851.5 428.5 c 128,-1,37
 913 353 913 353 913 246 c 0,38,39
 913 177 913 177 877.5 109.5 c 128,-1,40
 842 42 842 42 778 -12 c 1,41,-1
 741 37 l 1,42,43
 793 67 793 67 822.5 122.5 c 128,-1,44
 852 178 852 178 852 246 c 0,45,46
 852 332 852 332 809 393.5 c 128,-1,47
 766 455 766 455 704 455 c 0,48,49
 679 455 679 455 648 439 c 128,-1,50
 617 423 617 423 581 393 c 1,51,52
 622 359 622 359 645 307.5 c 128,-1,53
 668 256 668 256 668 197 c 0,54,55
 668 111 668 111 635 49.5 c 128,-1,56
 602 -12 602 -12 557 -12 c 256,57,58
 512 -12 512 -12 479 49.5 c 128,-1,59
 446 111 446 111 446 197 c 0,60,61
 446 250 446 250 465 300 c 128,-1,62
 484 350 484 350 520 393 c 1,63,64
 484 423 484 423 443 439 c 128,-1,65
 402 455 402 455 360 455 c 0,66,67
 253 455 253 455 177.5 379.5 c 128,-1,68
 102 304 102 304 102 197 c 0,69,70
 102 163 102 163 118 130.5 c 128,-1,71
 134 98 134 98 163 74 c 1,72,73
 154 90 154 90 149.5 105 c 128,-1,74
 145 120 145 120 145 135 c 0,75,76
 145 192 145 192 183 231 c 128,-1,77
 221 270 221 270 274 270 c 0,78,79
 324 270 324 270 360.5 231 c 128,-1,80
 397 192 397 192 397 135 c 0,81,82
 397 74 397 74 357.5 31 c 128,-1,83
 318 -12 318 -12 262 -12 c 0,84,85
 176 -12 176 -12 114.5 49.5 c 128,-1,86
 53 111 53 111 53 197 c 1,87,-1
 53 197 l 1,26,27
EndSplineSet
Validated: 5
EndChar

StartChar: u0BCA
Encoding: 3018 3018 96
Width: 1284
VWidth: 1023
GlyphClass: 2
Flags: W
LayerCount: 2
Fore
SplineSet
325 154 m 1,0,1
 325 106 325 106 353.5 71.5 c 128,-1,2
 382 37 382 37 423 37 c 256,3,4
 464 37 464 37 492.5 71.5 c 128,-1,5
 521 106 521 106 521 154 c 256,6,7
 521 202 521 202 492 236 c 128,-1,8
 463 270 463 270 423 270 c 256,9,10
 382 270 382 270 353.5 236 c 128,-1,11
 325 202 325 202 325 154 c 1,12,-1
 325 154 l 1,0,1
54 381 m 1,13,14
 54 559 54 559 166 685 c 128,-1,15
 278 811 278 811 435 811 c 0,16,17
 547 811 547 811 626.5 735.5 c 128,-1,18
 706 660 706 660 706 553 c 2,19,-1
 706 0 l 1,20,-1
 644 0 l 1,21,-1
 644 553 l 2,22,23
 644 639 644 639 582.5 700.5 c 128,-1,24
 521 762 521 762 435 762 c 0,25,26
 300 762 300 762 204.5 650 c 128,-1,27
 109 538 109 538 109 381 c 0,28,29
 109 254 109 254 165 162 c 128,-1,30
 221 70 221 70 306 55 c 1,31,32
 288 76 288 76 278.5 103 c 128,-1,33
 269 130 269 130 269 160 c 0,34,35
 269 226 269 226 314 273 c 128,-1,36
 359 320 359 320 423 320 c 256,37,38
 487 320 487 320 532 273 c 128,-1,39
 577 226 577 226 577 160 c 0,40,41
 577 75 577 75 530 31.5 c 128,-1,42
 483 -12 483 -12 392 -12 c 0,43,44
 252 -12 252 -12 153 103 c 128,-1,45
 54 218 54 218 54 381 c 1,46,-1
 54 381 l 1,13,14
841 492 m 1,47,-1
 1277 492 l 1,48,-1
 1277 443 l 1,49,-1
 1136 443 l 1,50,-1
 1136 0 l 1,51,-1
 1074 0 l 1,52,-1
 1074 443 l 1,53,-1
 902 443 l 1,54,-1
 902 0 l 1,55,-1
 841 0 l 1,56,-1
 841 492 l 1,57,-1
 841 492 l 1,47,-1
EndSplineSet
Validated: 5
EndChar

StartChar: u0BCB
Encoding: 3019 3019 97
Width: 1219
VWidth: 1023
GlyphClass: 2
Flags: W
LayerCount: 2
Fore
SplineSet
50 406 m 1,0,1
 50 569 50 569 158.5 684 c 128,-1,2
 267 799 267 799 419 799 c 0,3,4
 531 799 531 799 610.5 745 c 128,-1,5
 690 691 690 691 690 615 c 0,6,7
 690 558 690 558 650.5 518.5 c 128,-1,8
 611 479 611 479 554 479 c 256,9,10
 497 479 497 479 458 518.5 c 128,-1,11
 419 558 419 558 419 615 c 0,12,13
 419 659 419 659 446 696.5 c 128,-1,14
 473 734 473 734 518 750 c 1,15,16
 501 756 501 756 476 759 c 128,-1,17
 451 762 451 762 419 762 c 0,18,19
 291 762 291 762 201.5 657.5 c 128,-1,20
 112 553 112 553 112 406 c 0,21,22
 112 254 112 254 201.5 145.5 c 128,-1,23
 291 37 291 37 419 37 c 0,24,25
 451 37 451 37 475.5 40 c 128,-1,26
 500 43 500 43 518 49 c 1,27,28
 474 65 474 65 446.5 102.5 c 128,-1,29
 419 140 419 140 419 184 c 0,30,31
 419 241 419 241 458.5 280.5 c 128,-1,32
 498 320 498 320 554 320 c 256,33,34
 611 320 611 320 650.5 280.5 c 128,-1,35
 690 241 690 241 690 184 c 0,36,37
 690 103 690 103 610.5 45.5 c 128,-1,38
 531 -12 531 -12 419 -12 c 0,39,40
 267 -12 267 -12 158.5 110 c 128,-1,41
 50 232 50 232 50 406 c 1,42,-1
 50 406 l 1,0,1
468 615 m 1,43,44
 468 579 468 579 493.5 554 c 128,-1,45
 519 529 519 529 554 529 c 256,46,47
 590 529 590 529 615 554 c 128,-1,48
 640 579 640 579 640 615 c 0,49,50
 640 656 640 656 615 684.5 c 128,-1,51
 590 713 590 713 554 713 c 256,52,53
 518 713 518 713 493 684 c 128,-1,54
 468 655 468 655 468 615 c 1,55,-1
 468 615 l 1,43,44
468 184 m 1,56,57
 468 143 468 143 493.5 114.5 c 128,-1,58
 519 86 519 86 554 86 c 256,59,60
 590 86 590 86 615 115 c 128,-1,61
 640 144 640 144 640 184 c 0,62,63
 640 220 640 220 615 245 c 128,-1,64
 590 270 590 270 554 270 c 256,65,66
 518 270 518 270 493 245 c 128,-1,67
 468 220 468 220 468 184 c 1,68,-1
 468 184 l 1,56,57
776 492 m 1,69,-1
 1212 492 l 1,70,-1
 1212 443 l 1,71,-1
 1071 443 l 1,72,-1
 1071 0 l 1,73,-1
 1009 0 l 1,74,-1
 1009 443 l 1,75,-1
 837 443 l 1,76,-1
 837 0 l 1,77,-1
 776 0 l 1,78,-1
 776 492 l 1,79,-1
 776 492 l 1,69,-1
EndSplineSet
Validated: 5
EndChar

StartChar: u0BCC
Encoding: 3020 3020 98
Width: 1677
VWidth: 1023
GlyphClass: 2
Flags: W
LayerCount: 2
Fore
SplineSet
325 154 m 1,0,1
 325 106 325 106 353.5 71.5 c 128,-1,2
 382 37 382 37 423 37 c 256,3,4
 464 37 464 37 492.5 71.5 c 128,-1,5
 521 106 521 106 521 154 c 256,6,7
 521 202 521 202 492 236 c 128,-1,8
 463 270 463 270 423 270 c 256,9,10
 382 270 382 270 353.5 236 c 128,-1,11
 325 202 325 202 325 154 c 1,12,-1
 325 154 l 1,0,1
54 381 m 1,13,14
 54 559 54 559 166 685 c 128,-1,15
 278 811 278 811 435 811 c 0,16,17
 547 811 547 811 626.5 735.5 c 128,-1,18
 706 660 706 660 706 553 c 2,19,-1
 706 0 l 1,20,-1
 644 0 l 1,21,-1
 644 553 l 2,22,23
 644 639 644 639 582.5 700.5 c 128,-1,24
 521 762 521 762 435 762 c 0,25,26
 300 762 300 762 204.5 650 c 128,-1,27
 109 538 109 538 109 381 c 0,28,29
 109 254 109 254 165 162 c 128,-1,30
 221 70 221 70 306 55 c 1,31,32
 288 76 288 76 278.5 103 c 128,-1,33
 269 130 269 130 269 160 c 0,34,35
 269 226 269 226 314 273 c 128,-1,36
 359 320 359 320 423 320 c 256,37,38
 487 320 487 320 532 273 c 128,-1,39
 577 226 577 226 577 160 c 0,40,41
 577 75 577 75 530 31.5 c 128,-1,42
 483 -12 483 -12 392 -12 c 0,43,44
 252 -12 252 -12 153 103 c 128,-1,45
 54 218 54 218 54 381 c 1,46,-1
 54 381 l 1,13,14
958 148 m 1,47,48
 958 107 958 107 979.5 78 c 128,-1,49
 1001 49 1001 49 1031 49 c 256,50,51
 1062 49 1062 49 1083.5 78 c 128,-1,52
 1105 107 1105 107 1105 148 c 0,53,54
 1105 184 1105 184 1083.5 209 c 128,-1,55
 1062 234 1062 234 1031 234 c 256,56,57
 1000 234 1000 234 979 208.5 c 128,-1,58
 958 183 958 183 958 148 c 1,59,-1
 958 148 l 1,47,48
1240 492 m 1,60,-1
 1671 492 l 1,61,-1
 1671 443 l 1,62,-1
 1535 443 l 1,63,-1
 1535 0 l 1,64,-1
 1474 0 l 1,65,-1
 1474 443 l 1,66,-1
 1290 443 l 1,67,-1
 1290 0 l 1,68,-1
 1228 0 l 1,69,-1
 1228 246 l 2,70,71
 1228 332 1228 332 1174 393.5 c 128,-1,72
 1120 455 1120 455 1044 455 c 256,73,74
 968 455 968 455 913.5 390.5 c 128,-1,75
 859 326 859 326 859 234 c 0,76,77
 859 187 859 187 878 145 c 128,-1,78
 897 103 897 103 933 74 c 1,79,80
 921 95 921 95 914.5 114 c 128,-1,81
 908 133 908 133 908 148 c 0,82,83
 908 205 908 205 944.5 244 c 128,-1,84
 981 283 981 283 1031 283 c 256,85,86
 1081 283 1081 283 1117.5 243.5 c 128,-1,87
 1154 204 1154 204 1154 148 c 0,88,89
 1154 82 1154 82 1111 35 c 128,-1,90
 1068 -12 1068 -12 1007 -12 c 0,91,92
 923 -12 923 -12 863.5 60 c 128,-1,93
 804 132 804 132 804 234 c 0,94,95
 804 346 804 346 874 425 c 128,-1,96
 944 504 944 504 1044 504 c 0,97,98
 1109 504 1109 504 1162 477.5 c 128,-1,99
 1215 451 1215 451 1240 406 c 1,100,-1
 1240 492 l 1,101,-1
 1240 492 l 1,60,-1
EndSplineSet
Validated: 5
EndChar

StartChar: u0BCD
Encoding: 3021 3021 99
Width: 125
VWidth: 1023
GlyphClass: 2
Flags: W
LayerCount: 2
Fore
SplineSet
-304 688 m 1,0,1
 -304 714 -304 714 -286 732 c 128,-1,2
 -268 750 -268 750 -242 750 c 256,3,4
 -216 750 -216 750 -198.5 732 c 128,-1,5
 -181 714 -181 714 -181 688 c 256,6,7
 -181 662 -181 662 -198.5 644.5 c 128,-1,8
 -216 627 -216 627 -242 627 c 256,9,10
 -268 627 -268 627 -286 645 c 128,-1,11
 -304 663 -304 663 -304 688 c 1,12,-1
 -304 688 l 1,0,1
EndSplineSet
Validated: 5
EndChar

StartChar: u0BD7
Encoding: 3031 3031 100
Width: 924
VWidth: 1023
GlyphClass: 2
Flags: W
LayerCount: 2
Fore
SplineSet
204 148 m 1,0,1
 204 107 204 107 225.5 78 c 128,-1,2
 247 49 247 49 278 49 c 256,3,4
 309 49 309 49 330.5 78 c 128,-1,5
 352 107 352 107 352 148 c 0,6,7
 352 184 352 184 330.5 209 c 128,-1,8
 309 234 309 234 278 234 c 256,9,10
 247 234 247 234 225.5 208.5 c 128,-1,11
 204 183 204 183 204 148 c 1,12,-1
 204 148 l 1,0,1
487 492 m 1,13,-1
 917 492 l 1,14,-1
 917 443 l 1,15,-1
 782 443 l 1,16,-1
 782 0 l 1,17,-1
 720 0 l 1,18,-1
 720 443 l 1,19,-1
 536 443 l 1,20,-1
 536 0 l 1,21,-1
 475 0 l 1,22,-1
 475 246 l 2,23,24
 475 332 475 332 420.5 393.5 c 128,-1,25
 366 455 366 455 290 455 c 256,26,27
 214 455 214 455 160 390.5 c 128,-1,28
 106 326 106 326 106 234 c 0,29,30
 106 187 106 187 125 145 c 128,-1,31
 144 103 144 103 179 74 c 1,32,33
 167 95 167 95 161 114 c 128,-1,34
 155 133 155 133 155 148 c 0,35,36
 155 205 155 205 191 244 c 128,-1,37
 227 283 227 283 278 283 c 256,38,39
 328 283 328 283 364.5 243.5 c 128,-1,40
 401 204 401 204 401 148 c 0,41,42
 401 82 401 82 358 35 c 128,-1,43
 315 -12 315 -12 253 -12 c 0,44,45
 172 -12 172 -12 114.5 60 c 128,-1,46
 57 132 57 132 57 234 c 0,47,48
 57 346 57 346 125 425 c 128,-1,49
 193 504 193 504 290 504 c 0,50,51
 355 504 355 504 408 477.5 c 128,-1,52
 461 451 461 451 487 406 c 1,53,-1
 487 492 l 1,54,-1
 487 492 l 1,13,-1
EndSplineSet
Validated: 5
EndChar

StartChar: u0BE7
Encoding: 3047 3047 101
Width: 700
VWidth: 1023
GlyphClass: 2
Flags: W
HStem: -12 49<180.577 327.607 467.344 554.962> 221 49<141.049 184 246 369 430 553.482> 443 49<246 369 430 565>
VStem: 61 62<92.4127 205.402> 184 62<270 443> 369 61<77.2617 221 270 443> 578 61<59.818 195.779>
LayerCount: 2
Fore
SplineSet
246 270 m 1,0,-1
 369 270 l 1,1,-1
 369 443 l 1,2,-1
 246 443 l 1,3,-1
 246 270 l 1,0,-1
123 160 m 1,4,5
 123 110 123 110 162.5 73.5 c 128,-1,6
 202 37 202 37 258 37 c 0,7,8
 303 37 303 37 336 66 c 128,-1,9
 369 95 369 95 369 135 c 2,10,-1
 369 221 l 1,11,-1
 184 221 l 2,12,13
 158 221 158 221 140.5 203.5 c 128,-1,14
 123 186 123 186 123 160 c 1,4,5
184 492 m 1,15,-1
 565 492 l 1,16,-1
 565 443 l 1,17,-1
 430 443 l 1,18,-1
 430 270 l 1,19,-1
 504 270 l 2,20,21
 561 270 561 270 600 231 c 128,-1,22
 639 192 639 192 639 135 c 0,23,24
 639 74 639 74 603 31 c 128,-1,25
 567 -12 567 -12 516 -12 c 0,26,27
 502 -12 502 -12 487 -9 c 128,-1,28
 472 -6 472 -6 455 0 c 1,29,-1
 467 49 l 1,30,31
 478 43 478 43 490.5 40 c 128,-1,32
 503 37 503 37 516 37 c 0,33,34
 542 37 542 37 560 66 c 128,-1,35
 578 95 578 95 578 135 c 0,36,37
 578 171 578 171 556.5 196 c 128,-1,38
 535 221 535 221 504 221 c 2,39,-1
 430 221 l 1,40,-1
 430 135 l 2,41,42
 430 74 430 74 379.5 31 c 128,-1,43
 329 -12 329 -12 258 -12 c 0,44,45
 177 -12 177 -12 119 38.5 c 128,-1,46
 61 89 61 89 61 160 c 0,47,48
 61 205 61 205 97.5 237.5 c 128,-1,49
 134 270 134 270 184 270 c 1,50,-1
 184 492 l 1,15,-1
EndSplineSet
Validated: 1
EndChar

StartChar: u0BE8
Encoding: 3048 3048 102
Width: 725
VWidth: 1023
GlyphClass: 2
Flags: W
HStem: 0 49<137.439 664> 123 49<137.439 386.875> 234 49<126.514 217.457> 455 49<197.093 367.211>
VStem: 61 62<57.5059 114.494> 61 50<298.727 398.406> 234 49<299.19 398.33> 455 61<235.762 377.929>
LayerCount: 2
Fore
SplineSet
111 344 m 1,0,1
 111 318 111 318 128.5 300.5 c 128,-1,2
 146 283 146 283 172 283 c 256,3,4
 198 283 198 283 216 300.5 c 128,-1,5
 234 318 234 318 234 344 c 0,6,7
 234 375 234 375 216 396.5 c 128,-1,8
 198 418 198 418 172 418 c 256,9,10
 146 418 146 418 128.5 396.5 c 128,-1,11
 111 375 111 375 111 344 c 1,0,1
61 356 m 1,12,13
 61 417 61 417 122.5 460.5 c 128,-1,14
 184 504 184 504 270 504 c 0,15,16
 372 504 372 504 444 446 c 128,-1,17
 516 388 516 388 516 307 c 0,18,19
 516 231 516 231 454.5 177 c 128,-1,20
 393 123 393 123 307 123 c 2,21,-1
 172 123 l 2,22,23
 151 123 151 123 137 112 c 128,-1,24
 123 101 123 101 123 86 c 256,25,26
 123 71 123 71 137 60 c 128,-1,27
 151 49 151 49 172 49 c 2,28,-1
 664 49 l 1,29,-1
 664 0 l 1,30,-1
 172 0 l 2,31,32
 127 0 127 0 94 25 c 128,-1,33
 61 50 61 50 61 86 c 256,34,35
 61 122 61 122 94 147 c 128,-1,36
 127 172 127 172 172 172 c 2,37,-1
 307 172 l 2,38,39
 368 172 368 172 411.5 211.5 c 128,-1,40
 455 251 455 251 455 307 c 0,41,42
 455 368 455 368 401 411.5 c 128,-1,43
 347 455 347 455 270 455 c 2,44,-1
 197 455 l 1,45,46
 236 441 236 441 259.5 410.5 c 128,-1,47
 283 380 283 380 283 344 c 0,48,49
 283 299 283 299 250.5 266.5 c 128,-1,50
 218 234 218 234 172 234 c 256,51,52
 127 234 127 234 94 270 c 128,-1,53
 61 306 61 306 61 356 c 1,12,13
EndSplineSet
Validated: 1
EndChar

StartChar: u0BE9
Encoding: 3049 3049 103
Width: 780
VWidth: 1023
GlyphClass: 2
Flags: W
HStem: 0 49<270 471.959 529 719> 246 55<360.443 484.197> 443 49<123 270 332 504>
VStem: 61 62<0 443> 270 62<98 218.615 264 443> 516 62<93.2972 214.539>
LayerCount: 2
Fore
SplineSet
61 0 m 1,0,-1
 61 492 l 1,1,-1
 504 492 l 1,2,-1
 504 443 l 1,3,-1
 332 443 l 1,4,-1
 332 264 l 1,5,6
 349 281 349 281 372 291 c 128,-1,7
 395 301 395 301 418 301 c 0,8,9
 484 301 484 301 531 260 c 128,-1,10
 578 219 578 219 578 160 c 0,11,12
 578 127 578 127 565 98 c 128,-1,13
 552 69 552 69 529 49 c 1,14,-1
 719 49 l 1,15,-1
 719 0 l 1,16,-1
 270 0 l 1,17,-1
 270 49 l 1,18,-1
 406 49 l 2,19,20
 451 49 451 49 483.5 81.5 c 128,-1,21
 516 114 516 114 516 160 c 0,22,23
 516 196 516 196 487.5 221 c 128,-1,24
 459 246 459 246 418 246 c 0,25,26
 397 246 397 246 374.5 233 c 128,-1,27
 352 220 352 220 332 197 c 1,28,-1
 332 98 l 1,29,-1
 270 98 l 1,30,-1
 270 443 l 1,31,-1
 123 443 l 1,32,-1
 123 0 l 1,33,-1
 61 0 l 1,0,-1
EndSplineSet
Validated: 1
EndChar

StartChar: u0BEA
Encoding: 3050 3050 104
Width: 746
VWidth: 1023
GlyphClass: 2
Flags: W
HStem: -12 49<180.577 327.607> 221 49<141.049 184 246 369 430 624> 443 49<246 369 430 544>
VStem: 61 62<92.4127 205.402> 184 62<270 443> 369 61<77.2617 221 270 443> 624 61<270 492>
LayerCount: 2
Fore
SplineSet
246 270 m 1,0,-1
 369 270 l 1,1,-1
 369 443 l 1,2,-1
 246 443 l 1,3,-1
 246 270 l 1,0,-1
123 160 m 1,4,5
 123 110 123 110 162.5 73.5 c 128,-1,6
 202 37 202 37 258 37 c 0,7,8
 303 37 303 37 336 66 c 128,-1,9
 369 95 369 95 369 135 c 2,10,-1
 369 221 l 1,11,-1
 184 221 l 2,12,13
 158 221 158 221 140.5 203.5 c 128,-1,14
 123 186 123 186 123 160 c 1,4,5
184 492 m 1,15,-1
 544 492 l 1,16,-1
 544 443 l 1,17,-1
 430 443 l 1,18,-1
 430 270 l 1,19,-1
 624 270 l 1,20,-1
 624 492 l 1,21,-1
 685 492 l 1,22,-1
 685 221 l 1,23,-1
 430 221 l 1,24,-1
 430 135 l 2,25,26
 430 74 430 74 379.5 31 c 128,-1,27
 329 -12 329 -12 258 -12 c 0,28,29
 177 -12 177 -12 119 38.5 c 128,-1,30
 61 89 61 89 61 160 c 0,31,32
 61 205 61 205 97.5 237.5 c 128,-1,33
 134 270 134 270 184 270 c 1,34,-1
 184 492 l 1,15,-1
EndSplineSet
Validated: 1
EndChar

StartChar: u0BEB
Encoding: 3051 3051 105
Width: 1055
VWidth: 1023
GlyphClass: 2
Flags: W
HStem: -318 50<327.506 553.45> 260 49<620.904 737.352> 445 49<384 532 593 765> 690 50<364.042 698.71>
VStem: 63 55<-16.1967 374.899> 323 61<2 445> 532 61<2 233.166 272 445> 790 62<-14.201 203.976> 960 62<2 415.146>
LayerCount: 2
Fore
SplineSet
214 -158.5 m 128,-1,1
 309 -268 309 -268 434 -268 c 0,2,3
 582 -268 582 -268 686 -153.5 c 128,-1,4
 790 -39 790 -39 790 125 c 0,5,6
 790 182 790 182 755.5 221 c 128,-1,7
 721 260 721 260 673 260 c 0,8,9
 655 260 655 260 634 247 c 128,-1,10
 613 234 613 234 593 211 c 1,11,-1
 593 2 l 1,12,-1
 532 2 l 1,13,-1
 532 445 l 1,14,-1
 384 445 l 1,15,-1
 384 2 l 1,16,-1
 323 2 l 1,17,-1
 323 494 l 1,18,-1
 765 494 l 1,19,-1
 765 445 l 1,20,-1
 593 445 l 1,21,-1
 593 272 l 1,22,23
 603 289 603 289 626.5 299 c 128,-1,24
 650 309 650 309 679 309 c 0,25,26
 750 309 750 309 801 255 c 128,-1,27
 852 201 852 201 852 125 c 0,28,29
 852 -58 852 -58 729.5 -188 c 128,-1,30
 607 -318 607 -318 434 -318 c 0,31,32
 286 -318 286 -318 174.5 -193.5 c 128,-1,33
 63 -69 63 -69 63 154 c 0,34,35
 63 445 63 445 168.5 592.5 c 128,-1,36
 274 740 274 740 527 740 c 0,37,38
 783 740 783 740 902.5 606 c 128,-1,39
 1022 472 1022 472 1022 248 c 2,40,-1
 1022 2 l 1,41,-1
 960 2 l 1,42,-1
 960 248 l 2,43,44
 960 448 960 448 858 569 c 128,-1,45
 756 690 756 690 527 690 c 128,-1,46
 298 690 298 690 208 556 c 128,-1,47
 118 422 118 422 118 154 c 1,48,0
 119 -49 119 -49 214 -158.5 c 128,-1,1
EndSplineSet
Validated: 1
EndChar

StartChar: u0BEC
Encoding: 3052 3052 106
Width: 941
VWidth: 1023
GlyphClass: 2
Flags: W
HStem: -12 49<180.577 327.607> 0 21G<539 600 709 771> 221 49<141.049 184 246 369 430 539 600 709 771 880> 443 49<246 369 430 602>
VStem: 61 62<92.4127 205.402> 184 62<270 443> 369 61<77.2617 221 270 443> 539 61<0 221> 709 62<0 221>
LayerCount: 2
Fore
SplineSet
246 443 m 1,0,-1
 246 270 l 1,1,-1
 369 270 l 1,2,-1
 369 443 l 1,3,-1
 246 443 l 1,0,-1
123 160 m 1,4,5
 123 110 123 110 162.5 73.5 c 128,-1,6
 202 37 202 37 258 37 c 0,7,8
 303 37 303 37 336 66 c 128,-1,9
 369 95 369 95 369 135 c 2,10,-1
 369 221 l 1,11,-1
 184 221 l 2,12,13
 158 221 158 221 140.5 203.5 c 128,-1,14
 123 186 123 186 123 160 c 1,4,5
61 160 m 1,15,16
 61 205 61 205 97.5 237.5 c 128,-1,17
 134 270 134 270 184 270 c 1,18,-1
 184 492 l 1,19,-1
 602 492 l 1,20,-1
 602 443 l 1,21,-1
 430 443 l 1,22,-1
 430 270 l 1,23,-1
 880 270 l 1,24,-1
 880 221 l 1,25,-1
 771 221 l 1,26,-1
 771 0 l 1,27,-1
 709 0 l 1,28,-1
 709 221 l 1,29,-1
 600 221 l 1,30,-1
 600 0 l 1,31,-1
 539 0 l 1,32,-1
 539 221 l 1,33,-1
 430 221 l 1,34,-1
 430 135 l 2,35,36
 430 74 430 74 379.5 31 c 128,-1,37
 329 -12 329 -12 258 -12 c 0,38,39
 177 -12 177 -12 119 38.5 c 128,-1,40
 61 89 61 89 61 160 c 1,15,16
EndSplineSet
Validated: 1
EndChar

StartChar: u0BED
Encoding: 3053 3053 107
Width: 802
VWidth: 1023
GlyphClass: 2
Flags: W
HStem: -12 49<248.453 341.297> 0 21G<565 627> 221 49<245.455 344.629> 443 49<229.396 565 627 792>
VStem: 61 50<128.458 321.303> 172 49<68.218 195.779> 369 61<65.441 195.779> 565 62<0 443>
LayerCount: 2
Back
SplineSet
221 135 m 1,0,1
 221 94 221 94 242.5 65.5 c 128,-1,2
 264 37 264 37 295 37 c 128,-1,3
 326 37 326 37 347 66 c 128,-1,4
 368 95 368 95 368 135 c 0,5,6
 368 171 368 171 346.5 196 c 128,-1,7
 325 221 325 221 295 221 c 0,8,9
 264 221 264 221 242.5 196 c 128,-1,10
 221 171 221 171 221 135 c 1,11,-1
 221 135 l 1,0,1
565 443 m 1,12,-1
 319 443 l 2,13,14
 233 443 233 443 171.5 378 c 128,-1,15
 110 313 110 313 110 221 c 0,16,17
 110 167 110 167 136.5 121 c 128,-1,18
 163 75 163 75 209 49 c 1,19,20
 191 70 191 70 181.5 92 c 128,-1,21
 172 114 172 114 172 135 c 0,22,23
 172 192 172 192 208 231 c 128,-1,24
 244 270 244 270 295 270 c 0,25,26
 352 270 352 270 391 231 c 128,-1,27
 430 192 430 192 430 135 c 0,28,29
 430 74 430 74 383 31 c 128,-1,30
 336 -12 336 -12 270 -12 c 0,31,32
 184 -12 184 -12 122.5 56 c 128,-1,33
 61 124 61 124 61 221 c 0,34,35
 61 333 61 333 136.5 412.5 c 128,-1,36
 212 492 212 492 319 492 c 2,37,-1
 799 492 l 1,38,-1
 799 443 l 1,39,-1
 627 443 l 1,40,-1
 627 0 l 1,41,-1
 565 0 l 1,42,-1
 565 443 l 1,43,-1
 565 443 l 1,12,-1
EndSplineSet
Fore
SplineSet
221 135 m 1,0,1
 221 94 221 94 242.5 65.5 c 128,-1,2
 264 37 264 37 295 37 c 256,3,4
 326 37 326 37 347.5 66 c 128,-1,5
 369 95 369 95 369 135 c 0,6,7
 369 171 369 171 347.5 196 c 128,-1,8
 326 221 326 221 295 221 c 256,9,10
 264 221 264 221 242.5 196 c 128,-1,11
 221 171 221 171 221 135 c 1,0,1
565 443 m 1,12,-1
 320 443 l 2,13,14
 234 443 234 443 172.5 378 c 128,-1,15
 111 313 111 313 111 221 c 0,16,17
 111 167 111 167 137 121 c 128,-1,18
 163 75 163 75 209 49 c 1,19,20
 191 70 191 70 181.5 92 c 128,-1,21
 172 114 172 114 172 135 c 0,22,23
 172 192 172 192 208.5 231 c 128,-1,24
 245 270 245 270 295 270 c 0,25,26
 352 270 352 270 391 231 c 128,-1,27
 430 192 430 192 430 135 c 0,28,29
 430 74 430 74 383.5 31 c 128,-1,30
 337 -12 337 -12 270 -12 c 0,31,32
 184 -12 184 -12 122.5 56 c 128,-1,33
 61 124 61 124 61 221 c 0,34,35
 61 333 61 333 137 412.5 c 128,-1,36
 213 492 213 492 320 492 c 2,37,-1
 792 492 l 1,38,-1
 792 443 l 1,39,-1
 627 443 l 1,40,-1
 627 0 l 1,41,-1
 565 0 l 1,42,-1
 565 443 l 1,12,-1
EndSplineSet
Validated: 1
EndChar

StartChar: u0BEE
Encoding: 3054 3054 108
Width: 1142
VWidth: 1023
GlyphClass: 2
Flags: W
HStem: -85 49<321.221 649.174> 136 49<122.546 612 663 835 909 1020> 184 1<612 663> 452 53<675.761 824.642>
VStem: 61 61<77.6274 135.694> 848 61<185 415.443> 1020 61<-122 136 185 493>
LayerCount: 2
Back
SplineSet
897 -61 m 5,0,-1
 897 135 l 5,1,-1
 774 135 l 5,2,3
 737 35 737 35 641.5 -25.5 c 132,-1,4
 546 -86 546 -86 424 -86 c 4,5,6
 340 -86 340 -86 266 -61 c 132,-1,7
 192 -36 192 -36 135 12 c 4,8,9
 99 42 99 42 80 71 c 132,-1,10
 61 100 61 100 61 123 c 4,11,12
 61 149 61 149 82.5 166.5 c 132,-1,13
 104 184 104 184 135 184 c 6,14,-1
 338 186 l 5,15,16
 305 198 305 198 284.5 233 c 132,-1,17
 264 268 264 268 264 313 c 4,18,19
 264 392 264 392 338 448 c 132,-1,20
 412 504 412 504 516 504 c 4,21,22
 633 504 633 504 716 432 c 132,-1,23
 799 360 799 360 799 258 c 4,24,25
 799 238 799 238 796 220 c 132,-1,26
 793 202 793 202 787 184 c 5,27,-1
 897 184 l 5,28,-1
 897 492 l 5,29,-1
 959 492 l 5,30,-1
 959 -61 l 5,31,-1
 897 -61 l 5,32,-1
 897 -61 l 5,0,-1
320 313 m 5,33,34
 320 260 320 260 361 222 c 132,-1,35
 402 184 402 184 461 184 c 4,36,37
 518 184 518 184 557 220.5 c 132,-1,38
 596 257 596 257 596 307 c 4,39,40
 596 364 596 364 557 403.5 c 132,-1,41
 518 443 518 443 461 443 c 4,42,43
 402 443 402 443 361 404.5 c 132,-1,44
 320 366 320 366 320 313 c 5,45,-1
 320 313 l 5,33,34
713 135 m 5,46,-1
 148 135 l 6,47,48
 138 135 138 135 130.5 127.5 c 132,-1,49
 123 120 123 120 123 111 c 4,50,51
 123 105 123 105 129 95.5 c 132,-1,52
 135 86 135 86 148 74 c 4,53,54
 201 21 201 21 271.5 -8 c 132,-1,55
 342 -37 342 -37 418 -37 c 4,56,57
 522 -37 522 -37 603.5 10.5 c 132,-1,58
 685 58 685 58 713 135 c 5,59,-1
 713 135 l 5,46,-1
590 184 m 5,60,-1
 725 184 l 5,61,62
 731 201 731 201 734.5 219.5 c 132,-1,63
 738 238 738 238 738 258 c 4,64,65
 738 335 738 335 687.5 394.5 c 132,-1,66
 637 454 637 454 559 467 c 5,67,68
 602 436 602 436 627 394 c 132,-1,69
 652 352 652 352 652 307 c 4,70,71
 652 269 652 269 636 236.5 c 132,-1,72
 620 204 620 204 590 184 c 5,73,-1
 590 184 l 5,60,-1
EndSplineSet
Fore
SplineSet
658 414 m 128,-1,1
 628 378 628 378 630 311 c 1,2,3
 629 250 629 250 663 184 c 1,4,-1
 612 184 l 1,5,6
 578 224 578 224 572 315 c 0,7,8
 568 387 568 387 609 446 c 128,-1,9
 650 505 650 505 751 505 c 0,10,11
 839 505 839 505 885.5 451.5 c 128,-1,12
 932 398 932 398 926 284 c 0,13,14
 922 217 922 217 909 185 c 1,15,-1
 1020 185 l 1,16,-1
 1020 493 l 1,17,-1
 1081 493 l 1,18,-1
 1081 -122 l 1,19,-1
 1020 -122 l 1,20,-1
 1020 136 l 1,21,-1
 897 136 l 1,22,23
 860 36 860 36 750.5 -24.5 c 128,-1,24
 641 -85 641 -85 497 -85 c 0,25,26
 402 -85 402 -85 310 -60 c 128,-1,27
 218 -35 218 -35 135 13 c 0,28,29
 101 33 101 33 81 59.5 c 128,-1,30
 61 86 61 86 61 112 c 0,31,32
 61 143 61 143 86 164 c 128,-1,33
 111 185 111 185 147 185 c 2,34,-1
 848 185 l 1,35,36
 869 230 869 230 868 284 c 1,37,38
 874 331 874 331 858 386.5 c 128,-1,39
 842 442 842 442 751 452 c 1,40,0
 688 450 688 450 658 414 c 128,-1,1
147 75 m 0,41,42
 200 22 200 22 289.5 -7 c 128,-1,43
 379 -36 379 -36 491 -36 c 0,44,45
 618 -36 618 -36 712.5 11.5 c 128,-1,46
 807 59 807 59 835 136 c 1,47,-1
 147 136 l 2,48,49
 137 136 137 136 129.5 128.5 c 128,-1,50
 122 121 122 121 122 112 c 0,51,52
 122 106 122 106 128.5 96.5 c 128,-1,53
 135 87 135 87 147 75 c 0,41,42
EndSplineSet
Validated: 37
EndChar

StartChar: u0BEF
Encoding: 3055 3055 109
Width: 987
VWidth: 1023
GlyphClass: 2
Flags: W
HStem: -12 61<178.161 331.608> -12 49<589.647 656.62> 0 21G<797 879.5> 221 49<141.049 184 246 369 430 550> 295 49<645.993 813.787> 443 49<246 369 430 547>
VStem: 61 62<99.5577 205.402> 184 62<270 443> 369 61<85.0703 221 270 443> 525 49<50.3613 216.358> 673 49<51.4026 184.156> 865 61<72.1406 243.32>
LayerCount: 2
Fore
SplineSet
246 270 m 1,0,-1
 369 270 l 1,1,-1
 369 443 l 1,2,-1
 246 443 l 1,3,-1
 246 270 l 1,0,-1
123 160 m 1,4,5
 123 115 123 115 162.5 82 c 128,-1,6
 202 49 202 49 258 49 c 0,7,8
 303 49 303 49 336 74.5 c 128,-1,9
 369 100 369 100 369 135 c 2,10,-1
 369 221 l 1,11,-1
 184 221 l 2,12,13
 158 221 158 221 140.5 203.5 c 128,-1,14
 123 186 123 186 123 160 c 1,4,5
574 123 m 1,15,16
 574 87 574 87 588 62 c 128,-1,17
 602 37 602 37 623 37 c 256,18,19
 644 37 644 37 658.5 62 c 128,-1,20
 673 87 673 87 673 123 c 0,21,22
 673 155 673 155 652.5 182 c 128,-1,23
 632 209 632 209 599 221 c 1,24,25
 587 200 587 200 580.5 175 c 128,-1,26
 574 150 574 150 574 123 c 1,15,16
61 160 m 1,27,28
 61 205 61 205 97.5 237.5 c 128,-1,29
 134 270 134 270 184 270 c 1,30,-1
 184 492 l 1,31,-1
 547 492 l 1,32,-1
 547 443 l 1,33,-1
 430 443 l 1,34,-1
 430 270 l 1,35,-1
 574 270 l 1,36,37
 599 304 599 304 639.5 324 c 128,-1,38
 680 344 680 344 728 344 c 0,39,40
 822 344 822 344 874 293.5 c 128,-1,41
 926 243 926 243 926 172 c 0,42,43
 926 124 926 124 910 80 c 128,-1,44
 894 36 894 36 865 0 c 1,45,-1
 797 0 l 1,46,47
 830 39 830 39 847.5 83.5 c 128,-1,48
 865 128 865 128 865 172 c 0,49,50
 865 222 865 222 830.5 258.5 c 128,-1,51
 796 295 796 295 728 295 c 0,52,53
 696 295 696 295 670 285 c 128,-1,54
 644 275 644 275 629 258 c 1,55,56
 671 243 671 243 696.5 205.5 c 128,-1,57
 722 168 722 168 722 123 c 0,58,59
 722 66 722 66 693 27 c 128,-1,60
 664 -12 664 -12 623 -12 c 256,61,62
 582 -12 582 -12 553.5 27 c 128,-1,63
 525 66 525 66 525 123 c 0,64,65
 525 150 525 150 531 175 c 128,-1,66
 537 200 537 200 550 221 c 1,67,-1
 430 221 l 1,68,-1
 430 135 l 2,69,70
 430 74 430 74 379.5 31 c 128,-1,71
 329 -12 329 -12 258 -12 c 0,72,73
 177 -12 177 -12 119 38.5 c 128,-1,74
 61 89 61 89 61 160 c 1,27,28
EndSplineSet
Validated: 1
EndChar

StartChar: u0BF0
Encoding: 3056 3056 110
Width: 823
VWidth: 1023
GlyphClass: 2
Flags: W
LayerCount: 2
Back
SplineSet
311 49 m 1,0,1
 286 19 286 19 257.5 3.5 c 128,-1,2
 229 -12 229 -12 200 -12 c 0,3,4
 143 -12 143 -12 104 27 c 128,-1,5
 65 66 65 66 65 123 c 2,6,-1
 65 369 l 1,7,-1
 127 369 l 1,8,-1
 127 123 l 2,9,10
 127 87 127 87 148.5 62 c 128,-1,11
 170 37 170 37 200 37 c 256,12,13
 231 37 231 37 252.5 62 c 128,-1,14
 274 87 274 87 274 123 c 2,15,-1
 274 369 l 1,16,-1
 336 369 l 1,17,-1
 336 123 l 1,18,19
 350 84 350 84 376.5 60.5 c 128,-1,20
 403 37 403 37 434 37 c 0,21,22
 479 37 479 37 512 87.5 c 128,-1,23
 545 138 545 138 545 209 c 0,24,25
 545 306 545 306 487 374.5 c 128,-1,26
 429 443 429 443 348 443 c 2,27,-1
 188 443 l 1,28,-1
 188 492 l 1,29,-1
 348 492 l 2,30,31
 455 492 455 492 530.5 409 c 128,-1,32
 606 326 606 326 606 209 c 0,33,34
 606 117 606 117 555.5 52.5 c 128,-1,35
 505 -12 505 -12 434 -12 c 0,36,37
 391 -12 391 -12 358 4.5 c 128,-1,38
 325 21 325 21 311 49 c 1,39,-1
 311 49 l 1,0,1
EndSplineSet
Fore
SplineSet
380 78 m 1,0,1
 339 18 339 18 303 -1.5 c 128,-1,2
 267 -21 267 -21 231 -21 c 0,3,4
 159 -21 159 -21 110 28 c 128,-1,5
 61 77 61 77 61 149 c 2,6,-1
 61 467 l 1,7,-1
 124 467 l 1,8,-1
 124 149 l 2,9,10
 124 97 124 97 155 60.5 c 128,-1,11
 186 24 186 24 231 24 c 0,12,13
 277 24 277 24 308.5 60.5 c 128,-1,14
 340 97 340 97 340 149 c 2,15,-1
 340 467 l 1,16,-1
 402 467 l 1,17,-1
 402 147 l 1,18,19
 422 91 422 91 460 57.5 c 128,-1,20
 498 24 498 24 543 24 c 0,21,22
 608 24 608 24 654.5 95 c 128,-1,23
 701 166 701 166 701 264 c 0,24,25
 701 397 701 397 621 491.5 c 128,-1,26
 541 586 541 586 428 586 c 2,27,-1
 225 586 l 1,28,-1
 225 631 l 1,29,-1
 428 631 l 2,30,31
 567 631 567 631 664.5 523.5 c 128,-1,32
 762 416 762 416 762 264 c 0,33,34
 762 144 762 144 697.5 61.5 c 128,-1,35
 633 -21 633 -21 543 -21 c 0,36,37
 488 -21 488 -21 446.5 -0.5 c 128,-1,38
 405 20 405 20 380 78 c 1,0,1
EndSplineSet
Validated: 1
EndChar

StartChar: u0BF1
Encoding: 3057 3057 111
Width: 684
VWidth: 1023
GlyphClass: 2
Flags: W
LayerCount: 2
Fore
SplineSet
334 444 m 1,0,1
 348 472 348 472 381 488.5 c 128,-1,2
 414 505 414 505 457 505 c 2,3,-1
 679 505 l 1,4,-1
 679 450 l 1,5,-1
 580 450 l 1,6,-1
 580 1 l 1,7,-1
 519 1 l 1,8,-1
 519 450 l 1,9,-1
 457 450 l 2,10,11
 426 450 426 450 399 427.5 c 128,-1,12
 372 405 372 405 359 370 c 1,13,-1
 359 1 l 1,14,-1
 297 1 l 1,15,-1
 297 370 l 2,16,17
 297 406 297 406 275.5 431 c 128,-1,18
 254 456 254 456 224 456 c 256,19,20
 193 456 193 456 171.5 430.5 c 128,-1,21
 150 405 150 405 150 370 c 2,22,-1
 150 1 l 1,23,-1
 89 1 l 1,24,-1
 89 370 l 2,25,26
 89 427 89 427 128 466 c 128,-1,27
 167 505 167 505 224 505 c 0,28,29
 252 505 252 505 281 489 c 128,-1,30
 310 473 310 473 334 444 c 1,31,-1
 334 444 l 1,0,1
EndSplineSet
Validated: 5
EndChar

StartChar: u0BF2
Encoding: 3058 3058 112
Width: 759
VWidth: 1023
GlyphClass: 2
Flags: W
HStem: -160 49<147.567 646.421> -12 49<153.577 300.607> 0 21G<499 561> 123 49<589.181 690.723> 221 49<114.049 157 219 342 403 499 561 649> 443 49<219 342 403 575>
VStem: 34 62<92.4127 205.402> 57 49<-283 -205.915> 157 62<270 443> 342 61<77.2617 221 270 443> 499 62<0 95.1611 135 221> 721 61<-47.9728 91.066>
LayerCount: 2
Fore
SplineSet
219 443 m 1,0,-1
 219 270 l 1,1,-1
 342 270 l 1,2,-1
 342 443 l 1,3,-1
 219 443 l 1,0,-1
96 160 m 1,4,5
 96 110 96 110 135.5 73.5 c 128,-1,6
 175 37 175 37 231 37 c 0,7,8
 276 37 276 37 309 66 c 128,-1,9
 342 95 342 95 342 135 c 2,10,-1
 342 221 l 1,11,-1
 157 221 l 2,12,13
 131 221 131 221 113.5 203.5 c 128,-1,14
 96 186 96 186 96 160 c 1,4,5
34 160 m 1,15,16
 34 205 34 205 70.5 237.5 c 128,-1,17
 107 270 107 270 157 270 c 1,18,-1
 157 492 l 1,19,-1
 575 492 l 1,20,-1
 575 443 l 1,21,-1
 403 443 l 1,22,-1
 403 270 l 1,23,-1
 649 270 l 1,24,-1
 649 221 l 1,25,-1
 561 221 l 1,26,-1
 561 135 l 1,27,28
 576 152 576 152 598.5 162 c 128,-1,29
 621 172 621 172 647 172 c 0,30,31
 704 172 704 172 743 125.5 c 128,-1,32
 782 79 782 79 782 12 c 0,33,34
 782 -59 782 -59 714 -109.5 c 128,-1,35
 646 -160 646 -160 549 -160 c 2,36,-1
 204 -160 l 2,37,38
 163 -160 163 -160 134.5 -196 c 128,-1,39
 106 -232 106 -232 106 -283 c 1,40,-1
 57 -283 l 1,41,42
 57 -212 57 -212 100 -161.5 c 128,-1,43
 143 -111 143 -111 204 -111 c 2,44,-1
 549 -111 l 2,45,46
 620 -111 620 -111 670.5 -74.5 c 128,-1,47
 721 -38 721 -38 721 12 c 0,48,49
 721 57 721 57 699.5 90 c 128,-1,50
 678 123 678 123 647 123 c 0,51,52
 617 123 617 123 593 104 c 128,-1,53
 569 85 569 85 561 55 c 1,54,-1
 561 0 l 1,55,-1
 499 0 l 1,56,-1
 499 221 l 1,57,-1
 403 221 l 1,58,-1
 403 135 l 2,59,60
 403 74 403 74 352.5 31 c 128,-1,61
 302 -12 302 -12 231 -12 c 0,62,63
 150 -12 150 -12 92 38.5 c 128,-1,64
 34 89 34 89 34 160 c 1,15,16
EndSplineSet
Validated: 1
EndChar

StartChar: u0BF3
Encoding: 3059 3059 113
Width: 910
VWidth: 1023
GlyphClass: 2
Flags: W
LayerCount: 2
Fore
SplineSet
200 135 m 1,0,1
 200 94 200 94 225.5 65.5 c 128,-1,2
 251 37 251 37 286 37 c 0,3,4
 327 37 327 37 356 66 c 128,-1,5
 385 95 385 95 385 135 c 256,6,7
 385 176 385 176 356 205 c 128,-1,8
 327 234 327 234 286 234 c 0,9,10
 250 234 250 234 225 205 c 128,-1,11
 200 176 200 176 200 135 c 1,12,-1
 200 135 l 1,0,1
53 234 m 1,13,14
 53 346 53 346 132 425 c 128,-1,15
 211 504 211 504 323 504 c 0,16,17
 440 504 440 504 523 424.5 c 128,-1,18
 606 345 606 345 606 234 c 0,19,20
 606 185 606 185 593.5 138 c 128,-1,21
 581 91 581 91 557 49 c 1,22,-1
 901 49 l 1,23,-1
 901 0 l 1,24,-1
 483 0 l 1,25,-1
 483 37 l 1,26,27
 513 73 513 73 529 123 c 128,-1,28
 545 173 545 173 545 234 c 0,29,30
 545 326 545 326 480.5 390.5 c 128,-1,31
 416 455 416 455 323 455 c 256,32,33
 231 455 231 455 166.5 390.5 c 128,-1,34
 102 326 102 326 102 234 c 0,35,36
 102 192 102 192 118 150.5 c 128,-1,37
 134 109 134 109 163 74 c 1,38,39
 157 91 157 91 154 106.5 c 128,-1,40
 151 122 151 122 151 135 c 0,41,42
 151 196 151 196 190.5 239.5 c 128,-1,43
 230 283 230 283 286 283 c 0,44,45
 347 283 347 283 390.5 240 c 128,-1,46
 434 197 434 197 434 135 c 256,47,48
 434 74 434 74 391 31 c 128,-1,49
 348 -12 348 -12 286 -12 c 0,50,51
 189 -12 189 -12 121 60 c 128,-1,52
 53 132 53 132 53 234 c 1,53,-1
 53 234 l 1,13,14
EndSplineSet
Validated: 5
EndChar

StartChar: u0BF4
Encoding: 3060 3060 114
Width: 1062
VWidth: 1023
GlyphClass: 2
Flags: W
LayerCount: 2
Fore
SplineSet
449 369 m 1,0,-1
 449 49 l 1,1,-1
 621 49 l 2,2,3
 657 49 657 49 682 88.5 c 128,-1,4
 707 128 707 128 707 184 c 0,5,6
 707 296 707 296 653 375.5 c 128,-1,7
 599 455 599 455 522 455 c 0,8,9
 491 455 491 455 470 429.5 c 128,-1,10
 449 404 449 404 449 369 c 1,11,-1
 449 369 l 1,0,-1
510 504 m 1,12,13
 471 527 471 527 447.5 566.5 c 128,-1,14
 424 606 424 606 424 652 c 0,15,16
 424 723 424 723 478 773.5 c 128,-1,17
 532 824 532 824 608 824 c 0,18,19
 633 824 633 824 651 821.5 c 128,-1,20
 669 819 669 819 681 815 c 1,21,22
 714 836 714 836 749 847 c 128,-1,23
 784 858 784 858 816 858 c 0,24,25
 854 858 854 858 887 841.5 c 128,-1,26
 920 825 920 825 939 797 c 1,27,28
 962 827 962 827 995 842.5 c 128,-1,29
 1028 858 1028 858 1062 858 c 1,30,-1
 1062 809 l 1,31,32
 1040 809 1040 809 1018.5 796 c 128,-1,33
 997 783 997 783 982 760 c 1,34,35
 998 739 998 739 1006 720.5 c 128,-1,36
 1014 702 1014 702 1014 688 c 0,37,38
 1014 656 1014 656 994 634 c 128,-1,39
 974 612 974 612 944 612 c 256,40,41
 914 612 914 612 893 634 c 128,-1,42
 872 656 872 656 872 688 c 0,43,44
 872 705 872 705 881.5 724.5 c 128,-1,45
 891 744 891 744 908 762 c 1,46,47
 890 784 890 784 866 796.5 c 128,-1,48
 842 809 842 809 816 809 c 0,49,50
 791 809 791 809 768.5 803 c 128,-1,51
 746 797 746 797 728 784 c 1,52,53
 760 762 760 762 778.5 733 c 128,-1,54
 797 704 797 704 797 676 c 0,55,56
 797 631 797 631 760 598 c 128,-1,57
 723 565 723 565 670 565 c 0,58,59
 629 565 629 565 600.5 594 c 128,-1,60
 572 623 572 623 572 664 c 0,61,62
 572 698 572 698 588.5 728 c 128,-1,63
 605 758 605 758 633 774 c 1,64,-1
 608 774 l 2,65,66
 554 774 554 774 515.5 738 c 128,-1,67
 477 702 477 702 477 652 c 0,68,69
 477 613 477 613 512 570 c 128,-1,70
 547 527 547 527 608 492 c 1,71,72
 681 466 681 466 724.5 381 c 128,-1,73
 768 296 768 296 768 184 c 0,74,75
 768 108 768 108 725 54 c 128,-1,76
 682 0 682 0 621 0 c 2,77,-1
 92 0 l 1,78,-1
 92 492 l 1,79,-1
 154 492 l 1,80,-1
 154 49 l 1,81,-1
 387 49 l 1,82,-1
 387 369 l 2,83,84
 387 426 387 426 423.5 465 c 128,-1,85
 460 504 460 504 510 504 c 1,86,-1
 510 504 l 1,12,13
621 664 m 1,87,88
 621 643 621 643 635 629 c 128,-1,89
 649 615 649 615 670 615 c 0,90,91
 701 615 701 615 722.5 632.5 c 128,-1,92
 744 650 744 650 744 676 c 0,93,94
 744 701 744 701 729 722.5 c 128,-1,95
 714 744 714 744 688 756 c 1,96,97
 657 741 657 741 639 716.5 c 128,-1,98
 621 692 621 692 621 664 c 1,99,-1
 621 664 l 1,87,88
922 688 m 1,100,101
 922 678 922 678 928.5 671 c 128,-1,102
 935 664 935 664 944 664 c 256,103,104
 953 664 953 664 959 671.5 c 128,-1,105
 965 679 965 679 965 688 c 256,106,107
 965 698 965 698 959.5 708 c 128,-1,108
 954 718 954 718 944 725 c 1,109,110
 934 718 934 718 928 708 c 128,-1,111
 922 698 922 698 922 688 c 1,112,-1
 922 688 l 1,100,101
EndSplineSet
Validated: 5
EndChar

StartChar: u0BF5
Encoding: 3061 3061 115
Width: 1800
VWidth: 1023
GlyphClass: 2
Flags: W
LayerCount: 2
Fore
SplineSet
386 135 m 1,0,1
 386 94 386 94 410 65.5 c 128,-1,2
 434 37 434 37 467 37 c 256,3,4
 500 37 500 37 524 66 c 128,-1,5
 548 95 548 95 548 135 c 256,6,7
 548 176 548 176 524 205 c 128,-1,8
 500 234 500 234 467 234 c 256,9,10
 434 234 434 234 410 205 c 128,-1,11
 386 176 386 176 386 135 c 1,12,-1
 386 135 l 1,0,1
929 49 m 1,13,-1
 929 492 l 1,14,-1
 1302 492 l 1,15,-1
 1302 443 l 1,16,-1
 1175 443 l 1,17,-1
 1175 240 l 1,18,19
 1192 255 1192 255 1211.5 262.5 c 128,-1,20
 1231 270 1231 270 1250 270 c 0,21,22
 1302 270 1302 270 1338 220 c 128,-1,23
 1374 170 1374 170 1374 98 c 0,24,25
 1374 -75 1374 -75 1182.5 -197.5 c 128,-1,26
 991 -320 991 -320 719 -320 c 0,27,28
 449 -320 449 -320 257 -168.5 c 128,-1,29
 65 -17 65 -17 65 197 c 0,30,31
 65 421 65 421 277.5 579.5 c 128,-1,32
 490 738 490 738 792 738 c 256,33,34
 1093 738 1093 738 1305.5 629.5 c 128,-1,35
 1518 521 1518 521 1518 369 c 2,36,-1
 1518 184 l 2,37,38
 1518 127 1518 127 1544 88 c 128,-1,39
 1570 49 1570 49 1607 49 c 0,40,41
 1652 49 1652 49 1684.5 107 c 128,-1,42
 1717 165 1717 165 1717 246 c 256,43,44
 1717 327 1717 327 1688.5 385 c 128,-1,45
 1660 443 1660 443 1618 443 c 1,46,-1
 1637 492 l 1,47,48
 1690 492 1690 492 1728 420 c 128,-1,49
 1766 348 1766 348 1766 246 c 256,50,51
 1766 144 1766 144 1719.5 72 c 128,-1,52
 1673 0 1673 0 1607 0 c 0,53,54
 1546 0 1546 0 1502.5 54 c 128,-1,55
 1459 108 1459 108 1459 184 c 2,56,-1
 1459 369 l 2,57,58
 1459 502 1459 502 1263 595 c 128,-1,59
 1067 688 1067 688 789 688 c 256,60,61
 511 688 511 688 315 544.5 c 128,-1,62
 119 401 119 401 119 197 c 0,63,64
 119 4 119 4 294.5 -133 c 128,-1,65
 470 -270 470 -270 717 -270 c 0,66,67
 965 -270 965 -270 1140 -162 c 128,-1,68
 1315 -54 1315 -54 1315 98 c 0,69,70
 1315 146 1315 146 1295 180.5 c 128,-1,71
 1275 215 1275 215 1247 215 c 0,72,73
 1217 215 1217 215 1196 193.5 c 128,-1,74
 1175 172 1175 172 1175 141 c 2,75,-1
 1175 0 l 1,76,-1
 1116 0 l 1,77,-1
 1116 443 l 1,78,-1
 990 443 l 1,79,-1
 990 0 l 1,80,-1
 668 0 l 1,81,-1
 668 37 l 1,82,83
 694 71 694 71 708 122 c 128,-1,84
 722 173 722 173 722 234 c 0,85,86
 722 326 722 326 659.5 390.5 c 128,-1,87
 597 455 597 455 509 455 c 0,88,89
 422 455 422 455 359.5 390.5 c 128,-1,90
 297 326 297 326 297 234 c 0,91,92
 297 189 297 189 310 147.5 c 128,-1,93
 323 106 323 106 348 74 c 1,94,95
 343 91 343 91 340 106.5 c 128,-1,96
 337 122 337 122 337 135 c 0,97,98
 337 196 337 196 373 239.5 c 128,-1,99
 409 283 409 283 461 283 c 0,100,101
 518 283 518 283 557.5 240 c 128,-1,102
 597 197 597 197 597 135 c 256,103,104
 597 74 597 74 557.5 31 c 128,-1,105
 518 -12 518 -12 461 -12 c 0,106,107
 359 -12 359 -12 297.5 55 c 128,-1,108
 236 122 236 122 236 234 c 256,109,110
 236 346 236 346 316 425 c 128,-1,111
 396 504 396 504 509 504 c 256,112,113
 622 504 622 504 702 424.5 c 128,-1,114
 782 345 782 345 782 234 c 0,115,116
 782 185 782 185 771 138 c 128,-1,117
 760 91 760 91 739 49 c 1,118,-1
 929 49 l 1,119,-1
 929 49 l 1,13,-1
EndSplineSet
Validated: 5
EndChar

StartChar: u0BF6
Encoding: 3062 3062 116
Width: 791
VWidth: 1023
GlyphClass: 2
Flags: W
LayerCount: 2
Fore
SplineSet
85 135 m 1,0,-1
 85 492 l 1,1,-1
 146 492 l 1,2,-1
 146 135 l 2,3,4
 146 94 146 94 171.5 65.5 c 128,-1,5
 197 37 197 37 232 37 c 0,6,7
 277 37 277 37 310 69.5 c 128,-1,8
 343 102 343 102 343 148 c 2,9,-1
 343 492 l 1,10,-1
 404 492 l 1,11,-1
 404 -61 l 1,12,-1
 638 -61 l 1,13,-1
 638 492 l 1,14,-1
 699 492 l 1,15,-1
 699 -111 l 1,16,-1
 404 -111 l 1,17,-1
 404 -184 l 2,18,19
 404 -234 404 -234 370 -270.5 c 128,-1,20
 336 -307 336 -307 288 -307 c 2,21,-1
 202 -307 l 2,22,23
 152 -307 152 -307 115.5 -271 c 128,-1,24
 79 -235 79 -235 79 -184 c 256,25,26
 79 -134 79 -134 115 -97.5 c 128,-1,27
 151 -61 151 -61 202 -61 c 2,28,-1
 343 -61 l 1,29,-1
 343 37 l 1,30,31
 329 14 329 14 299.5 1 c 128,-1,32
 270 -12 270 -12 232 -12 c 0,33,34
 171 -12 171 -12 128 31 c 128,-1,35
 85 74 85 74 85 135 c 1,36,-1
 85 135 l 1,0,-1
140 -184 m 1,37,38
 140 -215 140 -215 158 -236.5 c 128,-1,39
 176 -258 176 -258 202 -258 c 2,40,-1
 288 -258 l 2,41,42
 311 -258 311 -258 327 -236.5 c 128,-1,43
 343 -215 343 -215 343 -184 c 2,44,-1
 343 -111 l 1,45,-1
 202 -111 l 2,46,47
 176 -111 176 -111 158 -132.5 c 128,-1,48
 140 -154 140 -154 140 -184 c 1,49,-1
 140 -184 l 1,37,38
EndSplineSet
Validated: 5
EndChar

StartChar: u0BF7
Encoding: 3063 3063 117
Width: 1336
VWidth: 1023
GlyphClass: 2
Flags: W
LayerCount: 2
Fore
SplineSet
214 135 m 1,0,1
 214 94 214 94 235.5 65.5 c 128,-1,2
 257 37 257 37 288 37 c 256,3,4
 319 37 319 37 340 66 c 128,-1,5
 361 95 361 95 361 135 c 0,6,7
 361 171 361 171 339.5 196 c 128,-1,8
 318 221 318 221 288 221 c 256,9,10
 257 221 257 221 235.5 196 c 128,-1,11
 214 171 214 171 214 135 c 1,12,-1
 214 135 l 1,0,1
54 221 m 1,13,14
 54 333 54 333 129.5 412.5 c 128,-1,15
 205 492 205 492 312 492 c 2,16,-1
 742 492 l 1,17,-1
 742 443 l 1,18,-1
 620 443 l 1,19,-1
 620 145 l 1,20,21
 638 167 638 167 662.5 185.5 c 128,-1,22
 687 204 687 204 717 218 c 1,23,24
 733 284 733 284 787 326 c 128,-1,25
 841 368 841 368 908 368 c 0,26,27
 993 368 993 368 1053.5 310 c 128,-1,28
 1114 252 1114 252 1114 171 c 0,29,30
 1114 134 1114 134 1105.5 99.5 c 128,-1,31
 1097 65 1097 65 1079 36 c 1,32,-1
 1329 36 l 1,33,-1
 1329 0 l 1,34,-1
 1024 0 l 1,35,-1
 1024 27 l 1,36,37
 1045 53 1045 53 1056.5 90 c 128,-1,38
 1068 127 1068 127 1068 171 c 0,39,40
 1068 237 1068 237 1021.5 284.5 c 128,-1,41
 975 332 975 332 908 332 c 0,42,43
 860 332 860 332 820.5 305 c 128,-1,44
 781 278 781 278 761 232 c 1,45,46
 781 237 781 237 800 239.5 c 128,-1,47
 819 242 819 242 837 242 c 0,48,49
 900 242 900 242 945 203.5 c 128,-1,50
 990 165 990 165 990 111 c 0,51,52
 990 62 990 62 952.5 26.5 c 128,-1,53
 915 -9 915 -9 862 -9 c 0,54,55
 799 -9 799 -9 755 44 c 128,-1,56
 711 97 711 97 711 171 c 1,57,58
 679 153 679 153 655 127.5 c 128,-1,59
 631 102 631 102 620 71 c 1,60,-1
 620 0 l 1,61,-1
 558 0 l 1,62,-1
 558 443 l 1,63,-1
 312 443 l 2,64,65
 226 443 226 443 164.5 378 c 128,-1,66
 103 313 103 313 103 221 c 0,67,68
 103 167 103 167 129.5 121 c 128,-1,69
 156 75 156 75 202 49 c 1,70,71
 184 70 184 70 174.5 92 c 128,-1,72
 165 114 165 114 165 135 c 0,73,74
 165 192 165 192 201 231 c 128,-1,75
 237 270 237 270 288 270 c 0,76,77
 345 270 345 270 384 231 c 128,-1,78
 423 192 423 192 423 135 c 0,79,80
 423 74 423 74 376 31 c 128,-1,81
 329 -12 329 -12 263 -12 c 0,82,83
 177 -12 177 -12 115.5 56 c 128,-1,84
 54 124 54 124 54 221 c 1,85,-1
 54 221 l 1,13,14
749 187 m 1,86,87
 749 123 749 123 782 78 c 128,-1,88
 815 33 815 33 862 33 c 0,89,90
 895 33 895 33 917.5 56 c 128,-1,91
 940 79 940 79 940 111 c 0,92,93
 940 149 940 149 910 175.5 c 128,-1,94
 880 202 880 202 837 202 c 0,95,96
 815 202 815 202 792.5 198 c 128,-1,97
 770 194 770 194 749 187 c 1,98,-1
 749 187 l 1,86,87
EndSplineSet
Validated: 5
EndChar

StartChar: u0BF8
Encoding: 3064 3064 118
Width: 1595
VWidth: 1023
GlyphClass: 2
Flags: W
LayerCount: 2
Fore
SplineSet
61 307 m 1,0,1
 61 459 61 459 169.5 567.5 c 128,-1,2
 278 676 278 676 430 676 c 0,3,4
 543 676 543 676 639.5 601.5 c 128,-1,5
 736 527 736 527 781 406 c 1,6,7
 798 412 798 412 817.5 415 c 128,-1,8
 837 418 837 418 861 418 c 0,9,10
 937 418 937 418 991 360 c 128,-1,11
 1045 302 1045 302 1045 221 c 0,12,13
 1045 163 1045 163 1029 118.5 c 128,-1,14
 1013 74 1013 74 983 49 c 1,15,-1
 1217 49 l 1,16,17
 1172 70 1172 70 1145.5 113.5 c 128,-1,18
 1119 157 1119 157 1119 209 c 0,19,20
 1119 266 1119 266 1162 305 c 128,-1,21
 1205 344 1205 344 1266 344 c 256,22,23
 1327 344 1327 344 1370.5 305 c 128,-1,24
 1414 266 1414 266 1414 209 c 2,25,-1
 1414 49 l 1,26,-1
 1586 49 l 1,27,-1
 1586 0 l 1,28,-1
 1414 0 l 1,29,-1
 1414 -295 l 1,30,-1
 1352 -295 l 1,31,-1
 1352 0 l 1,32,-1
 873 0 l 1,33,-1
 873 37 l 1,34,35
 923 55 923 55 953 105.5 c 128,-1,36
 983 156 983 156 983 221 c 0,37,38
 983 282 983 282 944 325.5 c 128,-1,39
 905 369 905 369 848 369 c 0,40,41
 828 369 828 369 814.5 367 c 128,-1,42
 801 365 801 365 793 363 c 1,43,44
 795 354 795 354 797 340.5 c 128,-1,45
 799 327 799 327 799 307 c 0,46,47
 799 179 799 179 752.5 89.5 c 128,-1,48
 706 0 706 0 639 0 c 0,49,50
 603 0 603 0 578 36.5 c 128,-1,51
 553 73 553 73 553 123 c 0,52,53
 553 215 553 215 598.5 287.5 c 128,-1,54
 644 360 644 360 719 387 c 1,55,56
 680 495 680 495 600.5 561 c 128,-1,57
 521 627 521 627 430 627 c 0,58,59
 300 627 300 627 208.5 533.5 c 128,-1,60
 117 440 117 440 117 307 c 0,61,62
 117 264 117 264 131 217 c 128,-1,63
 145 170 145 170 172 123 c 1,64,65
 166 187 166 187 206.5 235 c 128,-1,66
 247 283 247 283 307 283 c 0,67,68
 368 283 368 283 411.5 240 c 128,-1,69
 455 197 455 197 455 135 c 256,70,71
 455 74 455 74 412 31 c 128,-1,72
 369 -12 369 -12 307 -12 c 0,73,74
 205 -12 205 -12 133 81.5 c 128,-1,75
 61 175 61 175 61 307 c 1,76,-1
 61 307 l 1,0,1
221 135 m 1,77,78
 221 94 221 94 246.5 65.5 c 128,-1,79
 272 37 272 37 307 37 c 256,80,81
 343 37 343 37 368 66 c 128,-1,82
 393 95 393 95 393 135 c 256,83,84
 393 176 393 176 366 205 c 128,-1,85
 339 234 339 234 301 234 c 0,86,87
 268 234 268 234 244.5 205 c 128,-1,88
 221 176 221 176 221 135 c 1,89,-1
 221 135 l 1,77,78
615 123 m 1,90,91
 615 92 615 92 622 70.5 c 128,-1,92
 629 49 629 49 639 49 c 0,93,94
 677 49 677 49 704 124.5 c 128,-1,95
 731 200 731 200 731 307 c 2,96,-1
 731 344 l 1,97,98
 678 324 678 324 646.5 263.5 c 128,-1,99
 615 203 615 203 615 123 c 1,100,-1
 615 123 l 1,90,91
1180 209 m 1,101,102
 1180 143 1180 143 1230.5 96 c 128,-1,103
 1281 49 1281 49 1352 49 c 1,104,-1
 1352 209 l 2,105,106
 1352 245 1352 245 1327 270 c 128,-1,107
 1302 295 1302 295 1266 295 c 256,108,109
 1230 295 1230 295 1205 270 c 128,-1,110
 1180 245 1180 245 1180 209 c 1,111,-1
 1180 209 l 1,101,102
EndSplineSet
Validated: 37
EndChar

StartChar: u0BF9
Encoding: 3065 3065 119
Width: 1587
VWidth: 1023
GlyphClass: 2
Flags: W
HStem: -320 50<334.959 573.45> 0 21G<343 404 552 613> 241 49<940.051 1026.37 1249 1537> 258 49<640.904 757.352> 443 49<404 552 613 785> 456 46<977.349 1010> 462 49<1084 1160.75> 688 50<400.267 811.314>
VStem: 50 56<33.6882 383.446> 343 61<0 443> 552 61<0 231.166 270 443> 810 62<-16.201 201.976> 869 55<306.19 407.537> 1041 58<308.049 455.436> 1205 52<294.75 420.12>
LayerCount: 2
Fore
SplineSet
986 290 m 0,0,1
 1009 290 1009 290 1025 307.5 c 128,-1,2
 1041 325 1041 325 1041 351 c 0,3,4
 1041 387 1041 387 1038 412.5 c 128,-1,5
 1035 438 1035 438 1029 456 c 1,6,7
 982 444 982 444 953 415 c 128,-1,8
 924 386 924 386 924 351 c 0,9,10
 924 325 924 325 942 307.5 c 128,-1,11
 960 290 960 290 986 290 c 0,0,1
454 -270 m 0,12,13
 602 -270 602 -270 706 -155.5 c 128,-1,14
 810 -41 810 -41 810 123 c 0,15,16
 810 180 810 180 775.5 219 c 128,-1,17
 741 258 741 258 693 258 c 0,18,19
 675 258 675 258 654 245 c 128,-1,20
 633 232 633 232 613 209 c 1,21,-1
 613 0 l 1,22,-1
 552 0 l 1,23,-1
 552 443 l 1,24,-1
 404 443 l 1,25,-1
 404 0 l 1,26,-1
 343 0 l 1,27,-1
 343 492 l 1,28,-1
 785 492 l 1,29,-1
 785 443 l 1,30,-1
 613 443 l 1,31,-1
 613 270 l 1,32,33
 623 287 623 287 646.5 297 c 128,-1,34
 670 307 670 307 699 307 c 0,35,36
 770 307 770 307 821 253 c 128,-1,37
 872 199 872 199 872 123 c 0,38,39
 872 -60 872 -60 749.5 -190 c 128,-1,40
 627 -320 627 -320 454 -320 c 0,41,42
 267 -320 267 -320 158.5 -163.5 c 128,-1,43
 50 -7 50 -7 50 216 c 0,44,45
 50 432 50 432 169.5 585 c 128,-1,46
 289 738 289 738 595 738 c 0,47,48
 812 738 812 738 925.5 674.5 c 128,-1,49
 1039 611 1039 611 1066 510 c 1,50,-1
 1084 511 l 1,51,52
 1125 511 1125 511 1169 489 c 0,53,54
 1242 451 1242 451 1255 372 c 0,55,56
 1257 360 1257 360 1257 348 c 0,57,58
 1257 323 1257 323 1249 294 c 1,59,-1
 1537 294 l 1,60,-1
 1537 243 l 1,61,-1
 1146 243 l 1,62,-1
 1181 287 l 2,63,64
 1205 317 1205 317 1205 353 c 0,65,66
 1205 364 1205 364 1203 374 c 0,67,68
 1196 422 1196 422 1153 444 c 0,69,70
 1118 462 1118 462 1084 462 c 1,71,72
 1091 446 1091 446 1095 418.5 c 128,-1,73
 1099 391 1099 391 1099 351 c 0,74,75
 1099 306 1099 306 1066 273.5 c 128,-1,76
 1033 241 1033 241 986 241 c 0,77,78
 938 241 938 241 903.5 273.5 c 128,-1,79
 869 306 869 306 869 351 c 0,80,81
 869 406 869 406 909 448.5 c 128,-1,82
 949 491 949 491 1010 502 c 1,83,84
 988 584 988 584 890.5 636.5 c 128,-1,85
 793 689 793 689 595 689 c 1,86,-1
 595 688 l 1,87,88
 310 688 310 688 208 549 c 128,-1,89
 106 410 106 410 106 216 c 0,90,91
 106 13 106 13 196.5 -128.5 c 128,-1,92
 287 -270 287 -270 454 -270 c 0,12,13
EndSplineSet
Validated: 1
EndChar

StartChar: u0BFA
Encoding: 3066 3066 120
Width: 1196
VWidth: 1023
GlyphClass: 2
Flags: W
LayerCount: 2
Fore
SplineSet
688 344 m 1,0,1
 688 318 688 318 706 300.5 c 128,-1,2
 724 283 724 283 750 283 c 0,3,4
 773 283 773 283 789 300.5 c 128,-1,5
 805 318 805 318 805 344 c 0,6,7
 805 380 805 380 802 405.5 c 128,-1,8
 799 431 799 431 793 449 c 1,9,10
 746 437 746 437 717 408 c 128,-1,11
 688 379 688 379 688 344 c 1,12,-1
 688 344 l 1,0,1
92 0 m 1,13,-1
 92 492 l 1,14,-1
 387 492 l 1,15,16
 372 506 372 506 364 531.5 c 128,-1,17
 356 557 356 557 356 590 c 0,18,19
 356 649 356 649 416 690 c 128,-1,20
 476 731 476 731 559 731 c 0,21,22
 651 731 651 731 727 667.5 c 128,-1,23
 803 604 803 604 830 503 c 1,24,-1
 848 504 l 2,25,26
 948 504 948 504 1018 446 c 128,-1,27
 1088 388 1088 388 1088 307 c 0,28,29
 1088 233 1088 233 1042 164.5 c 128,-1,30
 996 96 996 96 916 49 c 1,31,-1
 1186 49 l 1,32,-1
 1186 0 l 1,33,-1
 713 0 l 1,34,35
 857 53 857 53 945 137 c 128,-1,36
 1033 221 1033 221 1033 307 c 0,37,38
 1033 368 1033 368 978.5 411.5 c 128,-1,39
 924 455 924 455 848 455 c 1,40,41
 855 439 855 439 859 411.5 c 128,-1,42
 863 384 863 384 863 344 c 0,43,44
 863 299 863 299 830 266.5 c 128,-1,45
 797 234 797 234 750 234 c 0,46,47
 702 234 702 234 667.5 266.5 c 128,-1,48
 633 299 633 299 633 344 c 0,49,50
 633 399 633 399 673 441.5 c 128,-1,51
 713 484 713 484 774 495 c 1,52,53
 752 577 752 577 692 629.5 c 128,-1,54
 632 682 632 682 559 682 c 0,55,56
 498 682 498 682 455 655 c 128,-1,57
 412 628 412 628 412 590 c 0,58,59
 412 558 412 558 421.5 532 c 128,-1,60
 431 506 431 506 449 492 c 1,61,-1
 535 492 l 1,62,-1
 535 443 l 1,63,-1
 363 443 l 1,64,-1
 363 264 l 1,65,66
 378 281 378 281 400.5 291 c 128,-1,67
 423 301 423 301 449 301 c 0,68,69
 515 301 515 301 561.5 260 c 128,-1,70
 608 219 608 219 608 160 c 0,71,72
 608 94 608 94 558 47 c 128,-1,73
 508 0 508 0 436 0 c 2,74,-1
 301 0 l 1,75,-1
 301 49 l 1,76,-1
 436 49 l 2,77,78
 481 49 481 49 514 81.5 c 128,-1,79
 547 114 547 114 547 160 c 0,80,81
 547 196 547 196 518 221 c 128,-1,82
 489 246 489 246 449 246 c 0,83,84
 428 246 428 246 405 233 c 128,-1,85
 382 220 382 220 363 197 c 1,86,-1
 363 98 l 1,87,-1
 301 98 l 1,88,-1
 301 443 l 1,89,-1
 154 443 l 1,90,-1
 154 0 l 1,91,-1
 92 0 l 1,92,-1
 92 0 l 1,13,-1
EndSplineSet
Validated: 5
EndChar

StartChar: afii61664
Encoding: 8204 8204 121
Width: 0
VWidth: 1023
GlyphClass: 2
Flags: W
LayerCount: 2
Fore
SplineSet
1 -363 m 1,0,-1
 0 861 l 1,1,-1
 49 861 l 1,2,-1
 50 -363 l 1,3,-1
 1 -363 l 1,4,-1
 1 -363 l 1,0,-1
EndSplineSet
Validated: 5
EndChar

StartChar: afii301
Encoding: 8205 8205 122
Width: 0
VWidth: 1023
GlyphClass: 2
Flags: W
LayerCount: 2
Fore
SplineSet
0 -363 m 1,0,-1
 0 811 l 1,1,-1
 -197 811 l 1,2,-1
 -197 861 l 1,3,-1
 268 861 l 1,4,-1
 268 811 l 1,5,-1
 49 811 l 1,6,-1
 49 -363 l 1,7,-1
 0 -363 l 1,8,-1
 0 -363 l 1,0,-1
EndSplineSet
Validated: 5
EndChar

StartChar: endash
Encoding: 8211 8211 123
Width: 614
VWidth: 1023
GlyphClass: 2
Flags: W
LayerCount: 2
Fore
SplineSet
0 246 m 1,0,-1
 0 295 l 1,1,-1
 553 295 l 1,2,-1
 553 246 l 1,3,-1
 0 246 l 1,4,-1
 0 246 l 1,0,-1
EndSplineSet
Validated: 5
EndChar

StartChar: emdash
Encoding: 8212 8212 124
Width: 1229
VWidth: 1023
GlyphClass: 2
Flags: W
LayerCount: 2
Fore
SplineSet
0 246 m 1,0,-1
 0 295 l 1,1,-1
 1229 295 l 1,2,-1
 1229 246 l 1,3,-1
 0 246 l 1,4,-1
 0 246 l 1,0,-1
EndSplineSet
Validated: 5
EndChar

StartChar: quoteleft
Encoding: 8216 8216 125
Width: 288
VWidth: 1023
GlyphClass: 2
Flags: W
LayerCount: 2
Fore
SplineSet
92 516 m 1,0,1
 92 568 92 568 115.5 610.5 c 128,-1,2
 139 653 139 653 178 676 c 1,3,-1
 197 645 l 1,4,5
 171 630 171 630 156 602 c 128,-1,6
 141 574 141 574 141 541 c 1,7,8
 162 541 162 541 176.5 527 c 128,-1,9
 191 513 191 513 191 492 c 256,10,11
 191 471 191 471 178 457 c 128,-1,12
 165 443 165 443 148 443 c 0,13,14
 125 443 125 443 108.5 464.5 c 128,-1,15
 92 486 92 486 92 516 c 1,16,-1
 92 516 l 1,0,1
EndSplineSet
Validated: 5
EndChar

StartChar: quoteright
Encoding: 8217 8217 126
Width: 282
VWidth: 1023
GlyphClass: 2
Flags: W
LayerCount: 2
Fore
SplineSet
92 615 m 1,0,1
 92 636 92 636 106 650 c 128,-1,2
 120 664 120 664 141 664 c 256,3,4
 162 664 162 664 176.5 638.5 c 128,-1,5
 191 613 191 613 191 578 c 0,6,7
 191 539 191 539 167.5 502.5 c 128,-1,8
 144 466 144 466 104 443 c 1,9,-1
 92 467 l 1,10,11
 115 481 115 481 128 507.5 c 128,-1,12
 141 534 141 534 141 565 c 1,13,14
 120 565 120 565 106 579.5 c 128,-1,15
 92 594 92 594 92 615 c 1,16,-1
 92 615 l 1,0,1
EndSplineSet
Validated: 5
EndChar

StartChar: quotedblleft
Encoding: 8220 8220 127
Width: 454
VWidth: 1023
GlyphClass: 2
Flags: W
LayerCount: 2
Fore
SplineSet
92 516 m 1,0,1
 92 568 92 568 115.5 610.5 c 128,-1,2
 139 653 139 653 178 676 c 1,3,-1
 197 645 l 1,4,5
 171 630 171 630 156 602 c 128,-1,6
 141 574 141 574 141 541 c 1,7,8
 162 541 162 541 176.5 527 c 128,-1,9
 191 513 191 513 191 492 c 256,10,11
 191 471 191 471 178 457 c 128,-1,12
 165 443 165 443 148 443 c 0,13,14
 125 443 125 443 108.5 464.5 c 128,-1,15
 92 486 92 486 92 516 c 1,16,-1
 92 516 l 1,0,1
258 516 m 1,17,18
 258 568 258 568 281.5 610.5 c 128,-1,19
 305 653 305 653 344 676 c 1,20,-1
 363 645 l 1,21,22
 337 630 337 630 322 602 c 128,-1,23
 307 574 307 574 307 541 c 1,24,25
 328 541 328 541 342 527 c 128,-1,26
 356 513 356 513 356 492 c 256,27,28
 356 471 356 471 343.5 457 c 128,-1,29
 331 443 331 443 313 443 c 0,30,31
 290 443 290 443 274 464.5 c 128,-1,32
 258 486 258 486 258 516 c 1,33,-1
 258 516 l 1,17,18
EndSplineSet
Validated: 5
EndChar

StartChar: quotedblright
Encoding: 8221 8221 128
Width: 436
VWidth: 1023
GlyphClass: 2
Flags: W
LayerCount: 2
Fore
SplineSet
92 615 m 1,0,1
 92 636 92 636 106 650 c 128,-1,2
 120 664 120 664 141 664 c 256,3,4
 162 664 162 664 176.5 638.5 c 128,-1,5
 191 613 191 613 191 578 c 0,6,7
 191 539 191 539 167.5 502.5 c 128,-1,8
 144 466 144 466 104 443 c 1,9,-1
 92 467 l 1,10,11
 115 481 115 481 128 507.5 c 128,-1,12
 141 534 141 534 141 565 c 1,13,14
 120 565 120 565 106 579.5 c 128,-1,15
 92 594 92 594 92 615 c 1,16,-1
 92 615 l 1,0,1
246 615 m 1,17,18
 246 636 246 636 260 650 c 128,-1,19
 274 664 274 664 295 664 c 256,20,21
 316 664 316 664 330 638.5 c 128,-1,22
 344 613 344 613 344 578 c 0,23,24
 344 539 344 539 320.5 502.5 c 128,-1,25
 297 466 297 466 258 443 c 1,26,-1
 246 467 l 1,27,28
 269 481 269 481 282 507.5 c 128,-1,29
 295 534 295 534 295 565 c 1,30,31
 274 565 274 565 260 579.5 c 128,-1,32
 246 594 246 594 246 615 c 1,33,-1
 246 615 l 1,17,18
EndSplineSet
Validated: 5
EndChar

StartChar: ellipsis
Encoding: 8230 8230 129
Width: 974
VWidth: 1023
GlyphClass: 2
Flags: W
LayerCount: 2
Fore
SplineSet
207 61 m 1,0,-1
 207 0 l 1,1,-1
 92 0 l 1,2,-1
 92 61 l 1,3,-1
 207 61 l 1,4,-1
 207 61 l 1,0,-1
545 61 m 1,5,-1
 545 0 l 1,6,-1
 430 0 l 1,7,-1
 430 61 l 1,8,-1
 545 61 l 1,9,-1
 545 61 l 1,5,-1
883 61 m 1,10,-1
 883 0 l 1,11,-1
 768 0 l 1,12,-1
 768 61 l 1,13,-1
 883 61 l 1,14,-1
 883 61 l 1,10,-1
EndSplineSet
Validated: 5
EndChar

StartChar: minus
Encoding: 8722 8722 130
Width: 491
VWidth: 1023
GlyphClass: 2
Flags: W
LayerCount: 2
Fore
SplineSet
92 246 m 1,0,-1
 92 295 l 1,1,-1
 400 295 l 1,2,-1
 400 246 l 1,3,-1
 92 246 l 1,4,-1
 92 246 l 1,0,-1
EndSplineSet
Validated: 5
EndChar

StartChar: uni25CC
Encoding: 9676 9676 131
Width: 781
VWidth: 1023
GlyphClass: 2
Flags: W
LayerCount: 2
Fore
SplineSet
352 508 m 1,0,1
 352 524 352 524 363.5 535.5 c 128,-1,2
 375 547 375 547 391 547 c 0,3,4
 408 547 408 547 419.5 535.5 c 128,-1,5
 431 524 431 524 431 508 c 0,6,7
 431 491 431 491 419.5 479 c 128,-1,8
 408 467 408 467 391 467 c 0,9,10
 375 467 375 467 363.5 478.5 c 128,-1,11
 352 490 352 490 352 508 c 1,12,-1
 352 508 l 1,0,1
352 -11 m 1,13,14
 352 6 352 6 363.5 18 c 128,-1,15
 375 30 375 30 391 30 c 0,16,17
 408 30 408 30 419.5 18 c 128,-1,18
 431 6 431 6 431 -11 c 0,19,20
 431 -27 431 -27 419.5 -38.5 c 128,-1,21
 408 -50 408 -50 391 -50 c 0,22,23
 375 -50 375 -50 363.5 -38.5 c 128,-1,24
 352 -27 352 -27 352 -11 c 1,25,-1
 352 -11 l 1,13,14
92 248 m 1,26,27
 92 264 92 264 104 276 c 128,-1,28
 116 288 116 288 133 288 c 0,29,30
 149 288 149 288 160.5 276 c 128,-1,31
 172 264 172 264 172 248 c 256,32,33
 172 232 172 232 160.5 220.5 c 128,-1,34
 149 209 149 209 133 209 c 0,35,36
 116 209 116 209 104 220.5 c 128,-1,37
 92 232 92 232 92 248 c 1,38,-1
 92 248 l 1,26,27
610 248 m 1,39,40
 610 264 610 264 621.5 276 c 128,-1,41
 633 288 633 288 650 288 c 0,42,43
 666 288 666 288 678 276 c 128,-1,44
 690 264 690 264 690 248 c 256,45,46
 690 232 690 232 678 220.5 c 128,-1,47
 666 209 666 209 650 209 c 0,48,49
 633 209 633 209 621.5 220.5 c 128,-1,50
 610 232 610 232 610 248 c 1,51,-1
 610 248 l 1,39,40
127 119 m 1,52,53
 127 135 127 135 138.5 147 c 128,-1,54
 150 159 150 159 167 159 c 0,55,56
 183 159 183 159 195 147 c 128,-1,57
 207 135 207 135 207 119 c 0,58,59
 207 102 207 102 195 90.5 c 128,-1,60
 183 79 183 79 167 79 c 0,61,62
 150 79 150 79 138.5 90.5 c 128,-1,63
 127 102 127 102 127 119 c 1,64,-1
 127 119 l 1,52,53
575 377 m 1,65,66
 575 394 575 394 587 406 c 128,-1,67
 599 418 599 418 615 418 c 256,68,69
 631 418 631 418 642.5 406.5 c 128,-1,70
 654 395 654 395 654 377 c 0,71,72
 654 361 654 361 642.5 349.5 c 128,-1,73
 631 338 631 338 615 338 c 256,74,75
 599 338 599 338 587 349.5 c 128,-1,76
 575 361 575 361 575 377 c 1,77,-1
 575 377 l 1,65,66
481 473 m 1,78,79
 481 489 481 489 492.5 501 c 128,-1,80
 504 513 504 513 521 513 c 0,81,82
 537 513 537 513 549 501 c 128,-1,83
 561 489 561 489 561 473 c 0,84,85
 561 456 561 456 549 444.5 c 128,-1,86
 537 433 537 433 521 433 c 0,87,88
 504 433 504 433 492.5 444.5 c 128,-1,89
 481 456 481 456 481 473 c 1,90,-1
 481 473 l 1,78,79
223 23 m 1,91,92
 223 40 223 40 234.5 52.5 c 128,-1,93
 246 65 246 65 262 65 c 256,94,95
 278 65 278 65 289.5 53 c 128,-1,96
 301 41 301 41 301 23 c 0,97,98
 301 7 301 7 289.5 -4.5 c 128,-1,99
 278 -16 278 -16 262 -16 c 256,100,101
 246 -16 246 -16 234.5 -4.5 c 128,-1,102
 223 7 223 7 223 23 c 1,103,-1
 223 23 l 1,91,92
127 377 m 1,104,105
 127 394 127 394 138.5 406 c 128,-1,106
 150 418 150 418 167 418 c 0,107,108
 183 418 183 418 195 406.5 c 128,-1,109
 207 395 207 395 207 377 c 0,110,111
 207 361 207 361 195 349.5 c 128,-1,112
 183 338 183 338 167 338 c 0,113,114
 150 338 150 338 138.5 349.5 c 128,-1,115
 127 361 127 361 127 377 c 1,116,-1
 127 377 l 1,104,105
575 119 m 1,117,118
 575 135 575 135 587 147 c 128,-1,119
 599 159 599 159 615 159 c 256,120,121
 631 159 631 159 642.5 147 c 128,-1,122
 654 135 654 135 654 119 c 0,123,124
 654 102 654 102 642.5 90.5 c 128,-1,125
 631 79 631 79 615 79 c 256,126,127
 599 79 599 79 587 90.5 c 128,-1,128
 575 102 575 102 575 119 c 1,129,-1
 575 119 l 1,117,118
223 473 m 1,130,131
 223 489 223 489 234.5 501 c 128,-1,132
 246 513 246 513 262 513 c 256,133,134
 278 513 278 513 289.5 501 c 128,-1,135
 301 489 301 489 301 473 c 0,136,137
 301 456 301 456 289.5 444.5 c 128,-1,138
 278 433 278 433 262 433 c 256,139,140
 246 433 246 433 234.5 444.5 c 128,-1,141
 223 456 223 456 223 473 c 1,142,-1
 223 473 l 1,130,131
481 23 m 1,143,144
 481 40 481 40 492.5 52.5 c 128,-1,145
 504 65 504 65 521 65 c 0,146,147
 537 65 537 65 549 53 c 128,-1,148
 561 41 561 41 561 23 c 0,149,150
 561 7 561 7 549 -4.5 c 128,-1,151
 537 -16 537 -16 521 -16 c 0,152,153
 504 -16 504 -16 492.5 -4.5 c 128,-1,154
 481 7 481 7 481 23 c 1,155,-1
 481 23 l 1,143,144
EndSplineSet
Validated: 5
EndChar

StartChar: u0B95_u0BBF.abvs
Encoding: 65537 -1 132
Width: 839
VWidth: 1023
GlyphClass: 2
Flags: W
LayerCount: 2
Fore
SplineSet
219 270 m 1,0,-1
 342 270 l 1,1,-1
 342 443 l 1,2,-1
 219 443 l 1,3,-1
 219 270 l 1,4,-1
 219 270 l 1,0,-1
96 160 m 1,5,6
 96 110 96 110 135.5 73.5 c 128,-1,7
 175 37 175 37 231 37 c 0,8,9
 276 37 276 37 309 66 c 128,-1,10
 342 95 342 95 342 135 c 2,11,-1
 342 221 l 1,12,-1
 157 221 l 2,13,14
 131 221 131 221 113.5 203.5 c 128,-1,15
 96 186 96 186 96 160 c 1,16,-1
 96 160 l 1,5,6
157 492 m 1,17,-1
 354 492 l 1,18,19
 331 520 331 520 318 555 c 128,-1,20
 305 590 305 590 305 627 c 0,21,22
 305 703 305 703 369.5 757 c 128,-1,23
 434 811 434 811 526 811 c 256,24,25
 618 811 618 811 682.5 743 c 128,-1,26
 747 675 747 675 747 578 c 2,27,-1
 747 0 l 1,28,-1
 686 0 l 1,29,-1
 686 578 l 2,30,31
 686 654 686 654 639.5 708 c 128,-1,32
 593 762 593 762 526 762 c 256,33,34
 460 762 460 762 413 722.5 c 128,-1,35
 366 683 366 683 366 627 c 0,36,37
 366 584 366 584 386 547.5 c 128,-1,38
 406 511 406 511 440 492 c 1,39,-1
 588 492 l 1,40,-1
 588 443 l 1,41,-1
 403 443 l 1,42,-1
 403 270 l 1,43,-1
 477 270 l 2,44,45
 534 270 534 270 573 231 c 128,-1,46
 612 192 612 192 612 135 c 0,47,48
 612 74 612 74 576 31 c 128,-1,49
 540 -12 540 -12 489 -12 c 0,50,51
 475 -12 475 -12 460 -9 c 128,-1,52
 445 -6 445 -6 428 0 c 1,53,-1
 440 49 l 1,54,55
 451 43 451 43 463.5 40 c 128,-1,56
 476 37 476 37 489 37 c 0,57,58
 515 37 515 37 533 66 c 128,-1,59
 551 95 551 95 551 135 c 0,60,61
 551 171 551 171 529.5 196 c 128,-1,62
 508 221 508 221 477 221 c 2,63,-1
 403 221 l 1,64,-1
 403 135 l 2,65,66
 403 74 403 74 352.5 31 c 128,-1,67
 302 -12 302 -12 231 -12 c 0,68,69
 150 -12 150 -12 92 38.5 c 128,-1,70
 34 89 34 89 34 160 c 0,71,72
 34 205 34 205 70.5 237.5 c 128,-1,73
 107 270 107 270 157 270 c 1,74,-1
 157 492 l 1,75,-1
 157 492 l 1,17,-1
EndSplineSet
Validated: 5
LCarets2: 1 0 
Ligature2: "'abvs' Above Base Substitutions in Tamil lookup 0 subtable" u0B95 u0BBF
EndChar

StartChar: u0B99_u0BBF.abvs
Encoding: 65538 -1 133
Width: 1069
VWidth: 1023
GlyphClass: 2
Flags: W
LayerCount: 2
Fore
SplineSet
92 492 m 1,0,-1
 467 492 l 1,1,-1
 467 443 l 1,2,-1
 363 443 l 1,3,-1
 363 264 l 1,4,5
 388 285 388 285 413 296 c 128,-1,6
 438 307 438 307 461 307 c 0,7,8
 522 307 522 307 565 264 c 128,-1,9
 608 221 608 221 608 160 c 0,10,11
 608 129 608 129 593.5 100 c 128,-1,12
 579 71 579 71 553 49 c 1,13,-1
 744 49 l 1,14,-1
 744 320 l 1,15,16
 727 308 727 308 707.5 301.5 c 128,-1,17
 688 295 688 295 670 295 c 0,18,19
 599 295 599 295 548.5 359.5 c 128,-1,20
 498 424 498 424 498 516 c 0,21,22
 498 644 498 644 568 734 c 128,-1,23
 638 824 638 824 738 824 c 256,24,25
 838 824 838 824 907.5 748 c 128,-1,26
 977 672 977 672 977 565 c 2,27,-1
 977 0 l 1,28,-1
 916 0 l 1,29,-1
 916 572 l 2,30,31
 916 651 916 651 862 706.5 c 128,-1,32
 808 762 808 762 731 762 c 0,33,34
 660 762 660 762 609.5 690 c 128,-1,35
 559 618 559 618 559 516 c 0,36,37
 559 447 559 447 591.5 398.5 c 128,-1,38
 624 350 624 350 670 350 c 0,39,40
 691 350 691 350 710 360 c 128,-1,41
 729 370 729 370 744 387 c 1,42,-1
 744 492 l 1,43,-1
 805 492 l 1,44,-1
 805 0 l 1,45,-1
 301 0 l 1,46,-1
 301 49 l 1,47,-1
 436 49 l 2,48,49
 481 49 481 49 514 81.5 c 128,-1,50
 547 114 547 114 547 160 c 0,51,52
 547 196 547 196 518 221 c 128,-1,53
 489 246 489 246 449 246 c 0,54,55
 428 246 428 246 405 233 c 128,-1,56
 382 220 382 220 363 197 c 1,57,-1
 363 98 l 1,58,-1
 301 98 l 1,59,-1
 301 443 l 1,60,-1
 154 443 l 1,61,-1
 154 0 l 1,62,-1
 92 0 l 1,63,-1
 92 492 l 1,64,-1
 92 492 l 1,0,-1
EndSplineSet
Validated: 5
LCarets2: 1 0 
Ligature2: "'abvs' Above Base Substitutions in Tamil lookup 0 subtable" u0B99 u0BBF
EndChar

StartChar: u0B9A_u0BBF.abvs
Encoding: 65539 -1 134
Width: 802
VWidth: 1023
GlyphClass: 2
Flags: W
LayerCount: 2
Fore
SplineSet
219 270 m 1,0,-1
 342 270 l 1,1,-1
 342 443 l 1,2,-1
 219 443 l 1,3,-1
 219 270 l 1,4,-1
 219 270 l 1,0,-1
96 160 m 1,5,6
 96 110 96 110 135.5 73.5 c 128,-1,7
 175 37 175 37 231 37 c 0,8,9
 276 37 276 37 309 66 c 128,-1,10
 342 95 342 95 342 135 c 2,11,-1
 342 221 l 1,12,-1
 157 221 l 2,13,14
 131 221 131 221 113.5 203.5 c 128,-1,15
 96 186 96 186 96 160 c 1,16,-1
 96 160 l 1,5,6
157 492 m 1,17,-1
 329 492 l 1,18,19
 299 517 299 517 283.5 552.5 c 128,-1,20
 268 588 268 588 268 627 c 0,21,22
 268 703 268 703 329.5 757 c 128,-1,23
 391 811 391 811 477 811 c 0,24,25
 574 811 574 811 642.5 739.5 c 128,-1,26
 711 668 711 668 711 565 c 2,27,-1
 711 0 l 1,28,-1
 649 0 l 1,29,-1
 649 565 l 2,30,31
 649 646 649 646 598.5 704 c 128,-1,32
 548 762 548 762 477 762 c 0,33,34
 416 762 416 762 372.5 722.5 c 128,-1,35
 329 683 329 683 329 627 c 0,36,37
 329 584 329 584 349 547.5 c 128,-1,38
 369 511 369 511 403 492 c 1,39,-1
 551 492 l 1,40,-1
 551 443 l 1,41,-1
 403 443 l 1,42,-1
 403 270 l 1,43,-1
 551 270 l 1,44,-1
 551 221 l 1,45,-1
 403 221 l 1,46,-1
 403 135 l 2,47,48
 403 74 403 74 352.5 31 c 128,-1,49
 302 -12 302 -12 231 -12 c 0,50,51
 150 -12 150 -12 92 38.5 c 128,-1,52
 34 89 34 89 34 160 c 0,53,54
 34 205 34 205 70.5 237.5 c 128,-1,55
 107 270 107 270 157 270 c 1,56,-1
 157 492 l 1,57,-1
 157 492 l 1,17,-1
EndSplineSet
Validated: 5
LCarets2: 1 0 
Ligature2: "'abvs' Above Base Substitutions in Tamil lookup 0 subtable" u0B9A u0BBF
EndChar

StartChar: u0B9C_u0BBF.abvs
Encoding: 65540 -1 135
Width: 1041
VWidth: 1023
GlyphClass: 2
Flags: W
LayerCount: 2
Fore
SplineSet
101 246 m 1,0,1
 101 215 101 215 126 193.5 c 128,-1,2
 151 172 151 172 187 172 c 0,3,4
 218 172 218 172 239.5 193.5 c 128,-1,5
 261 215 261 215 261 246 c 256,6,7
 261 277 261 277 239.5 298.5 c 128,-1,8
 218 320 218 320 187 320 c 0,9,10
 151 320 151 320 126 298.5 c 128,-1,11
 101 277 101 277 101 246 c 1,12,-1
 101 246 l 1,0,1
439 406 m 1,13,14
 467 447 467 447 502.5 470.5 c 128,-1,15
 538 494 538 494 574 498 c 1,16,17
 535 521 535 521 511.5 563.5 c 128,-1,18
 488 606 488 606 488 658 c 0,19,20
 488 722 488 722 549.5 766.5 c 128,-1,21
 611 811 611 811 697 811 c 0,22,23
 801 811 801 811 875 743 c 128,-1,24
 949 675 949 675 949 578 c 2,25,-1
 949 0 l 1,26,-1
 888 0 l 1,27,-1
 888 572 l 2,28,29
 888 651 888 651 832 706.5 c 128,-1,30
 776 762 776 762 697 762 c 0,31,32
 633 762 633 762 588 729.5 c 128,-1,33
 543 697 543 697 543 652 c 0,34,35
 543 604 543 604 573.5 563 c 128,-1,36
 604 522 604 522 654 504 c 0,37,38
 720 479 720 479 760.5 415.5 c 128,-1,39
 801 352 801 352 801 270 c 0,40,41
 801 173 801 173 736.5 105 c 128,-1,42
 672 37 672 37 580 37 c 2,43,-1
 236 37 l 2,44,45
 186 37 186 37 149.5 -10 c 128,-1,46
 113 -57 113 -57 113 -123 c 0,47,48
 113 -194 113 -194 149.5 -244.5 c 128,-1,49
 186 -295 186 -295 236 -295 c 0,50,51
 278 -295 278 -295 320.5 -262 c 128,-1,52
 363 -229 363 -229 396 -172 c 0,53,54
 443 -92 443 -92 514.5 -46 c 128,-1,55
 586 0 586 0 666 0 c 0,56,57
 716 0 716 0 752.5 -54 c 128,-1,58
 789 -108 789 -108 789 -184 c 0,59,60
 789 -253 789 -253 753 -301.5 c 128,-1,61
 717 -350 717 -350 666 -350 c 0,62,63
 605 -350 605 -350 562 -298 c 128,-1,64
 519 -246 519 -246 519 -172 c 1,65,-1
 549 -172 l 1,66,67
 559 -225 559 -225 581.5 -260 c 128,-1,68
 604 -295 604 -295 629 -295 c 0,69,70
 670 -295 670 -295 699 -262.5 c 128,-1,71
 728 -230 728 -230 728 -184 c 0,72,73
 728 -127 728 -127 702.5 -88 c 128,-1,74
 677 -49 677 -49 642 -49 c 0,75,76
 590 -49 590 -49 538.5 -85.5 c 128,-1,77
 487 -122 487 -122 451 -184 c 0,78,79
 408 -258 408 -258 350.5 -301 c 128,-1,80
 293 -344 293 -344 236 -344 c 0,81,82
 160 -344 160 -344 106 -279.5 c 128,-1,83
 52 -215 52 -215 52 -123 c 0,84,85
 52 -37 52 -37 106 24.5 c 128,-1,86
 160 86 160 86 236 86 c 2,87,-1
 580 86 l 2,88,89
 646 86 646 86 693 140 c 128,-1,90
 740 194 740 194 740 270 c 256,91,92
 740 346 740 346 700.5 400.5 c 128,-1,93
 661 455 661 455 605 455 c 256,94,95
 548 455 548 455 509 415.5 c 128,-1,96
 470 376 470 376 470 320 c 2,97,-1
 470 135 l 1,98,-1
 408 135 l 1,99,-1
 408 320 l 2,100,101
 408 377 408 377 365 416 c 128,-1,102
 322 455 322 455 261 455 c 0,103,104
 201 455 201 455 156 420 c 128,-1,105
 111 385 111 385 101 332 c 1,106,107
 116 349 116 349 138.5 359 c 128,-1,108
 161 369 161 369 187 369 c 0,109,110
 237 369 237 369 273.5 332.5 c 128,-1,111
 310 296 310 296 310 246 c 256,112,113
 310 196 310 196 273.5 159.5 c 128,-1,114
 237 123 237 123 187 123 c 0,115,116
 126 123 126 123 89 161.5 c 128,-1,117
 52 200 52 200 52 264 c 0,118,119
 52 372 52 372 109 438 c 128,-1,120
 166 504 166 504 261 504 c 0,121,122
 318 504 318 504 365.5 477.5 c 128,-1,123
 413 451 413 451 439 406 c 1,124,-1
 439 406 l 1,13,14
EndSplineSet
Validated: 5
LCarets2: 1 0 
Ligature2: "'abvs' Above Base Substitutions in Tamil lookup 0 subtable" u0B9C u0BBF
EndChar

StartChar: u0B9E_u0BBF.abvs
Encoding: 65541 -1 136
Width: 1290
VWidth: 1023
GlyphClass: 2
Flags: W
LayerCount: 2
Fore
SplineSet
381 135 m 1,0,1
 381 94 381 94 406 65.5 c 128,-1,2
 431 37 431 37 467 37 c 256,3,4
 503 37 503 37 528 66 c 128,-1,5
 553 95 553 95 553 135 c 256,6,7
 553 176 553 176 528 205 c 128,-1,8
 503 234 503 234 467 234 c 256,9,10
 431 234 431 234 406 205 c 128,-1,11
 381 176 381 176 381 135 c 1,12,-1
 381 135 l 1,0,1
74 197 m 1,13,14
 74 290 74 290 96 366.5 c 128,-1,15
 118 443 118 443 160 492 c 1,16,-1
 209 467 l 1,17,18
 171 429 171 429 150 358.5 c 128,-1,19
 129 288 129 288 129 197 c 0,20,21
 129 4 129 4 271 -133 c 128,-1,22
 413 -270 413 -270 615 -270 c 0,23,24
 772 -270 772 -270 884 -162 c 128,-1,25
 996 -54 996 -54 996 98 c 0,26,27
 996 151 996 151 963.5 189 c 128,-1,28
 931 227 931 227 885 227 c 0,29,30
 864 227 864 227 844.5 214.5 c 128,-1,31
 825 202 825 202 811 178 c 1,32,-1
 811 0 l 1,33,-1
 750 0 l 1,34,-1
 750 443 l 1,35,-1
 529 443 l 2,36,37
 425 443 425 443 351 374.5 c 128,-1,38
 277 306 277 306 277 209 c 0,39,40
 277 168 277 168 296 129.5 c 128,-1,41
 315 91 315 91 350 61 c 1,42,43
 341 77 341 77 336.5 95.5 c 128,-1,44
 332 114 332 114 332 135 c 0,45,46
 332 196 332 196 371.5 239.5 c 128,-1,47
 411 283 411 283 467 283 c 256,48,49
 524 283 524 283 563 240 c 128,-1,50
 602 197 602 197 602 135 c 256,51,52
 602 74 602 74 563 31 c 128,-1,53
 524 -12 524 -12 467 -12 c 0,54,55
 355 -12 355 -12 288 48 c 128,-1,56
 221 108 221 108 221 209 c 0,57,58
 221 326 221 326 311 409 c 128,-1,59
 401 492 401 492 529 492 c 2,60,-1
 762 492 l 1,61,62
 741 513 741 513 730 541.5 c 128,-1,63
 719 570 719 570 719 602 c 0,64,65
 719 688 719 688 791 749.5 c 128,-1,66
 863 811 863 811 965 811 c 0,67,68
 1062 811 1062 811 1130.5 753.5 c 128,-1,69
 1199 696 1199 696 1199 615 c 2,70,-1
 1199 0 l 1,71,-1
 1137 0 l 1,72,-1
 1137 615 l 2,73,74
 1137 676 1137 676 1086.5 719 c 128,-1,75
 1036 762 1036 762 965 762 c 0,76,77
 889 762 889 762 835 715.5 c 128,-1,78
 781 669 781 669 781 602 c 0,79,80
 781 566 781 566 793.5 537 c 128,-1,81
 806 508 806 508 830 492 c 1,82,-1
 1008 492 l 1,83,-1
 1008 443 l 1,84,-1
 811 443 l 1,85,-1
 811 246 l 1,86,87
 826 263 826 263 845 273 c 128,-1,88
 864 283 864 283 885 283 c 0,89,90
 956 283 956 283 1006.5 229 c 128,-1,91
 1057 175 1057 175 1057 98 c 0,92,93
 1057 -75 1057 -75 927.5 -197.5 c 128,-1,94
 798 -320 798 -320 615 -320 c 0,95,96
 391 -320 391 -320 232.5 -168.5 c 128,-1,97
 74 -17 74 -17 74 197 c 1,98,-1
 74 197 l 1,13,14
EndSplineSet
Validated: 5
LCarets2: 1 0 
Ligature2: "'abvs' Above Base Substitutions in Tamil lookup 0 subtable" u0B9E u0BBF
EndChar

StartChar: u0B9F_u0BBF.abvs
Encoding: 65542 -1 137
Width: 815
VWidth: 1023
GlyphClass: 2
Flags: W
LayerCount: 2
Fore
SplineSet
92 0 m 1,0,-1
 92 492 l 1,1,-1
 154 492 l 1,2,-1
 154 49 l 1,3,-1
 363 49 l 1,4,5
 318 75 318 75 291 125 c 128,-1,6
 264 175 264 175 264 234 c 0,7,8
 264 298 264 298 307 342.5 c 128,-1,9
 350 387 350 387 412 387 c 256,10,11
 473 387 473 387 516 342 c 128,-1,12
 559 297 559 297 559 234 c 2,13,-1
 559 49 l 1,14,-1
 805 49 l 1,15,-1
 805 0 l 1,16,-1
 559 0 l 1,17,-1
 559 -307 l 1,18,-1
 498 -307 l 1,19,-1
 498 0 l 1,20,-1
 92 0 l 1,21,-1
 92 0 l 1,0,-1
326 234 m 1,22,23
 326 164 326 164 364 111.5 c 128,-1,24
 402 59 402 59 461 49 c 1,25,-1
 498 49 l 1,26,-1
 498 234 l 2,27,28
 498 275 498 275 472.5 303.5 c 128,-1,29
 447 332 447 332 412 332 c 256,30,31
 376 332 376 332 351 303 c 128,-1,32
 326 274 326 274 326 234 c 1,33,-1
 326 234 l 1,22,23
EndSplineSet
Validated: 5
LCarets2: 1 0 
Ligature2: "'abvs' Above Base Substitutions in Tamil lookup 0 subtable" u0B9F u0BBF
EndChar

StartChar: u0BA3_u0BBF.abvs
Encoding: 65543 -1 138
Width: 1523
VWidth: 1023
GlyphClass: 2
Flags: W
LayerCount: 2
Fore
SplineSet
189 135 m 1,0,1
 189 94 189 94 210.5 65.5 c 128,-1,2
 232 37 232 37 263 37 c 256,3,4
 294 37 294 37 315.5 66 c 128,-1,5
 337 95 337 95 337 135 c 256,6,7
 337 176 337 176 315.5 205 c 128,-1,8
 294 234 294 234 263 234 c 256,9,10
 232 234 232 234 210.5 205 c 128,-1,11
 189 176 189 176 189 135 c 1,12,-1
 189 135 l 1,0,1
484 197 m 1,13,14
 484 131 484 131 502 84 c 128,-1,15
 520 37 520 37 546 37 c 256,16,17
 572 37 572 37 589.5 83.5 c 128,-1,18
 607 130 607 130 607 197 c 0,19,20
 607 242 607 242 591 284.5 c 128,-1,21
 575 327 575 327 546 363 c 1,22,23
 516 327 516 327 500 284.5 c 128,-1,24
 484 242 484 242 484 197 c 1,25,-1
 484 197 l 1,13,14
779 197 m 1,26,27
 779 131 779 131 797 84 c 128,-1,28
 815 37 815 37 841 37 c 256,29,30
 867 37 867 37 884.5 83.5 c 128,-1,31
 902 130 902 130 902 197 c 0,32,33
 902 245 902 245 886 289 c 128,-1,34
 870 333 870 333 841 369 c 1,35,36
 811 333 811 333 795 289 c 128,-1,37
 779 245 779 245 779 197 c 1,38,-1
 779 197 l 1,26,27
976 492 m 1,39,-1
 1087 492 l 1,40,41
 1051 522 1051 522 1032 557.5 c 128,-1,42
 1013 593 1013 593 1013 627 c 0,43,44
 1013 703 1013 703 1070.5 757 c 128,-1,45
 1128 811 1128 811 1210 811 c 0,46,47
 1302 811 1302 811 1366.5 753.5 c 128,-1,48
 1431 696 1431 696 1431 615 c 2,49,-1
 1431 0 l 1,50,-1
 1369 0 l 1,51,-1
 1369 615 l 2,52,53
 1369 676 1369 676 1322.5 719 c 128,-1,54
 1276 762 1276 762 1210 762 c 0,55,56
 1153 762 1153 762 1113.5 722.5 c 128,-1,57
 1074 683 1074 683 1074 627 c 0,58,59
 1074 588 1074 588 1097.5 551.5 c 128,-1,60
 1121 515 1121 515 1160 492 c 1,61,-1
 1296 492 l 1,62,-1
 1296 443 l 1,63,-1
 1148 443 l 1,64,-1
 1148 0 l 1,65,-1
 1087 0 l 1,66,-1
 1087 443 l 1,67,-1
 976 443 l 2,68,69
 954 443 954 443 929 435 c 128,-1,70
 904 427 904 427 878 412 c 1,71,72
 920 363 920 363 942 307 c 128,-1,73
 964 251 964 251 964 197 c 0,74,75
 964 111 964 111 927.5 49.5 c 128,-1,76
 891 -12 891 -12 841 -12 c 256,77,78
 791 -12 791 -12 754.5 49.5 c 128,-1,79
 718 111 718 111 718 197 c 0,80,81
 718 267 718 267 739 323.5 c 128,-1,82
 760 380 760 380 798 412 c 1,83,84
 773 433 773 433 746 444 c 128,-1,85
 719 455 719 455 693 455 c 256,86,87
 667 455 667 455 639 442 c 128,-1,88
 611 429 611 429 583 406 c 1,89,90
 624 372 624 372 646.5 317 c 128,-1,91
 669 262 669 262 669 197 c 0,92,93
 669 111 669 111 632.5 49.5 c 128,-1,94
 596 -12 596 -12 546 -12 c 256,95,96
 496 -12 496 -12 459.5 49.5 c 128,-1,97
 423 111 423 111 423 197 c 0,98,99
 423 255 423 255 444 310 c 128,-1,100
 465 365 465 365 503 412 c 1,101,102
 478 433 478 433 442 444 c 128,-1,103
 406 455 406 455 361 455 c 0,104,105
 254 455 254 455 178.5 383 c 128,-1,106
 103 311 103 311 103 209 c 0,107,108
 103 154 103 154 121 109 c 128,-1,109
 139 64 139 64 171 37 c 1,110,111
 156 63 156 63 148 88 c 128,-1,112
 140 113 140 113 140 135 c 0,113,114
 140 196 140 196 176.5 239.5 c 128,-1,115
 213 283 213 283 263 283 c 256,116,117
 313 283 313 283 349.5 240 c 128,-1,118
 386 197 386 197 386 135 c 256,119,120
 386 74 386 74 343 31 c 128,-1,121
 300 -12 300 -12 238 -12 c 0,122,123
 162 -12 162 -12 108 52.5 c 128,-1,124
 54 117 54 117 54 209 c 0,125,126
 54 331 54 331 144 417.5 c 128,-1,127
 234 504 234 504 361 504 c 0,128,129
 419 504 419 504 466.5 490 c 128,-1,130
 514 476 514 476 546 449 c 1,131,132
 578 476 578 476 616 490 c 128,-1,133
 654 504 654 504 693 504 c 0,134,135
 736 504 736 504 775.5 490 c 128,-1,136
 815 476 815 476 847 449 c 1,137,138
 872 470 872 470 905 481 c 128,-1,139
 938 492 938 492 976 492 c 1,140,-1
 976 492 l 1,39,-1
EndSplineSet
Validated: 5
LCarets2: 1 0 
Ligature2: "'abvs' Above Base Substitutions in Tamil lookup 0 subtable" u0BA3 u0BBF
EndChar

StartChar: u0BA4_u0BBF.abvs
Encoding: 65544 -1 139
Width: 839
VWidth: 1023
GlyphClass: 2
Flags: W
LayerCount: 2
Fore
SplineSet
219 443 m 1,0,-1
 219 270 l 1,1,-1
 342 270 l 1,2,-1
 342 443 l 1,3,-1
 219 443 l 1,4,-1
 219 443 l 1,0,-1
96 160 m 1,5,6
 96 110 96 110 135.5 73.5 c 128,-1,7
 175 37 175 37 231 37 c 0,8,9
 276 37 276 37 309 66 c 128,-1,10
 342 95 342 95 342 135 c 2,11,-1
 342 221 l 1,12,-1
 157 221 l 2,13,14
 131 221 131 221 113.5 203.5 c 128,-1,15
 96 186 96 186 96 160 c 1,16,-1
 96 160 l 1,5,6
157 492 m 1,17,-1
 354 492 l 1,18,19
 331 520 331 520 318 555 c 128,-1,20
 305 590 305 590 305 627 c 0,21,22
 305 703 305 703 366.5 757 c 128,-1,23
 428 811 428 811 514 811 c 0,24,25
 611 811 611 811 679 739.5 c 128,-1,26
 747 668 747 668 747 565 c 2,27,-1
 747 0 l 1,28,-1
 686 0 l 1,29,-1
 686 565 l 2,30,31
 686 646 686 646 635.5 704 c 128,-1,32
 585 762 585 762 514 762 c 0,33,34
 453 762 453 762 409.5 722.5 c 128,-1,35
 366 683 366 683 366 627 c 0,36,37
 366 588 366 588 382 552 c 128,-1,38
 398 516 398 516 428 492 c 1,39,-1
 575 492 l 1,40,-1
 575 443 l 1,41,-1
 403 443 l 1,42,-1
 403 270 l 1,43,-1
 452 270 l 2,44,45
 523 270 523 270 573.5 227 c 128,-1,46
 624 184 624 184 624 123 c 0,47,48
 624 21 624 21 556 -51 c 128,-1,49
 488 -123 488 -123 391 -123 c 2,50,-1
 157 -123 l 2,51,52
 126 -123 126 -123 105 -148 c 128,-1,53
 84 -173 84 -173 84 -209 c 0,54,55
 84 -234 84 -234 96.5 -256.5 c 128,-1,56
 109 -279 109 -279 133 -295 c 1,57,-1
 96 -338 l 1,58,59
 62 -318 62 -318 42 -284 c 128,-1,60
 22 -250 22 -250 22 -209 c 0,61,62
 22 -152 22 -152 61.5 -113 c 128,-1,63
 101 -74 101 -74 157 -74 c 2,64,-1
 391 -74 l 2,65,66
 462 -74 462 -74 512.5 -16 c 128,-1,67
 563 42 563 42 563 123 c 0,68,69
 563 164 563 164 530.5 192.5 c 128,-1,70
 498 221 498 221 452 221 c 2,71,-1
 403 221 l 1,72,-1
 403 135 l 2,73,74
 403 74 403 74 352.5 31 c 128,-1,75
 302 -12 302 -12 231 -12 c 0,76,77
 150 -12 150 -12 92 38.5 c 128,-1,78
 34 89 34 89 34 160 c 0,79,80
 34 205 34 205 70.5 237.5 c 128,-1,81
 107 270 107 270 157 270 c 1,82,-1
 157 492 l 1,83,-1
 157 492 l 1,17,-1
EndSplineSet
Validated: 5
LCarets2: 1 0 
Ligature2: "'abvs' Above Base Substitutions in Tamil lookup 0 subtable" u0BA4 u0BBF
EndChar

StartChar: u0BA8_u0BBF.abvs
Encoding: 65545 -1 140
Width: 848
VWidth: 1023
GlyphClass: 2
Flags: W
LayerCount: 2
Fore
SplineSet
92 492 m 1,0,-1
 313 492 l 1,1,2
 295 524 295 524 286 551.5 c 128,-1,3
 277 579 277 579 277 602 c 0,4,5
 277 688 277 688 348.5 749.5 c 128,-1,6
 420 811 420 811 522 811 c 0,7,8
 619 811 619 811 687.5 753.5 c 128,-1,9
 756 696 756 696 756 615 c 2,10,-1
 756 0 l 1,11,-1
 695 0 l 1,12,-1
 695 615 l 2,13,14
 695 676 695 676 644.5 719 c 128,-1,15
 594 762 594 762 522 762 c 0,16,17
 446 762 446 762 392 715.5 c 128,-1,18
 338 669 338 669 338 602 c 0,19,20
 338 576 338 576 351 548 c 128,-1,21
 364 520 364 520 387 492 c 1,22,-1
 535 492 l 1,23,-1
 535 443 l 1,24,-1
 350 443 l 1,25,-1
 350 283 l 1,26,27
 371 301 371 301 397 310.5 c 128,-1,28
 423 320 423 320 449 320 c 0,29,30
 515 320 515 320 561.5 262 c 128,-1,31
 608 204 608 204 608 123 c 0,32,33
 608 21 608 21 540 -51 c 128,-1,34
 472 -123 472 -123 375 -123 c 2,35,-1
 141 -123 l 2,36,37
 110 -123 110 -123 89 -148 c 128,-1,38
 68 -173 68 -173 68 -209 c 0,39,40
 68 -231 68 -231 84 -257 c 128,-1,41
 100 -283 100 -283 129 -307 c 1,42,-1
 86 -356 l 1,43,44
 48 -324 48 -324 27 -285.5 c 128,-1,45
 6 -247 6 -247 6 -209 c 0,46,47
 6 -152 6 -152 45.5 -113 c 128,-1,48
 85 -74 85 -74 141 -74 c 2,49,-1
 375 -74 l 2,50,51
 446 -74 446 -74 496.5 -16 c 128,-1,52
 547 42 547 42 547 123 c 0,53,54
 547 180 547 180 518 219 c 128,-1,55
 489 258 489 258 449 258 c 0,56,57
 419 258 419 258 392.5 241.5 c 128,-1,58
 366 225 366 225 350 197 c 1,59,-1
 350 0 l 1,60,-1
 289 0 l 1,61,-1
 289 443 l 1,62,-1
 154 443 l 1,63,-1
 154 0 l 1,64,-1
 92 0 l 1,65,-1
 92 492 l 1,66,-1
 92 492 l 1,0,-1
EndSplineSet
Validated: 5
LCarets2: 1 0 
Ligature2: "'abvs' Above Base Substitutions in Tamil lookup 0 subtable" u0BA8 u0BBF
EndChar

StartChar: u0BA9_u0BBF.abvs
Encoding: 65546 -1 141
Width: 1225
VWidth: 1023
GlyphClass: 2
Flags: W
LayerCount: 2
Fore
SplineSet
187 135 m 1,0,1
 187 94 187 94 212 65.5 c 128,-1,2
 237 37 237 37 273 37 c 256,3,4
 309 37 309 37 334 66 c 128,-1,5
 359 95 359 95 359 135 c 256,6,7
 359 176 359 176 334 205 c 128,-1,8
 309 234 309 234 273 234 c 256,9,10
 237 234 237 234 212 205 c 128,-1,11
 187 176 187 176 187 135 c 1,12,-1
 187 135 l 1,0,1
519 197 m 1,13,14
 519 131 519 131 536.5 84 c 128,-1,15
 554 37 554 37 580 37 c 256,16,17
 606 37 606 37 624 83.5 c 128,-1,18
 642 130 642 130 642 197 c 0,19,20
 642 245 642 245 626 289 c 128,-1,21
 610 333 610 333 580 369 c 1,22,23
 550 333 550 333 534.5 289 c 128,-1,24
 519 245 519 245 519 197 c 1,25,-1
 519 197 l 1,13,14
728 492 m 1,26,-1
 777 492 l 1,27,28
 754 520 754 520 741 552 c 128,-1,29
 728 584 728 584 728 615 c 0,30,31
 728 696 728 696 785.5 753.5 c 128,-1,32
 843 811 843 811 924 811 c 0,33,34
 1010 811 1010 811 1071.5 746.5 c 128,-1,35
 1133 682 1133 682 1133 590 c 2,36,-1
 1133 0 l 1,37,-1
 1072 0 l 1,38,-1
 1072 590 l 2,39,40
 1072 661 1072 661 1029 711.5 c 128,-1,41
 986 762 986 762 924 762 c 0,42,43
 867 762 867 762 828 719 c 128,-1,44
 789 676 789 676 789 615 c 0,45,46
 789 581 789 581 805 548.5 c 128,-1,47
 821 516 821 516 851 492 c 1,48,-1
 986 492 l 1,49,-1
 986 443 l 1,50,-1
 888 443 l 1,51,-1
 888 0 l 1,52,-1
 826 0 l 1,53,-1
 826 443 l 1,54,-1
 728 443 l 2,55,56
 696 443 696 443 667 433.5 c 128,-1,57
 638 424 638 424 617 406 c 1,58,59
 658 372 658 372 680.5 317 c 128,-1,60
 703 262 703 262 703 197 c 0,61,62
 703 111 703 111 667 49.5 c 128,-1,63
 631 -12 631 -12 580 -12 c 256,64,65
 530 -12 530 -12 493.5 49.5 c 128,-1,66
 457 111 457 111 457 197 c 0,67,68
 457 260 457 260 480 312.5 c 128,-1,69
 503 365 503 365 543 400 c 1,70,71
 511 427 511 427 467 441 c 128,-1,72
 423 455 423 455 371 455 c 0,73,74
 259 455 259 455 180 383 c 128,-1,75
 101 311 101 311 101 209 c 0,76,77
 101 170 101 170 114 138 c 128,-1,78
 127 106 127 106 150 86 c 1,79,80
 144 97 144 97 141 109.5 c 128,-1,81
 138 122 138 122 138 135 c 0,82,83
 138 196 138 196 177 239.5 c 128,-1,84
 216 283 216 283 273 283 c 256,85,86
 330 283 330 283 369 240 c 128,-1,87
 408 197 408 197 408 135 c 256,88,89
 408 74 408 74 368.5 31 c 128,-1,90
 329 -12 329 -12 273 -12 c 0,91,92
 181 -12 181 -12 116.5 52.5 c 128,-1,93
 52 117 52 117 52 209 c 0,94,95
 52 331 52 331 145 417.5 c 128,-1,96
 238 504 238 504 371 504 c 0,97,98
 436 504 436 504 490.5 488 c 128,-1,99
 545 472 545 472 580 443 c 1,100,101
 608 466 608 466 646.5 479 c 128,-1,102
 685 492 685 492 728 492 c 1,103,-1
 728 492 l 1,26,-1
EndSplineSet
Validated: 5
LCarets2: 1 0 
Ligature2: "'abvs' Above Base Substitutions in Tamil lookup 0 subtable" u0BA9 u0BBF
EndChar

StartChar: u0BAA_u0BBF.abvs
Encoding: 65547 -1 142
Width: 934
VWidth: 1023
GlyphClass: 2
Flags: W
LayerCount: 2
Fore
SplineSet
608 49 m 1,0,-1
 608 344 l 1,1,2
 593 327 593 327 567.5 317 c 128,-1,3
 542 307 542 307 510 307 c 0,4,5
 439 307 439 307 388.5 368.5 c 128,-1,6
 338 430 338 430 338 516 c 0,7,8
 338 638 338 638 421 724.5 c 128,-1,9
 504 811 504 811 621 811 c 0,10,11
 713 811 713 811 777.5 746.5 c 128,-1,12
 842 682 842 682 842 590 c 2,13,-1
 842 0 l 1,14,-1
 781 0 l 1,15,-1
 781 590 l 2,16,17
 781 661 781 661 734 711.5 c 128,-1,18
 687 762 687 762 621 762 c 0,19,20
 529 762 529 762 464.5 690 c 128,-1,21
 400 618 400 618 400 516 c 0,22,23
 400 450 400 450 432.5 403 c 128,-1,24
 465 356 465 356 510 356 c 0,25,26
 537 356 537 356 563 369 c 128,-1,27
 589 382 589 382 608 406 c 1,28,-1
 608 492 l 1,29,-1
 670 492 l 1,30,-1
 670 0 l 1,31,-1
 92 0 l 1,32,-1
 92 492 l 1,33,-1
 154 492 l 1,34,-1
 154 49 l 1,35,-1
 608 49 l 1,36,-1
 608 49 l 1,0,-1
EndSplineSet
Validated: 5
LCarets2: 1 0 
Ligature2: "'abvs' Above Base Substitutions in Tamil lookup 0 subtable" u0BAA u0BBF
EndChar

StartChar: u0BAE_u0BBF.abvs
Encoding: 65548 -1 143
Width: 1008
VWidth: 1023
GlyphClass: 2
Flags: W
LayerCount: 2
Fore
SplineSet
449 369 m 1,0,-1
 449 49 l 1,1,-1
 621 49 l 2,2,3
 657 49 657 49 682 88.5 c 128,-1,4
 707 128 707 128 707 184 c 0,5,6
 707 296 707 296 653 375.5 c 128,-1,7
 599 455 599 455 522 455 c 0,8,9
 491 455 491 455 470 429.5 c 128,-1,10
 449 404 449 404 449 369 c 1,11,-1
 449 369 l 1,0,-1
522 504 m 1,12,-1
 535 504 l 1,13,14
 517 530 517 530 507.5 561.5 c 128,-1,15
 498 593 498 593 498 627 c 0,16,17
 498 698 498 698 555.5 748.5 c 128,-1,18
 613 799 613 799 695 799 c 0,19,20
 787 799 787 799 851.5 734.5 c 128,-1,21
 916 670 916 670 916 578 c 2,22,-1
 916 0 l 1,23,-1
 854 0 l 1,24,-1
 854 578 l 2,25,26
 854 649 854 649 807.5 699.5 c 128,-1,27
 761 750 761 750 695 750 c 0,28,29
 638 750 638 750 598.5 713.5 c 128,-1,30
 559 677 559 677 559 627 c 0,31,32
 559 590 559 590 572 555 c 128,-1,33
 585 520 585 520 608 492 c 1,34,35
 681 458 681 458 724.5 374.5 c 128,-1,36
 768 291 768 291 768 184 c 0,37,38
 768 108 768 108 725 54 c 128,-1,39
 682 0 682 0 621 0 c 2,40,-1
 92 0 l 1,41,-1
 92 492 l 1,42,-1
 154 492 l 1,43,-1
 154 49 l 1,44,-1
 387 49 l 1,45,-1
 387 369 l 2,46,47
 387 426 387 426 426.5 465 c 128,-1,48
 466 504 466 504 522 504 c 1,49,-1
 522 504 l 1,12,-1
EndSplineSet
Validated: 5
LCarets2: 1 0 
Ligature2: "'abvs' Above Base Substitutions in Tamil lookup 0 subtable" u0BAE u0BBF
EndChar

StartChar: u0BAF_u0BBF.abvs
Encoding: 65549 -1 144
Width: 1051
VWidth: 1023
GlyphClass: 2
Flags: W
LayerCount: 2
Fore
SplineSet
725 49 m 1,0,-1
 725 344 l 1,1,2
 708 327 708 327 682 317 c 128,-1,3
 656 307 656 307 627 307 c 0,4,5
 566 307 566 307 522.5 368.5 c 128,-1,6
 479 430 479 430 479 516 c 0,7,8
 479 638 479 638 555 724.5 c 128,-1,9
 631 811 631 811 738 811 c 0,10,11
 830 811 830 811 894.5 746.5 c 128,-1,12
 959 682 959 682 959 590 c 2,13,-1
 959 0 l 1,14,-1
 897 0 l 1,15,-1
 897 590 l 2,16,17
 897 661 897 661 850.5 711.5 c 128,-1,18
 804 762 804 762 738 762 c 0,19,20
 657 762 657 762 599 690 c 128,-1,21
 541 618 541 618 541 516 c 0,22,23
 541 450 541 450 566 403 c 128,-1,24
 591 356 591 356 627 356 c 0,25,26
 657 356 657 356 682.5 367.5 c 128,-1,27
 708 379 708 379 725 400 c 1,28,-1
 725 492 l 1,29,-1
 787 492 l 1,30,-1
 787 0 l 1,31,-1
 307 0 l 1,32,-1
 307 37 l 1,33,34
 287 14 287 14 261.5 1 c 128,-1,35
 236 -12 236 -12 209 -12 c 0,36,37
 159 -12 159 -12 122.5 31 c 128,-1,38
 86 74 86 74 86 135 c 2,39,-1
 86 492 l 1,40,-1
 148 492 l 1,41,-1
 148 135 l 2,42,43
 148 94 148 94 165.5 65.5 c 128,-1,44
 183 37 183 37 209 37 c 0,45,46
 250 37 250 37 278.5 69.5 c 128,-1,47
 307 102 307 102 307 148 c 2,48,-1
 307 492 l 1,49,-1
 369 492 l 1,50,-1
 369 49 l 1,51,-1
 725 49 l 1,52,-1
 725 49 l 1,0,-1
EndSplineSet
Validated: 5
LCarets2: 1 0 
Ligature2: "'abvs' Above Base Substitutions in Tamil lookup 0 subtable" u0BAF u0BBF
EndChar

StartChar: u0BB0_u0BBF.abvs
Encoding: 65550 -1 145
Width: 737
VWidth: 1023
GlyphClass: 2
Flags: W
HStem: 762 49<352.188 505.568>
VStem: 178 56<-185.664 -125.522> 227 62<553.726 699.939> 584 61<590 679.709>
LayerCount: 2
Fore
SplineSet
387 0 m 1,0,1
 387 443 l 1,2,-1
 510 443 l 1,3,-1
 510 492 l 1,4,-1
 375 492 l 1,5,6
 336 515 336 515 312.5 551.5 c 128,-1,7
 289 588 289 588 289 627 c 0,8,9
 289 683 289 683 330 722.5 c 128,-1,10
 371 762 371 762 430 762 c 0,11,12
 494 762 494 762 539 711.5 c 128,-1,13
 584 661 584 661 584 590 c 2,14,-1
 584 0 l 1,15,-1
 645 0 l 1,16,-1
 645 590 l 2,17,18
 645 682 645 682 582 746.5 c 128,-1,19
 519 811 519 811 430 811 c 0,20,21
 347 811 347 811 287 757 c 128,-1,22
 227 703 227 703 227 627 c 0,23,24
 227 584 227 584 247 548 c 128,-1,25
 267 512 267 512 301 492 c 1,26,-1
 92 492 l 1,27,-1
 92 0 l 1,28,-1
 154 0 l 1,29,-1
 154 443 l 1,30,-1
 326 443 l 1,31,-1
 326 31 l 1,32,33
 268 -2 268 -2 229 -58.5 c 128,-1,34
 190 -115 190 -115 178 -184 c 1,35,-1
 234 -197 l 1,36,37
 246 -127 246 -127 287 -74 c 128,-1,38
 328 -21 328 -21 387 0 c 1,0,1
EndSplineSet
Validated: 9
LCarets2: 1 0 
Ligature2: "'abvs' Above Base Substitutions in Tamil lookup 0 subtable" u0BB0 u0BBF
EndChar

